SourceSansPro-Regular.ufo
<glyph name="P" format="1">
  <advance width="576"/>
  <unicode hex="0050"/>
  <outline>
    <contour>
      <point x="90" y="0" type="line"/>
      <point x="173" y="0" type="line"/>
      <point x="173" y="260" type="line"/>
      <point x="291" y="260" type="line" smooth="yes"/>
      <point x="435" y="260"/>
      <point x="533" y="325"/>
      <point x="533" y="463" type="curve" smooth="yes"/>
      <point x="533" y="607"/>
      <point x="436" y="656"/>
      <point x="291" y="656" type="curve" smooth="yes"/>
      <point x="90" y="656" type="line"/>
    </contour>
    <contour>
      <point x="173" y="328" type="line"/>
      <point x="173" y="589" type="line"/>
      <point x="281" y="589" type="line" smooth="yes"/>
      <point x="394" y="589"/>
      <point x="450" y="558"/>
      <point x="450" y="463" type="curve" smooth="yes"/>
      <point x="450" y="370"/>
      <point x="395" y="328"/>
      <point x="281" y="328" type="curve" smooth="yes"/>
    </contour>
  </outline>
</glyph>
<glyph name="grave" format="1">
  <advance width="542"/>
  <unicode hex="0060"/>
  <outline>
    <contour>
      <point x="273" y="573" type="line"/>
      <point x="336" y="573" type="line"/>
      <point x="246" y="714" type="line"/>
      <point x="160" y="714" type="line"/>
    </contour>
  </outline>
</glyph>
<glyph name="dieresis" format="1">
  <advance width="542"/>
  <unicode hex="00A8"/>
  <outline>
    <contour>
      <point x="185" y="588" type="curve" smooth="yes"/>
      <point x="213" y="588"/>
      <point x="234" y="609"/>
      <point x="234" y="637" type="curve" smooth="yes"/>
      <point x="234" y="665"/>
      <point x="213" y="686"/>
      <point x="185" y="686" type="curve" smooth="yes"/>
      <point x="157" y="686"/>
      <point x="136" y="665"/>
      <point x="136" y="637" type="curve" smooth="yes"/>
      <point x="136" y="609"/>
      <point x="157" y="588"/>
    </contour>
    <contour>
      <point x="357" y="588" type="curve" smooth="yes"/>
      <point x="386" y="588"/>
      <point x="406" y="609"/>
      <point x="406" y="637" type="curve" smooth="yes"/>
      <point x="406" y="665"/>
      <point x="386" y="686"/>
      <point x="357" y="686" type="curve" smooth="yes"/>
      <point x="329" y="686"/>
      <point x="309" y="665"/>
      <point x="309" y="637" type="curve" smooth="yes"/>
      <point x="309" y="609"/>
      <point x="329" y="588"/>
    </contour>
  </outline>
</glyph>
<glyph name="uni00AD" format="1">
  <advance width="311"/>
  <unicode hex="00AD"/>
  <outline>
    <contour>
      <point x="41" y="219" type="line"/>
      <point x="271" y="219" type="line"/>
      <point x="271" y="282" type="line"/>
      <point x="41" y="282" type="line"/>
    </contour>
  </outline>
</glyph>
<glyph name="macron" format="1">
  <advance width="542"/>
  <unicode hex="00AF"/>
  <outline>
    <contour>
      <point x="149" y="601" type="line"/>
      <point x="394" y="601" type="line"/>
      <point x="394" y="658" type="line"/>
      <point x="149" y="658" type="line"/>
    </contour>
  </outline>
</glyph>
<glyph name="two.sups" format="1">
  <advance width="367"/>
  <unicode hex="00B2"/>
  <outline>
    <contour>
      <point x="52" y="440" type="line"/>
      <point x="320" y="440" type="line"/>
      <point x="320" y="495" type="line"/>
      <point x="155" y="495" type="line"/>
      <point x="238" y="580"/>
      <point x="300" y="641"/>
      <point x="300" y="716" type="curve" smooth="yes"/>
      <point x="300" y="798"/>
      <point x="248" y="842"/>
      <point x="170" y="842" type="curve" smooth="yes"/>
      <point x="117" y="842"/>
      <point x="70" y="811"/>
      <point x="40" y="766" type="curve"/>
      <point x="78" y="731" type="line"/>
      <point x="100" y="763"/>
      <point x="129" y="788"/>
      <point x="162" y="788" type="curve" smooth="yes"/>
      <point x="208" y="788"/>
      <point x="237" y="757"/>
      <point x="237" y="706" type="curve" smooth="yes"/>
      <point x="237" y="647"/>
      <point x="173" y="586"/>
      <point x="52" y="477" type="curve"/>
    </contour>
  </outline>
</glyph>
<glyph name="three.sups" format="1">
  <advance width="367"/>
  <unicode hex="00B3"/>
  <outline>
    <contour>
      <point x="35" y="504" type="line"/>
      <point x="65" y="460"/>
      <point x="117" y="428"/>
      <point x="180" y="428" type="curve" smooth="yes"/>
      <point x="256" y="428"/>
      <point x="319" y="473"/>
      <point x="319" y="545" type="curve" smooth="yes"/>
      <point x="319" y="597"/>
      <point x="279" y="630"/>
      <point x="235" y="641" type="curve"/>
      <point x="275" y="660"/>
      <point x="303" y="691"/>
      <point x="303" y="737" type="curve" smooth="yes"/>
      <point x="303" y="803"/>
      <point x="246" y="842"/>
      <point x="179" y="842" type="curve" smooth="yes"/>
      <point x="125" y="842"/>
      <point x="85" y="817"/>
      <point x="51" y="778" type="curve"/>
      <point x="90" y="744" type="line"/>
      <point x="112" y="771"/>
      <point x="140" y="791"/>
      <point x="169" y="791" type="curve" smooth="yes"/>
      <point x="212" y="791"/>
      <point x="240" y="766"/>
      <point x="240" y="729" type="curve" smooth="yes"/>
      <point x="240" y="689"/>
      <point x="201" y="659"/>
      <point x="134" y="659" type="curve"/>
      <point x="134" y="618" type="line"/>
      <point x="210" y="618"/>
      <point x="255" y="594"/>
      <point x="255" y="549" type="curve" smooth="yes"/>
      <point x="255" y="504"/>
      <point x="219" y="479"/>
      <point x="177" y="479" type="curve" smooth="yes"/>
      <point x="136" y="479"/>
      <point x="102" y="501"/>
      <point x="78" y="537" type="curve"/>
    </contour>
  </outline>
</glyph>
<glyph name="acute" format="1">
  <advance width="542"/>
  <unicode hex="00B4"/>
  <outline>
    <contour>
      <point x="382" y="714" type="line"/>
      <point x="296" y="714" type="line"/>
      <point x="206" y="573" type="line"/>
      <point x="269" y="573" type="line"/>
    </contour>
  </outline>
</glyph>
<glyph name="uni00B5" format="1">
  <advance width="550"/>
  <unicode hex="00B5"/>
  <outline>
    <contour>
      <point x="82" y="-200" type="line"/>
      <point x="164" y="-200" type="line"/>
      <point x="164" y="-55" type="line"/>
      <point x="159" y="35" type="line"/>
      <point x="182" y="0"/>
      <point x="212" y="-8"/>
      <point x="251" y="-8" type="curve" smooth="yes"/>
      <point x="307" y="-8"/>
      <point x="353" y="24"/>
      <point x="391" y="76" type="curve"/>
      <point x="393" y="76" type="line"/>
      <point x="400" y="0" type="line"/>
      <point x="468" y="0" type="line"/>
      <point x="468" y="486" type="line"/>
      <point x="386" y="486" type="line"/>
      <point x="386" y="141" type="line"/>
      <point x="340" y="84"/>
      <point x="306" y="59"/>
      <point x="256" y="59" type="curve" smooth="yes"/>
      <point x="192" y="59"/>
      <point x="164" y="98"/>
      <point x="164" y="189" type="curve" smooth="yes"/>
      <point x="164" y="486" type="line"/>
      <point x="82" y="486" type="line"/>
    </contour>
  </outline>
</glyph>
<glyph name="periodcentered" format="1">
  <advance width="249"/>
  <unicode hex="00B7"/>
  <outline>
    <contour>
      <point x="65" y="321" type="curve" smooth="yes"/>
      <point x="65" y="285"/>
      <point x="92" y="259"/>
      <point x="125" y="259" type="curve" smooth="yes"/>
      <point x="157" y="259"/>
      <point x="184" y="285"/>
      <point x="184" y="321" type="curve" smooth="yes"/>
      <point x="184" y="359"/>
      <point x="157" y="385"/>
      <point x="125" y="385" type="curve" smooth="yes"/>
      <point x="92" y="385"/>
      <point x="65" y="359"/>
    </contour>
  </outline>
</glyph>
<glyph name="cedilla" format="1">
  <advance width="542"/>
  <unicode hex="00B8"/>
  <outline>
    <contour>
      <point x="218" y="-75" type="line"/>
      <point x="259" y="-85"/>
      <point x="282" y="-98"/>
      <point x="282" y="-124" type="curve" smooth="yes"/>
      <point x="282" y="-151"/>
      <point x="245" y="-165"/>
      <point x="193" y="-172" type="curve"/>
      <point x="201" y="-213" type="line"/>
      <point x="276" y="-206"/>
      <point x="345" y="-179"/>
      <point x="345" y="-121" type="curve" smooth="yes"/>
      <point x="345" y="-80"/>
      <point x="319" y="-61"/>
      <point x="286" y="-50" type="curve"/>
      <point x="312" y="3" type="line"/>
      <point x="258" y="3" type="line"/>
    </contour>
  </outline>
</glyph>
<glyph name="one.sups" format="1">
  <advance width="367"/>
  <unicode hex="00B9"/>
  <outline>
    <contour>
      <point x="172" y="440" type="line"/>
      <point x="236" y="440" type="line"/>
      <point x="236" y="830" type="line"/>
      <point x="184" y="830" type="line"/>
      <point x="157" y="810"/>
      <point x="131" y="798"/>
      <point x="87" y="790" type="curve"/>
      <point x="87" y="748" type="line"/>
      <point x="172" y="748" type="line"/>
    </contour>
  </outline>
</glyph>
<glyph name="threequarters" format="1">
  <advance width="796"/>
  <unicode hex="00BE"/>
  <outline>
    <contour>
      <point x="88" y="570" type="line"/>
      <point x="111" y="598"/>
      <point x="139" y="617"/>
      <point x="168" y="617" type="curve" smooth="yes"/>
      <point x="211" y="617"/>
      <point x="238" y="593"/>
      <point x="238" y="555" type="curve" smooth="yes"/>
      <point x="238" y="515"/>
      <point x="199" y="485"/>
      <point x="132" y="485" type="curve"/>
      <point x="132" y="444" type="line"/>
      <point x="209" y="444"/>
      <point x="253" y="420"/>
      <point x="253" y="375" type="curve" smooth="yes"/>
      <point x="253" y="331"/>
      <point x="218" y="305"/>
      <point x="175" y="305" type="curve" smooth="yes"/>
      <point x="135" y="305"/>
      <point x="100" y="327"/>
      <point x="76" y="363" type="curve"/>
      <point x="34" y="331" type="line"/>
      <point x="64" y="287"/>
      <point x="115" y="254"/>
      <point x="179" y="254" type="curve" smooth="yes"/>
      <point x="255" y="254"/>
      <point x="317" y="299"/>
      <point x="317" y="371" type="curve" smooth="yes"/>
      <point x="317" y="423"/>
      <point x="278" y="456"/>
      <point x="234" y="468" type="curve"/>
      <point x="274" y="486"/>
      <point x="302" y="517"/>
      <point x="302" y="563" type="curve" smooth="yes"/>
      <point x="302" y="629"/>
      <point x="245" y="668"/>
      <point x="177" y="668" type="curve" smooth="yes"/>
      <point x="123" y="668"/>
      <point x="83" y="643"/>
      <point x="50" y="604" type="curve"/>
    </contour>
    <contour>
      <point x="580" y="668" type="line"/>
      <point x="218" y="-12" type="line"/>
      <point x="273" y="-12" type="line"/>
      <point x="635" y="668" type="line"/>
    </contour>
    <contour>
      <point x="537" y="150" type="line"/>
      <point x="599" y="248" type="line"/>
      <point x="649" y="329" type="line"/>
      <point x="653" y="329" type="line"/>
      <point x="648" y="220" type="line"/>
      <point x="648" y="150" type="line"/>
    </contour>
    <contour>
      <point x="764" y="150" type="line"/>
      <point x="706" y="150" type="line"/>
      <point x="706" y="390" type="line"/>
      <point x="634" y="390" type="line"/>
      <point x="470" y="137" type="line"/>
      <point x="470" y="104" type="line"/>
      <point x="648" y="104" type="line"/>
      <point x="648" y="0" type="line"/>
      <point x="706" y="0" type="line"/>
      <point x="706" y="104" type="line"/>
      <point x="764" y="104" type="line"/>
    </contour>
  </outline>
</glyph>
<glyph name="Atilde" format="1">
  <advance width="544"/>
  <unicode hex="00C3"/>
  <outline>
    <contour>
      <point x="369" y="819" type="line"/>
      <point x="364" y="786"/>
      <point x="349" y="767"/>
      <point x="329" y="767" type="curve" smooth="yes"/>
      <point x="292" y="767"/>
      <point x="263" y="819"/>
      <point x="210" y="819" type="curve" smooth="yes"/>
      <point x="162" y="819"/>
      <point x="131" y="773"/>
      <point x="126" y="711" type="curve"/>
      <point x="171" y="711" type="line"/>
      <point x="177" y="745"/>
      <point x="192" y="763"/>
      <point x="212" y="763" type="curve" smooth="yes"/>
      <point x="249" y="763"/>
      <point x="278" y="711"/>
      <point x="331" y="711" type="curve" smooth="yes"/>
      <point x="378" y="711"/>
      <point x="409" y="758"/>
      <point x="415" y="819" type="curve"/>
    </contour>
    <contour>
      <point x="172" y="267" type="line"/>
      <point x="203" y="367" type="line" smooth="yes"/>
      <point x="227" y="440"/>
      <point x="248" y="512"/>
      <point x="268" y="588" type="curve"/>
      <point x="272" y="588" type="line"/>
      <point x="293" y="512"/>
      <point x="314" y="440"/>
      <point x="338" y="367" type="curve" smooth="yes"/>
      <point x="369" y="267" type="line"/>
    </contour>
    <contour>
      <point x="452" y="0" type="line"/>
      <point x="541" y="0" type="line"/>
      <point x="319" y="656" type="line"/>
      <point x="225" y="656" type="line"/>
      <point x="3" y="0" type="line"/>
      <point x="88" y="0" type="line"/>
      <point x="151" y="200" type="line"/>
      <point x="390" y="200" type="line"/>
    </contour>
  </outline>
</glyph>
<glyph name="Adieresis" format="1">
  <advance width="544"/>
  <unicode hex="00C4"/>
  <outline>
    <contour>
      <point x="357" y="715" type="curve" smooth="yes"/>
      <point x="385" y="715"/>
      <point x="406" y="736"/>
      <point x="406" y="764" type="curve" smooth="yes"/>
      <point x="406" y="793"/>
      <point x="385" y="813"/>
      <point x="357" y="813" type="curve" smooth="yes"/>
      <point x="328" y="813"/>
      <point x="308" y="793"/>
      <point x="308" y="764" type="curve" smooth="yes"/>
      <point x="308" y="736"/>
      <point x="328" y="715"/>
    </contour>
    <contour>
      <point x="184" y="715" type="curve" smooth="yes"/>
      <point x="212" y="715"/>
      <point x="233" y="736"/>
      <point x="233" y="764" type="curve" smooth="yes"/>
      <point x="233" y="793"/>
      <point x="212" y="813"/>
      <point x="184" y="813" type="curve" smooth="yes"/>
      <point x="156" y="813"/>
      <point x="135" y="793"/>
      <point x="135" y="764" type="curve" smooth="yes"/>
      <point x="135" y="736"/>
      <point x="156" y="715"/>
    </contour>
    <contour>
      <point x="172" y="267" type="line"/>
      <point x="203" y="367" type="line" smooth="yes"/>
      <point x="227" y="440"/>
      <point x="248" y="512"/>
      <point x="268" y="588" type="curve"/>
      <point x="272" y="588" type="line"/>
      <point x="293" y="512"/>
      <point x="314" y="440"/>
      <point x="338" y="367" type="curve" smooth="yes"/>
      <point x="369" y="267" type="line"/>
    </contour>
    <contour>
      <point x="452" y="0" type="line"/>
      <point x="541" y="0" type="line"/>
      <point x="319" y="656" type="line"/>
      <point x="225" y="656" type="line"/>
      <point x="3" y="0" type="line"/>
      <point x="88" y="0" type="line"/>
      <point x="151" y="200" type="line"/>
      <point x="390" y="200" type="line"/>
    </contour>
  </outline>
</glyph>
<glyph name="Ccedilla" format="1">
  <advance width="571"/>
  <unicode hex="00C7"/>
  <outline>
    <contour>
      <point x="492" y="134" type="line"/>
      <point x="450" y="87"/>
      <point x="404" y="61"/>
      <point x="341" y="61" type="curve" smooth="yes"/>
      <point x="217" y="61"/>
      <point x="138" y="165"/>
      <point x="138" y="330" type="curve" smooth="yes"/>
      <point x="138" y="493"/>
      <point x="220" y="595"/>
      <point x="345" y="595" type="curve" smooth="yes"/>
      <point x="400" y="595"/>
      <point x="442" y="571"/>
      <point x="476" y="534" type="curve"/>
      <point x="523" y="587" type="line"/>
      <point x="485" y="630"/>
      <point x="423" y="668"/>
      <point x="344" y="668" type="curve" smooth="yes"/>
      <point x="176" y="668"/>
      <point x="52" y="539"/>
      <point x="52" y="328" type="curve" smooth="yes"/>
      <point x="52" y="124"/>
      <point x="163" y="0"/>
      <point x="317" y="-11" type="curve"/>
      <point x="284" y="-75" type="line"/>
      <point x="325" y="-85"/>
      <point x="347" y="-98"/>
      <point x="347" y="-124" type="curve" smooth="yes"/>
      <point x="347" y="-151"/>
      <point x="311" y="-165"/>
      <point x="258" y="-172" type="curve"/>
      <point x="267" y="-213" type="line"/>
      <point x="342" y="-206"/>
      <point x="411" y="-179"/>
      <point x="411" y="-121" type="curve" smooth="yes"/>
      <point x="411" y="-80"/>
      <point x="385" y="-61"/>
      <point x="352" y="-50" type="curve"/>
      <point x="371" y="-10" type="line"/>
      <point x="439" y="-2"/>
      <point x="494" y="31"/>
      <point x="539" y="83" type="curve"/>
    </contour>
  </outline>
</glyph>
<glyph name="Egrave" format="1">
  <advance width="527"/>
  <unicode hex="00C8"/>
  <outline>
    <contour>
      <point x="90" y="0" type="line"/>
      <point x="478" y="0" type="line"/>
      <point x="478" y="71" type="line"/>
      <point x="173" y="71" type="line"/>
      <point x="173" y="309" type="line"/>
      <point x="422" y="309" type="line"/>
      <point x="422" y="380" type="line"/>
      <point x="173" y="380" type="line"/>
      <point x="173" y="586" type="line"/>
      <point x="468" y="586" type="line"/>
      <point x="468" y="656" type="line"/>
      <point x="90" y="656" type="line"/>
    </contour>
    <contour>
      <point x="266" y="706" type="line"/>
      <point x="335" y="706" type="line"/>
      <point x="247" y="818" type="line"/>
      <point x="153" y="818" type="line"/>
    </contour>
  </outline>
</glyph>
<glyph name="Eacute" format="1">
  <advance width="527"/>
  <unicode hex="00C9"/>
  <outline>
    <contour>
      <point x="90" y="0" type="line"/>
      <point x="478" y="0" type="line"/>
      <point x="478" y="71" type="line"/>
      <point x="173" y="71" type="line"/>
      <point x="173" y="309" type="line"/>
      <point x="422" y="309" type="line"/>
      <point x="422" y="380" type="line"/>
      <point x="173" y="380" type="line"/>
      <point x="173" y="586" type="line"/>
      <point x="468" y="586" type="line"/>
      <point x="468" y="656" type="line"/>
      <point x="90" y="656" type="line"/>
    </contour>
    <contour>
      <point x="415" y="818" type="line"/>
      <point x="321" y="818" type="line"/>
      <point x="233" y="706" type="line"/>
      <point x="302" y="706" type="line"/>
    </contour>
  </outline>
</glyph>
<glyph name="Edieresis" format="1">
  <advance width="527"/>
  <unicode hex="00CB"/>
  <outline>
    <contour>
      <point x="90" y="0" type="line"/>
      <point x="478" y="0" type="line"/>
      <point x="478" y="71" type="line"/>
      <point x="173" y="71" type="line"/>
      <point x="173" y="309" type="line"/>
      <point x="422" y="309" type="line"/>
      <point x="422" y="380" type="line"/>
      <point x="173" y="380" type="line"/>
      <point x="173" y="586" type="line"/>
      <point x="468" y="586" type="line"/>
      <point x="468" y="656" type="line"/>
      <point x="90" y="656" type="line"/>
    </contour>
    <contour>
      <point x="198" y="715" type="curve" smooth="yes"/>
      <point x="226" y="715"/>
      <point x="247" y="736"/>
      <point x="247" y="764" type="curve" smooth="yes"/>
      <point x="247" y="793"/>
      <point x="226" y="813"/>
      <point x="198" y="813" type="curve" smooth="yes"/>
      <point x="170" y="813"/>
      <point x="149" y="793"/>
      <point x="149" y="764" type="curve" smooth="yes"/>
      <point x="149" y="736"/>
      <point x="170" y="715"/>
    </contour>
    <contour>
      <point x="371" y="715" type="curve" smooth="yes"/>
      <point x="399" y="715"/>
      <point x="420" y="736"/>
      <point x="420" y="764" type="curve" smooth="yes"/>
      <point x="420" y="793"/>
      <point x="399" y="813"/>
      <point x="371" y="813" type="curve" smooth="yes"/>
      <point x="342" y="813"/>
      <point x="322" y="793"/>
      <point x="322" y="764" type="curve" smooth="yes"/>
      <point x="322" y="736"/>
      <point x="342" y="715"/>
    </contour>
  </outline>
</glyph>
<glyph name="Igrave" format="1">
  <advance width="263"/>
  <unicode hex="00CC"/>
  <outline>
    <contour>
      <point x="90" y="0" type="line"/>
      <point x="173" y="0" type="line"/>
      <point x="173" y="656" type="line"/>
      <point x="90" y="656" type="line"/>
    </contour>
    <contour>
      <point x="114" y="706" type="line"/>
      <point x="183" y="706" type="line"/>
      <point x="94" y="818" type="line"/>
      <point x="0" y="818" type="line"/>
    </contour>
  </outline>
</glyph>
<glyph name="Iacute" format="1">
  <advance width="263"/>
  <unicode hex="00CD"/>
  <outline>
    <contour>
      <point x="90" y="0" type="line"/>
      <point x="173" y="0" type="line"/>
      <point x="173" y="656" type="line"/>
      <point x="90" y="656" type="line"/>
    </contour>
    <contour>
      <point x="262" y="818" type="line"/>
      <point x="168" y="818" type="line"/>
      <point x="80" y="706" type="line"/>
      <point x="149" y="706" type="line"/>
    </contour>
  </outline>
</glyph>
<glyph name="Icircumflex" format="1">
  <advance width="263"/>
  <unicode hex="00CE"/>
  <outline>
    <contour>
      <point x="90" y="0" type="line"/>
      <point x="173" y="0" type="line"/>
      <point x="173" y="656" type="line"/>
      <point x="90" y="656" type="line"/>
    </contour>
    <contour>
      <point x="62" y="706" type="line"/>
      <point x="129" y="774" type="line"/>
      <point x="133" y="774" type="line"/>
      <point x="200" y="706" type="line"/>
      <point x="267" y="706" type="line"/>
      <point x="171" y="818" type="line"/>
      <point x="92" y="818" type="line"/>
      <point x="-4" y="706" type="line"/>
    </contour>
  </outline>
</glyph>
<glyph name="Idieresis" format="1">
  <advance width="263"/>
  <unicode hex="00CF"/>
  <outline>
    <contour>
      <point x="90" y="0" type="line"/>
      <point x="173" y="0" type="line"/>
      <point x="173" y="656" type="line"/>
      <point x="90" y="656" type="line"/>
    </contour>
    <contour>
      <point x="45" y="715" type="curve" smooth="yes"/>
      <point x="73" y="715"/>
      <point x="94" y="736"/>
      <point x="94" y="764" type="curve" smooth="yes"/>
      <point x="94" y="793"/>
      <point x="73" y="813"/>
      <point x="45" y="813" type="curve" smooth="yes"/>
      <point x="17" y="813"/>
      <point x="-4" y="793"/>
      <point x="-4" y="764" type="curve" smooth="yes"/>
      <point x="-4" y="736"/>
      <point x="17" y="715"/>
    </contour>
    <contour>
      <point x="218" y="715" type="curve" smooth="yes"/>
      <point x="246" y="715"/>
      <point x="267" y="736"/>
      <point x="267" y="764" type="curve" smooth="yes"/>
      <point x="267" y="793"/>
      <point x="246" y="813"/>
      <point x="218" y="813" type="curve" smooth="yes"/>
      <point x="189" y="813"/>
      <point x="169" y="793"/>
      <point x="169" y="764" type="curve" smooth="yes"/>
      <point x="169" y="736"/>
      <point x="189" y="715"/>
    </contour>
  </outline>
</glyph>
<glyph name="Ntilde" format="1">
  <advance width="647"/>
  <unicode hex="00D1"/>
  <outline>
    <contour>
      <point x="90" y="0" type="line"/>
      <point x="169" y="0" type="line"/>
      <point x="169" y="343" type="line" smooth="yes"/>
      <point x="169" y="412"/>
      <point x="163" y="482"/>
      <point x="158" y="548" type="curve"/>
      <point x="162" y="548" type="line"/>
      <point x="233" y="413" type="line"/>
      <point x="471" y="0" type="line"/>
      <point x="557" y="0" type="line"/>
      <point x="557" y="656" type="line"/>
      <point x="478" y="656" type="line"/>
      <point x="478" y="317" type="line" smooth="yes"/>
      <point x="478" y="248"/>
      <point x="484" y="174"/>
      <point x="488" y="108" type="curve"/>
      <point x="484" y="108" type="line"/>
      <point x="413" y="244" type="line"/>
      <point x="176" y="656" type="line"/>
      <point x="90" y="656" type="line"/>
    </contour>
    <contour>
      <point x="387" y="711" type="curve" smooth="yes"/>
      <point x="434" y="711"/>
      <point x="465" y="758"/>
      <point x="471" y="819" type="curve"/>
      <point x="426" y="819" type="line"/>
      <point x="420" y="786"/>
      <point x="405" y="767"/>
      <point x="385" y="767" type="curve" smooth="yes"/>
      <point x="348" y="767"/>
      <point x="319" y="819"/>
      <point x="266" y="819" type="curve" smooth="yes"/>
      <point x="219" y="819"/>
      <point x="188" y="773"/>
      <point x="182" y="711" type="curve"/>
      <point x="227" y="711" type="line"/>
      <point x="233" y="745"/>
      <point x="248" y="763"/>
      <point x="268" y="763" type="curve" smooth="yes"/>
      <point x="305" y="763"/>
      <point x="334" y="711"/>
    </contour>
  </outline>
</glyph>
<glyph name="Oacute" format="1">
  <advance width="664"/>
  <unicode hex="00D3"/>
  <outline>
    <contour>
      <point x="332" y="-12" type="curve" smooth="yes"/>
      <point x="497" y="-12"/>
      <point x="613" y="120"/>
      <point x="613" y="331" type="curve" smooth="yes"/>
      <point x="613" y="540"/>
      <point x="497" y="668"/>
      <point x="332" y="668" type="curve" smooth="yes"/>
      <point x="167" y="668"/>
      <point x="52" y="541"/>
      <point x="52" y="331" type="curve" smooth="yes"/>
      <point x="52" y="120"/>
      <point x="167" y="-12"/>
    </contour>
    <contour>
      <point x="332" y="61" type="curve" smooth="yes"/>
      <point x="215" y="61"/>
      <point x="138" y="167"/>
      <point x="138" y="331" type="curve" smooth="yes"/>
      <point x="138" y="494"/>
      <point x="215" y="595"/>
      <point x="332" y="595" type="curve" smooth="yes"/>
      <point x="449" y="595"/>
      <point x="526" y="494"/>
      <point x="526" y="331" type="curve" smooth="yes"/>
      <point x="526" y="167"/>
      <point x="449" y="61"/>
    </contour>
    <contour>
      <point x="463" y="818" type="line"/>
      <point x="369" y="818" type="line"/>
      <point x="281" y="706" type="line"/>
      <point x="350" y="706" type="line"/>
    </contour>
  </outline>
</glyph>
<glyph name="Otilde" format="1">
  <advance width="664"/>
  <unicode hex="00D5"/>
  <outline>
    <contour>
      <point x="332" y="-12" type="curve" smooth="yes"/>
      <point x="497" y="-12"/>
      <point x="613" y="120"/>
      <point x="613" y="331" type="curve" smooth="yes"/>
      <point x="613" y="540"/>
      <point x="497" y="668"/>
      <point x="332" y="668" type="curve" smooth="yes"/>
      <point x="167" y="668"/>
      <point x="52" y="541"/>
      <point x="52" y="331" type="curve" smooth="yes"/>
      <point x="52" y="120"/>
      <point x="167" y="-12"/>
    </contour>
    <contour>
      <point x="332" y="61" type="curve" smooth="yes"/>
      <point x="215" y="61"/>
      <point x="138" y="167"/>
      <point x="138" y="331" type="curve" smooth="yes"/>
      <point x="138" y="494"/>
      <point x="215" y="595"/>
      <point x="332" y="595" type="curve" smooth="yes"/>
      <point x="449" y="595"/>
      <point x="526" y="494"/>
      <point x="526" y="331" type="curve" smooth="yes"/>
      <point x="526" y="167"/>
      <point x="449" y="61"/>
    </contour>
    <contour>
      <point x="392" y="711" type="curve" smooth="yes"/>
      <point x="440" y="711"/>
      <point x="471" y="758"/>
      <point x="477" y="819" type="curve"/>
      <point x="431" y="819" type="line"/>
      <point x="426" y="786"/>
      <point x="410" y="767"/>
      <point x="391" y="767" type="curve" smooth="yes"/>
      <point x="354" y="767"/>
      <point x="325" y="819"/>
      <point x="272" y="819" type="curve" smooth="yes"/>
      <point x="224" y="819"/>
      <point x="193" y="773"/>
      <point x="187" y="711" type="curve"/>
      <point x="233" y="711" type="line"/>
      <point x="239" y="745"/>
      <point x="254" y="763"/>
      <point x="274" y="763" type="curve" smooth="yes"/>
      <point x="310" y="763"/>
      <point x="340" y="711"/>
    </contour>
  </outline>
</glyph>
<glyph name="Odieresis" format="1">
  <advance width="664"/>
  <unicode hex="00D6"/>
  <outline>
    <contour>
      <point x="332" y="-12" type="curve" smooth="yes"/>
      <point x="497" y="-12"/>
      <point x="613" y="120"/>
      <point x="613" y="331" type="curve" smooth="yes"/>
      <point x="613" y="540"/>
      <point x="497" y="668"/>
      <point x="332" y="668" type="curve" smooth="yes"/>
      <point x="167" y="668"/>
      <point x="52" y="541"/>
      <point x="52" y="331" type="curve" smooth="yes"/>
      <point x="52" y="120"/>
      <point x="167" y="-12"/>
    </contour>
    <contour>
      <point x="332" y="61" type="curve" smooth="yes"/>
      <point x="215" y="61"/>
      <point x="138" y="167"/>
      <point x="138" y="331" type="curve" smooth="yes"/>
      <point x="138" y="494"/>
      <point x="215" y="595"/>
      <point x="332" y="595" type="curve" smooth="yes"/>
      <point x="449" y="595"/>
      <point x="526" y="494"/>
      <point x="526" y="331" type="curve" smooth="yes"/>
      <point x="526" y="167"/>
      <point x="449" y="61"/>
    </contour>
    <contour>
      <point x="246" y="715" type="curve" smooth="yes"/>
      <point x="274" y="715"/>
      <point x="295" y="736"/>
      <point x="295" y="764" type="curve" smooth="yes"/>
      <point x="295" y="793"/>
      <point x="274" y="813"/>
      <point x="246" y="813" type="curve" smooth="yes"/>
      <point x="217" y="813"/>
      <point x="197" y="793"/>
      <point x="197" y="764" type="curve" smooth="yes"/>
      <point x="197" y="736"/>
      <point x="217" y="715"/>
    </contour>
    <contour>
      <point x="418" y="715" type="curve" smooth="yes"/>
      <point x="447" y="715"/>
      <point x="467" y="736"/>
      <point x="467" y="764" type="curve" smooth="yes"/>
      <point x="467" y="793"/>
      <point x="447" y="813"/>
      <point x="418" y="813" type="curve" smooth="yes"/>
      <point x="390" y="813"/>
      <point x="369" y="793"/>
      <point x="369" y="764" type="curve" smooth="yes"/>
      <point x="369" y="736"/>
      <point x="390" y="715"/>
    </contour>
  </outline>
</glyph>
<glyph name="Oslash" format="1">
  <advance width="664"/>
  <unicode hex="00D8"/>
  <outline>
    <contour>
      <point x="496" y="491" type="line"/>
      <point x="517" y="449"/>
      <point x="529" y="395"/>
      <point x="529" y="331" type="curve" smooth="yes"/>
      <point x="529" y="167"/>
      <point x="452" y="61"/>
      <point x="335" y="61" type="curve" smooth="yes"/>
      <point x="284" y="61"/>
      <point x="241" y="81"/>
      <point x="208" y="116" type="curve"/>
    </contour>
    <contour>
      <point x="174" y="167" type="line"/>
      <point x="152" y="211"/>
      <point x="140" y="266"/>
      <point x="140" y="331" type="curve" smooth="yes"/>
      <point x="140" y="494"/>
      <point x="217" y="595"/>
      <point x="335" y="595" type="curve" smooth="yes"/>
      <point x="386" y="595"/>
      <point x="429" y="576"/>
      <point x="462" y="541" type="curve"/>
    </contour>
    <contour>
      <point x="619" y="651" type="line"/>
      <point x="573" y="686" type="line"/>
      <point x="510" y="605" type="line"/>
      <point x="464" y="646"/>
      <point x="403" y="668"/>
      <point x="335" y="668" type="curve" smooth="yes"/>
      <point x="170" y="668"/>
      <point x="54" y="541"/>
      <point x="54" y="331" type="curve" smooth="yes"/>
      <point x="54" y="235"/>
      <point x="78" y="155"/>
      <point x="120" y="97" type="curve"/>
      <point x="50" y="6" type="line"/>
      <point x="96" y="-30" type="line"/>
      <point x="159" y="53" type="line"/>
      <point x="206" y="11"/>
      <point x="266" y="-12"/>
      <point x="335" y="-12" type="curve" smooth="yes"/>
      <point x="499" y="-12"/>
      <point x="615" y="120"/>
      <point x="615" y="331" type="curve" smooth="yes"/>
      <point x="615" y="426"/>
      <point x="591" y="504"/>
      <point x="550" y="561" type="curve"/>
    </contour>
  </outline>
</glyph>
<glyph name="Ucircumflex" format="1">
  <advance width="645"/>
  <unicode hex="00DB"/>
  <outline>
    <contour>
      <point x="87" y="271" type="line" smooth="yes"/>
      <point x="87" y="60"/>
      <point x="189" y="-12"/>
      <point x="323" y="-12" type="curve" smooth="yes"/>
      <point x="457" y="-12"/>
      <point x="558" y="60"/>
      <point x="558" y="271" type="curve" smooth="yes"/>
      <point x="558" y="656" type="line"/>
      <point x="478" y="656" type="line"/>
      <point x="478" y="269" type="line" smooth="yes"/>
      <point x="478" y="111"/>
      <point x="410" y="61"/>
      <point x="323" y="61" type="curve" smooth="yes"/>
      <point x="237" y="61"/>
      <point x="170" y="111"/>
      <point x="170" y="269" type="curve" smooth="yes"/>
      <point x="170" y="656" type="line"/>
      <point x="87" y="656" type="line"/>
    </contour>
    <contour>
      <point x="254" y="706" type="line"/>
      <point x="321" y="774" type="line"/>
      <point x="325" y="774" type="line"/>
      <point x="392" y="706" type="line"/>
      <point x="458" y="706" type="line"/>
      <point x="362" y="818" type="line"/>
      <point x="283" y="818" type="line"/>
      <point x="187" y="706" type="line"/>
    </contour>
  </outline>
</glyph>
<glyph name="Udieresis" format="1">
  <advance width="645"/>
  <unicode hex="00DC"/>
  <outline>
    <contour>
      <point x="87" y="271" type="line" smooth="yes"/>
      <point x="87" y="60"/>
      <point x="189" y="-12"/>
      <point x="323" y="-12" type="curve" smooth="yes"/>
      <point x="457" y="-12"/>
      <point x="558" y="60"/>
      <point x="558" y="271" type="curve" smooth="yes"/>
      <point x="558" y="656" type="line"/>
      <point x="478" y="656" type="line"/>
      <point x="478" y="269" type="line" smooth="yes"/>
      <point x="478" y="111"/>
      <point x="410" y="61"/>
      <point x="323" y="61" type="curve" smooth="yes"/>
      <point x="237" y="61"/>
      <point x="170" y="111"/>
      <point x="170" y="269" type="curve" smooth="yes"/>
      <point x="170" y="656" type="line"/>
      <point x="87" y="656" type="line"/>
    </contour>
    <contour>
      <point x="236" y="715" type="curve" smooth="yes"/>
      <point x="265" y="715"/>
      <point x="285" y="736"/>
      <point x="285" y="764" type="curve" smooth="yes"/>
      <point x="285" y="793"/>
      <point x="265" y="813"/>
      <point x="236" y="813" type="curve" smooth="yes"/>
      <point x="208" y="813"/>
      <point x="187" y="793"/>
      <point x="187" y="764" type="curve" smooth="yes"/>
      <point x="187" y="736"/>
      <point x="208" y="715"/>
    </contour>
    <contour>
      <point x="409" y="715" type="curve" smooth="yes"/>
      <point x="437" y="715"/>
      <point x="458" y="736"/>
      <point x="458" y="764" type="curve" smooth="yes"/>
      <point x="458" y="793"/>
      <point x="437" y="813"/>
      <point x="409" y="813" type="curve" smooth="yes"/>
      <point x="381" y="813"/>
      <point x="360" y="793"/>
      <point x="360" y="764" type="curve" smooth="yes"/>
      <point x="360" y="736"/>
      <point x="381" y="715"/>
    </contour>
  </outline>
</glyph>
<glyph name="Yacute" format="1">
  <advance width="476"/>
  <unicode hex="00DD"/>
  <outline>
    <contour>
      <point x="196" y="0" type="line"/>
      <point x="280" y="0" type="line"/>
      <point x="280" y="254" type="line"/>
      <point x="477" y="656" type="line"/>
      <point x="390" y="656" type="line"/>
      <point x="306" y="471" type="line" smooth="yes"/>
      <point x="286" y="423"/>
      <point x="263" y="377"/>
      <point x="240" y="328" type="curve"/>
      <point x="236" y="328" type="line"/>
      <point x="214" y="377"/>
      <point x="194" y="423"/>
      <point x="173" y="471" type="curve" smooth="yes"/>
      <point x="88" y="656" type="line"/>
      <point x="-1" y="656" type="line"/>
      <point x="196" y="254" type="line"/>
    </contour>
    <contour>
      <point x="369" y="818" type="line"/>
      <point x="275" y="818" type="line"/>
      <point x="187" y="706" type="line"/>
      <point x="256" y="706" type="line"/>
    </contour>
  </outline>
</glyph>
<glyph name="atilde" format="1">
  <advance width="512"/>
  <unicode hex="00E3"/>
  <outline>
    <contour>
      <point x="58" y="126" type="curve" smooth="yes"/>
      <point x="58" y="39"/>
      <point x="119" y="-12"/>
      <point x="201" y="-12" type="curve" smooth="yes"/>
      <point x="261" y="-12"/>
      <point x="315" y="20"/>
      <point x="362" y="58" type="curve"/>
      <point x="364" y="58" type="line"/>
      <point x="371" y="0" type="line"/>
      <point x="439" y="0" type="line"/>
      <point x="439" y="298" type="line" smooth="yes"/>
      <point x="439" y="419"/>
      <point x="389" y="498"/>
      <point x="270" y="498" type="curve" smooth="yes"/>
      <point x="192" y="498"/>
      <point x="124" y="464"/>
      <point x="79" y="435" type="curve"/>
      <point x="112" y="378" type="line"/>
      <point x="150" y="404"/>
      <point x="200" y="430"/>
      <point x="257" y="430" type="curve" smooth="yes"/>
      <point x="336" y="430"/>
      <point x="357" y="370"/>
      <point x="357" y="308" type="curve"/>
      <point x="150" y="285"/>
      <point x="58" y="232"/>
    </contour>
    <contour>
      <point x="139" y="132" type="curve" smooth="yes"/>
      <point x="139" y="194"/>
      <point x="194" y="234"/>
      <point x="357" y="254" type="curve"/>
      <point x="357" y="119" type="line"/>
      <point x="310" y="77"/>
      <point x="271" y="54"/>
      <point x="224" y="54" type="curve" smooth="yes"/>
      <point x="176" y="54"/>
      <point x="139" y="77"/>
    </contour>
    <contour>
      <point x="130" y="579" type="curve"/>
      <point x="177" y="579" type="line"/>
      <point x="182" y="613"/>
      <point x="193" y="630"/>
      <point x="213" y="630" type="curve" smooth="yes"/>
      <point x="247" y="630"/>
      <point x="277" y="579"/>
      <point x="327" y="579" type="curve" smooth="yes"/>
      <point x="376" y="579"/>
      <point x="403" y="625"/>
      <point x="409" y="685" type="curve"/>
      <point x="362" y="685" type="line"/>
      <point x="356" y="651"/>
      <point x="345" y="634"/>
      <point x="325" y="634" type="curve" smooth="yes"/>
      <point x="293" y="634"/>
      <point x="262" y="685"/>
      <point x="212" y="685" type="curve" smooth="yes"/>
      <point x="162" y="685"/>
      <point x="136" y="639"/>
    </contour>
  </outline>
</glyph>
<glyph name="adieresis" format="1">
  <advance width="512"/>
  <unicode hex="00E4"/>
  <outline>
    <contour>
      <point x="58" y="126" type="curve" smooth="yes"/>
      <point x="58" y="39"/>
      <point x="119" y="-12"/>
      <point x="201" y="-12" type="curve" smooth="yes"/>
      <point x="261" y="-12"/>
      <point x="315" y="20"/>
      <point x="362" y="58" type="curve"/>
      <point x="364" y="58" type="line"/>
      <point x="371" y="0" type="line"/>
      <point x="439" y="0" type="line"/>
      <point x="439" y="298" type="line" smooth="yes"/>
      <point x="439" y="419"/>
      <point x="389" y="498"/>
      <point x="270" y="498" type="curve" smooth="yes"/>
      <point x="192" y="498"/>
      <point x="124" y="464"/>
      <point x="79" y="435" type="curve"/>
      <point x="112" y="378" type="line"/>
      <point x="150" y="404"/>
      <point x="200" y="430"/>
      <point x="257" y="430" type="curve" smooth="yes"/>
      <point x="336" y="430"/>
      <point x="357" y="370"/>
      <point x="357" y="308" type="curve"/>
      <point x="150" y="285"/>
      <point x="58" y="232"/>
    </contour>
    <contour>
      <point x="139" y="132" type="curve" smooth="yes"/>
      <point x="139" y="194"/>
      <point x="194" y="234"/>
      <point x="357" y="254" type="curve"/>
      <point x="357" y="119" type="line"/>
      <point x="310" y="77"/>
      <point x="271" y="54"/>
      <point x="224" y="54" type="curve" smooth="yes"/>
      <point x="176" y="54"/>
      <point x="139" y="77"/>
    </contour>
    <contour>
      <point x="183" y="588" type="curve" smooth="yes"/>
      <point x="211" y="588"/>
      <point x="232" y="609"/>
      <point x="232" y="637" type="curve" smooth="yes"/>
      <point x="232" y="665"/>
      <point x="211" y="686"/>
      <point x="183" y="686" type="curve" smooth="yes"/>
      <point x="155" y="686"/>
      <point x="134" y="665"/>
      <point x="134" y="637" type="curve" smooth="yes"/>
      <point x="134" y="609"/>
      <point x="155" y="588"/>
    </contour>
    <contour>
      <point x="356" y="588" type="curve" smooth="yes"/>
      <point x="384" y="588"/>
      <point x="404" y="609"/>
      <point x="404" y="637" type="curve" smooth="yes"/>
      <point x="404" y="665"/>
      <point x="384" y="686"/>
      <point x="356" y="686" type="curve" smooth="yes"/>
      <point x="327" y="686"/>
      <point x="307" y="665"/>
      <point x="307" y="637" type="curve" smooth="yes"/>
      <point x="307" y="609"/>
      <point x="327" y="588"/>
    </contour>
  </outline>
</glyph>
<glyph name="aring" format="1">
  <advance width="512"/>
  <unicode hex="00E5"/>
  <outline>
    <contour>
      <point x="58" y="126" type="curve" smooth="yes"/>
      <point x="58" y="39"/>
      <point x="119" y="-12"/>
      <point x="201" y="-12" type="curve" smooth="yes"/>
      <point x="261" y="-12"/>
      <point x="315" y="20"/>
      <point x="362" y="58" type="curve"/>
      <point x="364" y="58" type="line"/>
      <point x="371" y="0" type="line"/>
      <point x="439" y="0" type="line"/>
      <point x="439" y="298" type="line" smooth="yes"/>
      <point x="439" y="419"/>
      <point x="389" y="498"/>
      <point x="270" y="498" type="curve" smooth="yes"/>
      <point x="192" y="498"/>
      <point x="124" y="464"/>
      <point x="79" y="435" type="curve"/>
      <point x="112" y="378" type="line"/>
      <point x="150" y="404"/>
      <point x="200" y="430"/>
      <point x="257" y="430" type="curve" smooth="yes"/>
      <point x="336" y="430"/>
      <point x="357" y="370"/>
      <point x="357" y="308" type="curve"/>
      <point x="150" y="285"/>
      <point x="58" y="232"/>
    </contour>
    <contour>
      <point x="139" y="132" type="curve" smooth="yes"/>
      <point x="139" y="194"/>
      <point x="194" y="234"/>
      <point x="357" y="254" type="curve"/>
      <point x="357" y="119" type="line"/>
      <point x="310" y="77"/>
      <point x="271" y="54"/>
      <point x="224" y="54" type="curve" smooth="yes"/>
      <point x="176" y="54"/>
      <point x="139" y="77"/>
    </contour>
    <contour>
      <point x="269" y="542" type="curve" smooth="yes"/>
      <point x="324" y="542"/>
      <point x="363" y="579"/>
      <point x="363" y="635" type="curve" smooth="yes"/>
      <point x="363" y="690"/>
      <point x="324" y="727"/>
      <point x="269" y="727" type="curve" smooth="yes"/>
      <point x="215" y="727"/>
      <point x="176" y="690"/>
      <point x="176" y="635" type="curve" smooth="yes"/>
      <point x="176" y="579"/>
      <point x="215" y="542"/>
    </contour>
    <contour>
      <point x="269" y="579" type="curve" smooth="yes"/>
      <point x="243" y="579"/>
      <point x="221" y="601"/>
      <point x="221" y="635" type="curve" smooth="yes"/>
      <point x="221" y="668"/>
      <point x="243" y="690"/>
      <point x="269" y="690" type="curve" smooth="yes"/>
      <point x="296" y="690"/>
      <point x="317" y="668"/>
      <point x="317" y="635" type="curve" smooth="yes"/>
      <point x="317" y="601"/>
      <point x="296" y="579"/>
    </contour>
  </outline>
</glyph>
<glyph name="ccedilla" format="1">
  <advance width="456"/>
  <unicode hex="00E7"/>
  <outline>
    <contour>
      <point x="300" y="-10" type="line"/>
      <point x="348" y="-5"/>
      <point x="395" y="18"/>
      <point x="432" y="51" type="curve"/>
      <point x="395" y="105" type="line"/>
      <point x="366" y="79"/>
      <point x="327" y="56"/>
      <point x="281" y="56" type="curve" smooth="yes"/>
      <point x="192" y="56"/>
      <point x="131" y="131"/>
      <point x="131" y="242" type="curve" smooth="yes"/>
      <point x="131" y="354"/>
      <point x="195" y="430"/>
      <point x="283" y="430" type="curve" smooth="yes"/>
      <point x="322" y="430"/>
      <point x="352" y="412"/>
      <point x="381" y="387" type="curve"/>
      <point x="422" y="440" type="line"/>
      <point x="389" y="471"/>
      <point x="344" y="498"/>
      <point x="280" y="498" type="curve" smooth="yes"/>
      <point x="155" y="498"/>
      <point x="46" y="405"/>
      <point x="46" y="242" type="curve" smooth="yes"/>
      <point x="46" y="93"/>
      <point x="131" y="3"/>
      <point x="245" y="-10" type="curve"/>
      <point x="212" y="-75" type="line"/>
      <point x="253" y="-85"/>
      <point x="276" y="-98"/>
      <point x="276" y="-124" type="curve" smooth="yes"/>
      <point x="276" y="-151"/>
      <point x="239" y="-165"/>
      <point x="187" y="-172" type="curve"/>
      <point x="195" y="-213" type="line"/>
      <point x="271" y="-206"/>
      <point x="340" y="-179"/>
      <point x="340" y="-121" type="curve" smooth="yes"/>
      <point x="340" y="-80"/>
      <point x="313" y="-61"/>
      <point x="281" y="-50" type="curve"/>
    </contour>
  </outline>
</glyph>
<glyph name="egrave" format="1">
  <advance width="496"/>
  <unicode hex="00E8"/>
  <outline>
    <contour>
      <point x="46" y="242" type="curve" smooth="yes"/>
      <point x="46" y="83"/>
      <point x="149" y="-12"/>
      <point x="279" y="-12" type="curve" smooth="yes"/>
      <point x="345" y="-12"/>
      <point x="397" y="11"/>
      <point x="439" y="38" type="curve"/>
      <point x="410" y="92" type="line"/>
      <point x="374" y="69"/>
      <point x="335" y="54"/>
      <point x="289" y="54" type="curve" smooth="yes"/>
      <point x="196" y="54"/>
      <point x="133" y="120"/>
      <point x="127" y="225" type="curve"/>
      <point x="455" y="225" type="line"/>
      <point x="457" y="237"/>
      <point x="458" y="253"/>
      <point x="458" y="270" type="curve" smooth="yes"/>
      <point x="458" y="409"/>
      <point x="388" y="498"/>
      <point x="264" y="498" type="curve" smooth="yes"/>
      <point x="153" y="498"/>
      <point x="46" y="401"/>
    </contour>
    <contour>
      <point x="126" y="279" type="line"/>
      <point x="136" y="377"/>
      <point x="198" y="433"/>
      <point x="266" y="433" type="curve" smooth="yes"/>
      <point x="342" y="433"/>
      <point x="386" y="378"/>
      <point x="386" y="279" type="curve"/>
    </contour>
    <contour>
      <point x="266" y="573" type="line"/>
      <point x="330" y="573" type="line"/>
      <point x="239" y="714" type="line"/>
      <point x="154" y="714" type="line"/>
    </contour>
  </outline>
</glyph>
<glyph name="igrave" format="1">
  <advance width="246"/>
  <unicode hex="00EC"/>
  <outline>
    <contour>
      <point x="82" y="0" type="line"/>
      <point x="164" y="0" type="line"/>
      <point x="164" y="486" type="line"/>
      <point x="82" y="486" type="line"/>
    </contour>
    <contour>
      <point x="125" y="573" type="line"/>
      <point x="188" y="573" type="line"/>
      <point x="98" y="714" type="line"/>
      <point x="12" y="714" type="line"/>
    </contour>
  </outline>
</glyph>
<glyph name="iacute" format="1">
  <advance width="246"/>
  <unicode hex="00ED"/>
  <outline>
    <contour>
      <point x="82" y="0" type="line"/>
      <point x="164" y="0" type="line"/>
      <point x="164" y="486" type="line"/>
      <point x="82" y="486" type="line"/>
    </contour>
    <contour>
      <point x="234" y="714" type="line"/>
      <point x="148" y="714" type="line"/>
      <point x="58" y="573" type="line"/>
      <point x="121" y="573" type="line"/>
    </contour>
  </outline>
</glyph>
<glyph name="idieresis" format="1">
  <advance width="246"/>
  <unicode hex="00EF"/>
  <outline>
    <contour>
      <point x="82" y="0" type="line"/>
      <point x="164" y="0" type="line"/>
      <point x="164" y="486" type="line"/>
      <point x="82" y="486" type="line"/>
    </contour>
    <contour>
      <point x="37" y="588" type="curve" smooth="yes"/>
      <point x="65" y="588"/>
      <point x="86" y="609"/>
      <point x="86" y="637" type="curve" smooth="yes"/>
      <point x="86" y="665"/>
      <point x="65" y="686"/>
      <point x="37" y="686" type="curve" smooth="yes"/>
      <point x="9" y="686"/>
      <point x="-12" y="665"/>
      <point x="-12" y="637" type="curve" smooth="yes"/>
      <point x="-12" y="609"/>
      <point x="9" y="588"/>
    </contour>
    <contour>
      <point x="209" y="588" type="curve" smooth="yes"/>
      <point x="238" y="588"/>
      <point x="258" y="609"/>
      <point x="258" y="637" type="curve" smooth="yes"/>
      <point x="258" y="665"/>
      <point x="238" y="686"/>
      <point x="209" y="686" type="curve" smooth="yes"/>
      <point x="181" y="686"/>
      <point x="161" y="665"/>
      <point x="161" y="637" type="curve" smooth="yes"/>
      <point x="161" y="609"/>
      <point x="181" y="588"/>
    </contour>
  </outline>
</glyph>
<glyph name="ntilde" format="1">
  <advance width="547"/>
  <unicode hex="00F1"/>
  <outline>
    <contour>
      <point x="82" y="0" type="line"/>
      <point x="164" y="0" type="line"/>
      <point x="164" y="352" type="line"/>
      <point x="213" y="401"/>
      <point x="247" y="427"/>
      <point x="297" y="427" type="curve" smooth="yes"/>
      <point x="361" y="427"/>
      <point x="389" y="388"/>
      <point x="389" y="297" type="curve" smooth="yes"/>
      <point x="389" y="0" type="line"/>
      <point x="471" y="0" type="line"/>
      <point x="471" y="308" type="line" smooth="yes"/>
      <point x="471" y="432"/>
      <point x="425" y="498"/>
      <point x="323" y="498" type="curve" smooth="yes"/>
      <point x="256" y="498"/>
      <point x="206" y="462"/>
      <point x="160" y="416" type="curve"/>
      <point x="157" y="416" type="line"/>
      <point x="150" y="486" type="line"/>
      <point x="82" y="486" type="line"/>
    </contour>
    <contour>
      <point x="153" y="579" type="curve"/>
      <point x="199" y="579" type="line"/>
      <point x="205" y="613"/>
      <point x="216" y="630"/>
      <point x="236" y="630" type="curve" smooth="yes"/>
      <point x="270" y="630"/>
      <point x="299" y="579"/>
      <point x="350" y="579" type="curve" smooth="yes"/>
      <point x="399" y="579"/>
      <point x="426" y="625"/>
      <point x="431" y="685" type="curve"/>
      <point x="384" y="685" type="line"/>
      <point x="379" y="651"/>
      <point x="368" y="634"/>
      <point x="348" y="634" type="curve" smooth="yes"/>
      <point x="315" y="634"/>
      <point x="284" y="685"/>
      <point x="234" y="685" type="curve" smooth="yes"/>
      <point x="185" y="685"/>
      <point x="158" y="639"/>
    </contour>
  </outline>
</glyph>
<glyph name="otilde" format="1">
  <advance width="542"/>
  <unicode hex="00F5"/>
  <outline>
    <contour>
      <point x="46" y="242" type="curve" smooth="yes"/>
      <point x="46" y="81"/>
      <point x="152" y="-12"/>
      <point x="271" y="-12" type="curve" smooth="yes"/>
      <point x="390" y="-12"/>
      <point x="496" y="81"/>
      <point x="496" y="242" type="curve" smooth="yes"/>
      <point x="496" y="405"/>
      <point x="390" y="498"/>
      <point x="271" y="498" type="curve" smooth="yes"/>
      <point x="152" y="498"/>
      <point x="46" y="405"/>
    </contour>
    <contour>
      <point x="131" y="242" type="curve" smooth="yes"/>
      <point x="131" y="354"/>
      <point x="188" y="430"/>
      <point x="271" y="430" type="curve" smooth="yes"/>
      <point x="355" y="430"/>
      <point x="411" y="354"/>
      <point x="411" y="242" type="curve" smooth="yes"/>
      <point x="411" y="131"/>
      <point x="355" y="56"/>
      <point x="271" y="56" type="curve" smooth="yes"/>
      <point x="188" y="56"/>
      <point x="131" y="131"/>
    </contour>
    <contour>
      <point x="132" y="579" type="curve"/>
      <point x="179" y="579" type="line"/>
      <point x="184" y="613"/>
      <point x="195" y="630"/>
      <point x="215" y="630" type="curve" smooth="yes"/>
      <point x="249" y="630"/>
      <point x="279" y="579"/>
      <point x="329" y="579" type="curve" smooth="yes"/>
      <point x="378" y="579"/>
      <point x="405" y="625"/>
      <point x="410" y="685" type="curve"/>
      <point x="364" y="685" type="line"/>
      <point x="358" y="651"/>
      <point x="347" y="634"/>
      <point x="327" y="634" type="curve" smooth="yes"/>
      <point x="295" y="634"/>
      <point x="264" y="685"/>
      <point x="213" y="685" type="curve" smooth="yes"/>
      <point x="164" y="685"/>
      <point x="137" y="639"/>
    </contour>
  </outline>
</glyph>
<glyph name="odieresis" format="1">
  <advance width="542"/>
  <unicode hex="00F6"/>
  <outline>
    <contour>
      <point x="46" y="242" type="curve" smooth="yes"/>
      <point x="46" y="81"/>
      <point x="152" y="-12"/>
      <point x="271" y="-12" type="curve" smooth="yes"/>
      <point x="390" y="-12"/>
      <point x="496" y="81"/>
      <point x="496" y="242" type="curve" smooth="yes"/>
      <point x="496" y="405"/>
      <point x="390" y="498"/>
      <point x="271" y="498" type="curve" smooth="yes"/>
      <point x="152" y="498"/>
      <point x="46" y="405"/>
    </contour>
    <contour>
      <point x="131" y="242" type="curve" smooth="yes"/>
      <point x="131" y="354"/>
      <point x="188" y="430"/>
      <point x="271" y="430" type="curve" smooth="yes"/>
      <point x="355" y="430"/>
      <point x="411" y="354"/>
      <point x="411" y="242" type="curve" smooth="yes"/>
      <point x="411" y="131"/>
      <point x="355" y="56"/>
      <point x="271" y="56" type="curve" smooth="yes"/>
      <point x="188" y="56"/>
      <point x="131" y="131"/>
    </contour>
    <contour>
      <point x="185" y="588" type="curve" smooth="yes"/>
      <point x="213" y="588"/>
      <point x="234" y="609"/>
      <point x="234" y="637" type="curve" smooth="yes"/>
      <point x="234" y="665"/>
      <point x="213" y="686"/>
      <point x="185" y="686" type="curve" smooth="yes"/>
      <point x="157" y="686"/>
      <point x="136" y="665"/>
      <point x="136" y="637" type="curve" smooth="yes"/>
      <point x="136" y="609"/>
      <point x="157" y="588"/>
    </contour>
    <contour>
      <point x="357" y="588" type="curve" smooth="yes"/>
      <point x="386" y="588"/>
      <point x="406" y="609"/>
      <point x="406" y="637" type="curve" smooth="yes"/>
      <point x="406" y="665"/>
      <point x="386" y="686"/>
      <point x="357" y="686" type="curve" smooth="yes"/>
      <point x="329" y="686"/>
      <point x="309" y="665"/>
      <point x="309" y="637" type="curve" smooth="yes"/>
      <point x="309" y="609"/>
      <point x="329" y="588"/>
    </contour>
  </outline>
</glyph>
<glyph name="udieresis" format="1">
  <advance width="544"/>
  <unicode hex="00FC"/>
  <outline>
    <contour>
      <point x="75" y="178" type="line" smooth="yes"/>
      <point x="75" y="54"/>
      <point x="121" y="-12"/>
      <point x="224" y="-12" type="curve" smooth="yes"/>
      <point x="291" y="-12"/>
      <point x="339" y="23"/>
      <point x="384" y="76" type="curve"/>
      <point x="387" y="76" type="line"/>
      <point x="394" y="0" type="line"/>
      <point x="462" y="0" type="line"/>
      <point x="462" y="486" type="line"/>
      <point x="380" y="486" type="line"/>
      <point x="380" y="141" type="line"/>
      <point x="334" y="84"/>
      <point x="299" y="59"/>
      <point x="249" y="59" type="curve" smooth="yes"/>
      <point x="185" y="59"/>
      <point x="158" y="98"/>
      <point x="158" y="189" type="curve" smooth="yes"/>
      <point x="158" y="486" type="line"/>
      <point x="75" y="486" type="line"/>
    </contour>
    <contour>
      <point x="186" y="588" type="curve" smooth="yes"/>
      <point x="214" y="588"/>
      <point x="235" y="609"/>
      <point x="235" y="637" type="curve" smooth="yes"/>
      <point x="235" y="665"/>
      <point x="214" y="686"/>
      <point x="186" y="686" type="curve" smooth="yes"/>
      <point x="158" y="686"/>
      <point x="137" y="665"/>
      <point x="137" y="637" type="curve" smooth="yes"/>
      <point x="137" y="609"/>
      <point x="158" y="588"/>
    </contour>
    <contour>
      <point x="359" y="588" type="curve" smooth="yes"/>
      <point x="387" y="588"/>
      <point x="408" y="609"/>
      <point x="408" y="637" type="curve" smooth="yes"/>
      <point x="408" y="665"/>
      <point x="387" y="686"/>
      <point x="359" y="686" type="curve" smooth="yes"/>
      <point x="330" y="686"/>
      <point x="310" y="665"/>
      <point x="310" y="637" type="curve" smooth="yes"/>
      <point x="310" y="609"/>
      <point x="330" y="588"/>
    </contour>
  </outline>
</glyph>
<glyph name="ydieresis" format="1">
  <advance width="467"/>
  <unicode hex="00FF"/>
  <outline>
    <contour>
      <point x="49" y="-134" type="curve"/>
      <point x="33" y="-199" type="line"/>
      <point x="49" y="-205"/>
      <point x="68" y="-209"/>
      <point x="90" y="-209" type="curve" smooth="yes"/>
      <point x="188" y="-209"/>
      <point x="238" y="-136"/>
      <point x="272" y="-40" type="curve" smooth="yes"/>
      <point x="455" y="486" type="line"/>
      <point x="375" y="486" type="line"/>
      <point x="288" y="217" type="line" smooth="yes"/>
      <point x="275" y="174"/>
      <point x="261" y="124"/>
      <point x="247" y="80" type="curve"/>
      <point x="243" y="80" type="line"/>
      <point x="228" y="125"/>
      <point x="211" y="175"/>
      <point x="196" y="217" type="curve" smooth="yes"/>
      <point x="97" y="486" type="line"/>
      <point x="12" y="486" type="line"/>
      <point x="207" y="-1" type="line"/>
      <point x="196" y="-37" type="line" smooth="yes"/>
      <point x="176" y="-97"/>
      <point x="141" y="-141"/>
      <point x="86" y="-141" type="curve" smooth="yes"/>
      <point x="74" y="-141"/>
      <point x="59" y="-137"/>
    </contour>
    <contour>
      <point x="157" y="588" type="curve" smooth="yes"/>
      <point x="185" y="588"/>
      <point x="206" y="609"/>
      <point x="206" y="637" type="curve" smooth="yes"/>
      <point x="206" y="665"/>
      <point x="185" y="686"/>
      <point x="157" y="686" type="curve" smooth="yes"/>
      <point x="129" y="686"/>
      <point x="108" y="665"/>
      <point x="108" y="637" type="curve" smooth="yes"/>
      <point x="108" y="609"/>
      <point x="129" y="588"/>
    </contour>
    <contour>
      <point x="329" y="588" type="curve" smooth="yes"/>
      <point x="358" y="588"/>
      <point x="378" y="609"/>
      <point x="378" y="637" type="curve" smooth="yes"/>
      <point x="378" y="665"/>
      <point x="358" y="686"/>
      <point x="329" y="686" type="curve" smooth="yes"/>
      <point x="301" y="686"/>
      <point x="281" y="665"/>
      <point x="281" y="637" type="curve" smooth="yes"/>
      <point x="281" y="609"/>
      <point x="301" y="588"/>
    </contour>
  </outline>
</glyph>
<glyph name="Abreve" format="1">
  <advance width="544"/>
  <unicode hex="0102"/>
  <outline>
    <contour>
      <point x="343" y="818" type="line"/>
      <point x="337" y="786"/>
      <point x="315" y="755"/>
      <point x="270" y="755" type="curve" smooth="yes"/>
      <point x="225" y="755"/>
      <point x="204" y="786"/>
      <point x="198" y="818" type="curve"/>
      <point x="147" y="818" type="line"/>
      <point x="154" y="762"/>
      <point x="190" y="708"/>
      <point x="270" y="708" type="curve" smooth="yes"/>
      <point x="350" y="708"/>
      <point x="387" y="762"/>
      <point x="393" y="818" type="curve"/>
    </contour>
    <contour>
      <point x="172" y="267" type="line"/>
      <point x="203" y="367" type="line" smooth="yes"/>
      <point x="227" y="440"/>
      <point x="248" y="512"/>
      <point x="268" y="588" type="curve"/>
      <point x="272" y="588" type="line"/>
      <point x="293" y="512"/>
      <point x="314" y="440"/>
      <point x="338" y="367" type="curve" smooth="yes"/>
      <point x="369" y="267" type="line"/>
    </contour>
    <contour>
      <point x="452" y="0" type="line"/>
      <point x="541" y="0" type="line"/>
      <point x="319" y="656" type="line"/>
      <point x="225" y="656" type="line"/>
      <point x="3" y="0" type="line"/>
      <point x="88" y="0" type="line"/>
      <point x="151" y="200" type="line"/>
      <point x="390" y="200" type="line"/>
    </contour>
  </outline>
</glyph>
<glyph name="abreve" format="1">
  <advance width="512"/>
  <unicode hex="0103"/>
  <outline>
    <contour>
      <point x="58" y="126" type="curve" smooth="yes"/>
      <point x="58" y="39"/>
      <point x="119" y="-12"/>
      <point x="201" y="-12" type="curve" smooth="yes"/>
      <point x="261" y="-12"/>
      <point x="315" y="20"/>
      <point x="362" y="58" type="curve"/>
      <point x="364" y="58" type="line"/>
      <point x="371" y="0" type="line"/>
      <point x="439" y="0" type="line"/>
      <point x="439" y="298" type="line" smooth="yes"/>
      <point x="439" y="419"/>
      <point x="389" y="498"/>
      <point x="270" y="498" type="curve" smooth="yes"/>
      <point x="192" y="498"/>
      <point x="124" y="464"/>
      <point x="79" y="435" type="curve"/>
      <point x="112" y="378" type="line"/>
      <point x="150" y="404"/>
      <point x="200" y="430"/>
      <point x="257" y="430" type="curve" smooth="yes"/>
      <point x="336" y="430"/>
      <point x="357" y="370"/>
      <point x="357" y="308" type="curve"/>
      <point x="150" y="285"/>
      <point x="58" y="232"/>
    </contour>
    <contour>
      <point x="139" y="132" type="curve" smooth="yes"/>
      <point x="139" y="194"/>
      <point x="194" y="234"/>
      <point x="357" y="254" type="curve"/>
      <point x="357" y="119" type="line"/>
      <point x="310" y="77"/>
      <point x="271" y="54"/>
      <point x="224" y="54" type="curve" smooth="yes"/>
      <point x="176" y="54"/>
      <point x="139" y="77"/>
    </contour>
    <contour>
      <point x="269" y="575" type="curve" smooth="yes"/>
      <point x="355" y="575"/>
      <point x="391" y="643"/>
      <point x="396" y="702" type="curve"/>
      <point x="344" y="702" type="line"/>
      <point x="339" y="663"/>
      <point x="316" y="626"/>
      <point x="269" y="626" type="curve" smooth="yes"/>
      <point x="222" y="626"/>
      <point x="199" y="663"/>
      <point x="194" y="702" type="curve"/>
      <point x="143" y="702" type="line"/>
      <point x="147" y="643"/>
      <point x="183" y="575"/>
    </contour>
  </outline>
</glyph>
<glyph name="aogonek" format="1">
  <advance width="512"/>
  <unicode hex="0105"/>
  <outline>
    <contour>
      <point x="139" y="132" type="curve" smooth="yes"/>
      <point x="139" y="194"/>
      <point x="194" y="234"/>
      <point x="357" y="254" type="curve"/>
      <point x="357" y="119" type="line"/>
      <point x="310" y="77"/>
      <point x="271" y="54"/>
      <point x="224" y="54" type="curve" smooth="yes"/>
      <point x="176" y="54"/>
      <point x="139" y="77"/>
    </contour>
    <contour>
      <point x="58" y="126" type="curve" smooth="yes"/>
      <point x="58" y="39"/>
      <point x="119" y="-12"/>
      <point x="201" y="-12" type="curve" smooth="yes"/>
      <point x="261" y="-12"/>
      <point x="315" y="20"/>
      <point x="362" y="58" type="curve"/>
      <point x="364" y="58" type="line"/>
      <point x="372" y="4" type="line"/>
      <point x="333" y="-21"/>
      <point x="292" y="-67"/>
      <point x="292" y="-121" type="curve" smooth="yes"/>
      <point x="292" y="-177"/>
      <point x="331" y="-206"/>
      <point x="382" y="-206" type="curve" smooth="yes"/>
      <point x="407" y="-206"/>
      <point x="441" y="-194"/>
      <point x="460" y="-179" type="curve"/>
      <point x="439" y="-138" type="line"/>
      <point x="427" y="-146"/>
      <point x="415" y="-151"/>
      <point x="399" y="-151" type="curve" smooth="yes"/>
      <point x="375" y="-151"/>
      <point x="352" y="-136"/>
      <point x="352" y="-105" type="curve" smooth="yes"/>
      <point x="352" y="-66"/>
      <point x="384" y="-22"/>
      <point x="439" y="0" type="curve"/>
      <point x="439" y="298" type="line" smooth="yes"/>
      <point x="439" y="419"/>
      <point x="389" y="498"/>
      <point x="270" y="498" type="curve" smooth="yes"/>
      <point x="192" y="498"/>
      <point x="124" y="464"/>
      <point x="79" y="435" type="curve"/>
      <point x="112" y="378" type="line"/>
      <point x="150" y="404"/>
      <point x="200" y="430"/>
      <point x="257" y="430" type="curve" smooth="yes"/>
      <point x="336" y="430"/>
      <point x="357" y="370"/>
      <point x="357" y="308" type="curve"/>
      <point x="150" y="285"/>
      <point x="58" y="232"/>
    </contour>
  </outline>
</glyph>
<glyph name="cacute" format="1">
  <advance width="456"/>
  <unicode hex="0107"/>
  <outline>
    <contour>
      <point x="46" y="242" type="curve" smooth="yes"/>
      <point x="46" y="81"/>
      <point x="145" y="-12"/>
      <point x="274" y="-12" type="curve" smooth="yes"/>
      <point x="332" y="-12"/>
      <point x="388" y="12"/>
      <point x="432" y="51" type="curve"/>
      <point x="395" y="105" type="line"/>
      <point x="366" y="79"/>
      <point x="327" y="56"/>
      <point x="281" y="56" type="curve" smooth="yes"/>
      <point x="192" y="56"/>
      <point x="131" y="131"/>
      <point x="131" y="242" type="curve" smooth="yes"/>
      <point x="131" y="354"/>
      <point x="195" y="430"/>
      <point x="283" y="430" type="curve" smooth="yes"/>
      <point x="322" y="430"/>
      <point x="352" y="412"/>
      <point x="381" y="387" type="curve"/>
      <point x="422" y="440" type="line"/>
      <point x="389" y="471"/>
      <point x="344" y="498"/>
      <point x="280" y="498" type="curve" smooth="yes"/>
      <point x="155" y="498"/>
      <point x="46" y="405"/>
    </contour>
    <contour>
      <point x="389" y="714" type="line"/>
      <point x="304" y="714" type="line"/>
      <point x="213" y="573" type="line"/>
      <point x="277" y="573" type="line"/>
    </contour>
  </outline>
</glyph>
<glyph name="Ccircumflex" format="1">
  <advance width="571"/>
  <unicode hex="0108"/>
  <outline>
    <contour>
      <point x="52" y="328" type="curve" smooth="yes"/>
      <point x="52" y="114"/>
      <point x="174" y="-12"/>
      <point x="339" y="-12" type="curve" smooth="yes"/>
      <point x="423" y="-12"/>
      <point x="487" y="23"/>
      <point x="539" y="83" type="curve"/>
      <point x="492" y="134" type="line"/>
      <point x="450" y="87"/>
      <point x="404" y="61"/>
      <point x="341" y="61" type="curve" smooth="yes"/>
      <point x="217" y="61"/>
      <point x="138" y="165"/>
      <point x="138" y="330" type="curve" smooth="yes"/>
      <point x="138" y="493"/>
      <point x="220" y="595"/>
      <point x="345" y="595" type="curve" smooth="yes"/>
      <point x="400" y="595"/>
      <point x="442" y="571"/>
      <point x="476" y="534" type="curve"/>
      <point x="523" y="587" type="line"/>
      <point x="485" y="630"/>
      <point x="423" y="668"/>
      <point x="344" y="668" type="curve" smooth="yes"/>
      <point x="176" y="668"/>
      <point x="52" y="539"/>
    </contour>
    <contour>
      <point x="261" y="706" type="line"/>
      <point x="328" y="774" type="line"/>
      <point x="332" y="774" type="line"/>
      <point x="399" y="706" type="line"/>
      <point x="466" y="706" type="line"/>
      <point x="370" y="818" type="line"/>
      <point x="291" y="818" type="line"/>
      <point x="195" y="706" type="line"/>
    </contour>
  </outline>
</glyph>
<glyph name="Cdotaccent" format="1">
  <advance width="571"/>
  <unicode hex="010A"/>
  <outline>
    <contour>
      <point x="52" y="328" type="curve" smooth="yes"/>
      <point x="52" y="114"/>
      <point x="174" y="-12"/>
      <point x="339" y="-12" type="curve" smooth="yes"/>
      <point x="423" y="-12"/>
      <point x="487" y="23"/>
      <point x="539" y="83" type="curve"/>
      <point x="492" y="134" type="line"/>
      <point x="450" y="87"/>
      <point x="404" y="61"/>
      <point x="341" y="61" type="curve" smooth="yes"/>
      <point x="217" y="61"/>
      <point x="138" y="165"/>
      <point x="138" y="330" type="curve" smooth="yes"/>
      <point x="138" y="493"/>
      <point x="220" y="595"/>
      <point x="345" y="595" type="curve" smooth="yes"/>
      <point x="400" y="595"/>
      <point x="442" y="571"/>
      <point x="476" y="534" type="curve"/>
      <point x="523" y="587" type="line"/>
      <point x="485" y="630"/>
      <point x="423" y="668"/>
      <point x="344" y="668" type="curve" smooth="yes"/>
      <point x="176" y="668"/>
      <point x="52" y="539"/>
    </contour>
    <contour>
      <point x="330" y="714" type="curve" smooth="yes"/>
      <point x="362" y="714"/>
      <point x="387" y="736"/>
      <point x="387" y="768" type="curve" smooth="yes"/>
      <point x="387" y="799"/>
      <point x="362" y="821"/>
      <point x="330" y="821" type="curve" smooth="yes"/>
      <point x="298" y="821"/>
      <point x="273" y="799"/>
      <point x="273" y="768" type="curve" smooth="yes"/>
      <point x="273" y="736"/>
      <point x="298" y="714"/>
    </contour>
  </outline>
</glyph>
<glyph name="cdotaccent" format="1">
  <advance width="456"/>
  <unicode hex="010B"/>
  <outline>
    <contour>
      <point x="46" y="242" type="curve" smooth="yes"/>
      <point x="46" y="81"/>
      <point x="145" y="-12"/>
      <point x="274" y="-12" type="curve" smooth="yes"/>
      <point x="332" y="-12"/>
      <point x="388" y="12"/>
      <point x="432" y="51" type="curve"/>
      <point x="395" y="105" type="line"/>
      <point x="366" y="79"/>
      <point x="327" y="56"/>
      <point x="281" y="56" type="curve" smooth="yes"/>
      <point x="192" y="56"/>
      <point x="131" y="131"/>
      <point x="131" y="242" type="curve" smooth="yes"/>
      <point x="131" y="354"/>
      <point x="195" y="430"/>
      <point x="283" y="430" type="curve" smooth="yes"/>
      <point x="322" y="430"/>
      <point x="352" y="412"/>
      <point x="381" y="387" type="curve"/>
      <point x="422" y="440" type="line"/>
      <point x="389" y="471"/>
      <point x="344" y="498"/>
      <point x="280" y="498" type="curve" smooth="yes"/>
      <point x="155" y="498"/>
      <point x="46" y="405"/>
    </contour>
    <contour>
      <point x="279" y="586" type="curve" smooth="yes"/>
      <point x="310" y="586"/>
      <point x="333" y="608"/>
      <point x="333" y="640" type="curve" smooth="yes"/>
      <point x="333" y="671"/>
      <point x="310" y="694"/>
      <point x="279" y="694" type="curve" smooth="yes"/>
      <point x="247" y="694"/>
      <point x="224" y="671"/>
      <point x="224" y="640" type="curve" smooth="yes"/>
      <point x="224" y="608"/>
      <point x="247" y="586"/>
    </contour>
  </outline>
</glyph>
<glyph name="dcroat" format="1">
  <advance width="555"/>
  <unicode hex="0111"/>
  <outline>
    <contour>
      <point x="390" y="124" type="line"/>
      <point x="350" y="79"/>
      <point x="311" y="57"/>
      <point x="266" y="57" type="curve" smooth="yes"/>
      <point x="181" y="57"/>
      <point x="132" y="122"/>
      <point x="132" y="233" type="curve" smooth="yes"/>
      <point x="132" y="338"/>
      <point x="194" y="409"/>
      <point x="272" y="409" type="curve" smooth="yes"/>
      <point x="312" y="409"/>
      <point x="349" y="395"/>
      <point x="390" y="358" type="curve"/>
    </contour>
    <contour>
      <point x="545" y="619" type="line"/>
      <point x="473" y="619" type="line"/>
      <point x="473" y="712" type="line"/>
      <point x="390" y="712" type="line"/>
      <point x="390" y="619" type="line"/>
      <point x="229" y="619" type="line"/>
      <point x="229" y="571" type="line"/>
      <point x="390" y="571" type="line"/>
      <point x="390" y="505" type="line"/>
      <point x="394" y="422" type="line"/>
      <point x="351" y="457"/>
      <point x="314" y="478"/>
      <point x="258" y="478" type="curve" smooth="yes"/>
      <point x="147" y="478"/>
      <point x="47" y="383"/>
      <point x="47" y="232" type="curve" smooth="yes"/>
      <point x="47" y="76"/>
      <point x="126" y="-12"/>
      <point x="248" y="-12" type="curve" smooth="yes"/>
      <point x="306" y="-12"/>
      <point x="357" y="18"/>
      <point x="394" y="55" type="curve"/>
      <point x="397" y="55" type="line"/>
      <point x="403" y="0" type="line"/>
      <point x="473" y="0" type="line"/>
      <point x="473" y="571" type="line"/>
      <point x="545" y="576" type="line"/>
    </contour>
  </outline>
</glyph>
<glyph name="Emacron" format="1">
  <advance width="527"/>
  <unicode hex="0112"/>
  <outline>
    <contour>
      <point x="90" y="0" type="line"/>
      <point x="478" y="0" type="line"/>
      <point x="478" y="71" type="line"/>
      <point x="173" y="71" type="line"/>
      <point x="173" y="309" type="line"/>
      <point x="422" y="309" type="line"/>
      <point x="422" y="380" type="line"/>
      <point x="173" y="380" type="line"/>
      <point x="173" y="586" type="line"/>
      <point x="468" y="586" type="line"/>
      <point x="468" y="656" type="line"/>
      <point x="90" y="656" type="line"/>
    </contour>
    <contour>
      <point x="160" y="729" type="line"/>
      <point x="408" y="729" type="line"/>
      <point x="408" y="786" type="line"/>
      <point x="160" y="786" type="line"/>
    </contour>
  </outline>
</glyph>
<glyph name="Ebreve" format="1">
  <advance width="527"/>
  <unicode hex="0114"/>
  <outline>
    <contour>
      <point x="90" y="0" type="line"/>
      <point x="478" y="0" type="line"/>
      <point x="478" y="71" type="line"/>
      <point x="173" y="71" type="line"/>
      <point x="173" y="309" type="line"/>
      <point x="422" y="309" type="line"/>
      <point x="422" y="380" type="line"/>
      <point x="173" y="380" type="line"/>
      <point x="173" y="586" type="line"/>
      <point x="468" y="586" type="line"/>
      <point x="468" y="656" type="line"/>
      <point x="90" y="656" type="line"/>
    </contour>
    <contour>
      <point x="284" y="708" type="curve" smooth="yes"/>
      <point x="364" y="708"/>
      <point x="401" y="762"/>
      <point x="407" y="818" type="curve"/>
      <point x="357" y="818" type="line"/>
      <point x="351" y="786"/>
      <point x="329" y="755"/>
      <point x="284" y="755" type="curve" smooth="yes"/>
      <point x="239" y="755"/>
      <point x="218" y="786"/>
      <point x="212" y="818" type="curve"/>
      <point x="161" y="818" type="line"/>
      <point x="168" y="762"/>
      <point x="204" y="708"/>
    </contour>
  </outline>
</glyph>
<glyph name="ebreve" format="1">
  <advance width="496"/>
  <unicode hex="0115"/>
  <outline>
    <contour>
      <point x="46" y="242" type="curve" smooth="yes"/>
      <point x="46" y="83"/>
      <point x="149" y="-12"/>
      <point x="279" y="-12" type="curve" smooth="yes"/>
      <point x="345" y="-12"/>
      <point x="397" y="11"/>
      <point x="439" y="38" type="curve"/>
      <point x="410" y="92" type="line"/>
      <point x="374" y="69"/>
      <point x="335" y="54"/>
      <point x="289" y="54" type="curve" smooth="yes"/>
      <point x="196" y="54"/>
      <point x="133" y="120"/>
      <point x="127" y="225" type="curve"/>
      <point x="455" y="225" type="line"/>
      <point x="457" y="237"/>
      <point x="458" y="253"/>
      <point x="458" y="270" type="curve" smooth="yes"/>
      <point x="458" y="409"/>
      <point x="388" y="498"/>
      <point x="264" y="498" type="curve" smooth="yes"/>
      <point x="153" y="498"/>
      <point x="46" y="401"/>
    </contour>
    <contour>
      <point x="126" y="279" type="line"/>
      <point x="136" y="377"/>
      <point x="198" y="433"/>
      <point x="266" y="433" type="curve" smooth="yes"/>
      <point x="342" y="433"/>
      <point x="386" y="378"/>
      <point x="386" y="279" type="curve"/>
    </contour>
    <contour>
      <point x="264" y="575" type="curve" smooth="yes"/>
      <point x="350" y="575"/>
      <point x="386" y="643"/>
      <point x="391" y="702" type="curve"/>
      <point x="340" y="702" type="line"/>
      <point x="334" y="663"/>
      <point x="311" y="626"/>
      <point x="264" y="626" type="curve" smooth="yes"/>
      <point x="218" y="626"/>
      <point x="194" y="663"/>
      <point x="189" y="702" type="curve"/>
      <point x="138" y="702" type="line"/>
      <point x="143" y="643"/>
      <point x="179" y="575"/>
    </contour>
  </outline>
</glyph>
<glyph name="Edotaccent" format="1">
  <advance width="527"/>
  <unicode hex="0116"/>
  <outline>
    <contour>
      <point x="90" y="0" type="line"/>
      <point x="478" y="0" type="line"/>
      <point x="478" y="71" type="line"/>
      <point x="173" y="71" type="line"/>
      <point x="173" y="309" type="line"/>
      <point x="422" y="309" type="line"/>
      <point x="422" y="380" type="line"/>
      <point x="173" y="380" type="line"/>
      <point x="173" y="586" type="line"/>
      <point x="468" y="586" type="line"/>
      <point x="468" y="656" type="line"/>
      <point x="90" y="656" type="line"/>
    </contour>
    <contour>
      <point x="284" y="714" type="curve" smooth="yes"/>
      <point x="316" y="714"/>
      <point x="341" y="736"/>
      <point x="341" y="768" type="curve" smooth="yes"/>
      <point x="341" y="799"/>
      <point x="316" y="821"/>
      <point x="284" y="821" type="curve" smooth="yes"/>
      <point x="252" y="821"/>
      <point x="227" y="799"/>
      <point x="227" y="768" type="curve" smooth="yes"/>
      <point x="227" y="736"/>
      <point x="252" y="714"/>
    </contour>
  </outline>
</glyph>
<glyph name="Ecaron" format="1">
  <advance width="527"/>
  <unicode hex="011A"/>
  <outline>
    <contour>
      <point x="90" y="0" type="line"/>
      <point x="478" y="0" type="line"/>
      <point x="478" y="71" type="line"/>
      <point x="173" y="71" type="line"/>
      <point x="173" y="309" type="line"/>
      <point x="422" y="309" type="line"/>
      <point x="422" y="380" type="line"/>
      <point x="173" y="380" type="line"/>
      <point x="173" y="586" type="line"/>
      <point x="468" y="586" type="line"/>
      <point x="468" y="656" type="line"/>
      <point x="90" y="656" type="line"/>
    </contour>
    <contour>
      <point x="353" y="818" type="line"/>
      <point x="286" y="750" type="line"/>
      <point x="282" y="750" type="line"/>
      <point x="215" y="818" type="line"/>
      <point x="149" y="818" type="line"/>
      <point x="245" y="706" type="line"/>
      <point x="324" y="706" type="line"/>
      <point x="420" y="818" type="line"/>
    </contour>
  </outline>
</glyph>
<glyph name="Gcircumflex" format="1">
  <advance width="617"/>
  <unicode hex="011C"/>
  <outline>
    <contour>
      <point x="52" y="328" type="curve" smooth="yes"/>
      <point x="52" y="114"/>
      <point x="175" y="-12"/>
      <point x="347" y="-12" type="curve" smooth="yes"/>
      <point x="435" y="-12"/>
      <point x="507" y="20"/>
      <point x="550" y="64" type="curve"/>
      <point x="550" y="340" type="line"/>
      <point x="335" y="340" type="line"/>
      <point x="335" y="271" type="line"/>
      <point x="474" y="271" type="line"/>
      <point x="474" y="100" type="line"/>
      <point x="448" y="76"/>
      <point x="403" y="61"/>
      <point x="356" y="61" type="curve" smooth="yes"/>
      <point x="216" y="61"/>
      <point x="138" y="165"/>
      <point x="138" y="330" type="curve" smooth="yes"/>
      <point x="138" y="493"/>
      <point x="223" y="595"/>
      <point x="355" y="595" type="curve" smooth="yes"/>
      <point x="421" y="595"/>
      <point x="462" y="569"/>
      <point x="495" y="534" type="curve"/>
      <point x="542" y="587" type="line"/>
      <point x="504" y="627"/>
      <point x="444" y="668"/>
      <point x="354" y="668" type="curve" smooth="yes"/>
      <point x="179" y="668"/>
      <point x="52" y="539"/>
    </contour>
    <contour>
      <point x="285" y="706" type="line"/>
      <point x="352" y="774" type="line"/>
      <point x="356" y="774" type="line"/>
      <point x="423" y="706" type="line"/>
      <point x="489" y="706" type="line"/>
      <point x="393" y="818" type="line"/>
      <point x="314" y="818" type="line"/>
      <point x="218" y="706" type="line"/>
    </contour>
  </outline>
</glyph>
<glyph name="Gbreve" format="1">
  <advance width="617"/>
  <unicode hex="011E"/>
  <outline>
    <contour>
      <point x="52" y="328" type="curve" smooth="yes"/>
      <point x="52" y="114"/>
      <point x="175" y="-12"/>
      <point x="347" y="-12" type="curve" smooth="yes"/>
      <point x="435" y="-12"/>
      <point x="507" y="20"/>
      <point x="550" y="64" type="curve"/>
      <point x="550" y="340" type="line"/>
      <point x="335" y="340" type="line"/>
      <point x="335" y="271" type="line"/>
      <point x="474" y="271" type="line"/>
      <point x="474" y="100" type="line"/>
      <point x="448" y="76"/>
      <point x="403" y="61"/>
      <point x="356" y="61" type="curve" smooth="yes"/>
      <point x="216" y="61"/>
      <point x="138" y="165"/>
      <point x="138" y="330" type="curve" smooth="yes"/>
      <point x="138" y="493"/>
      <point x="223" y="595"/>
      <point x="355" y="595" type="curve" smooth="yes"/>
      <point x="421" y="595"/>
      <point x="462" y="569"/>
      <point x="495" y="534" type="curve"/>
      <point x="542" y="587" type="line"/>
      <point x="504" y="627"/>
      <point x="444" y="668"/>
      <point x="354" y="668" type="curve" smooth="yes"/>
      <point x="179" y="668"/>
      <point x="52" y="539"/>
    </contour>
    <contour>
      <point x="354" y="708" type="curve" smooth="yes"/>
      <point x="434" y="708"/>
      <point x="470" y="762"/>
      <point x="477" y="818" type="curve"/>
      <point x="426" y="818" type="line"/>
      <point x="420" y="786"/>
      <point x="399" y="755"/>
      <point x="354" y="755" type="curve" smooth="yes"/>
      <point x="309" y="755"/>
      <point x="287" y="786"/>
      <point x="281" y="818" type="curve"/>
      <point x="231" y="818" type="line"/>
      <point x="237" y="762"/>
      <point x="274" y="708"/>
    </contour>
  </outline>
</glyph>
<glyph name="Gdotaccent" format="1">
  <advance width="617"/>
  <unicode hex="0120"/>
  <outline>
    <contour>
      <point x="52" y="328" type="curve" smooth="yes"/>
      <point x="52" y="114"/>
      <point x="175" y="-12"/>
      <point x="347" y="-12" type="curve" smooth="yes"/>
      <point x="435" y="-12"/>
      <point x="507" y="20"/>
      <point x="550" y="64" type="curve"/>
      <point x="550" y="340" type="line"/>
      <point x="335" y="340" type="line"/>
      <point x="335" y="271" type="line"/>
      <point x="474" y="271" type="line"/>
      <point x="474" y="100" type="line"/>
      <point x="448" y="76"/>
      <point x="403" y="61"/>
      <point x="356" y="61" type="curve" smooth="yes"/>
      <point x="216" y="61"/>
      <point x="138" y="165"/>
      <point x="138" y="330" type="curve" smooth="yes"/>
      <point x="138" y="493"/>
      <point x="223" y="595"/>
      <point x="355" y="595" type="curve" smooth="yes"/>
      <point x="421" y="595"/>
      <point x="462" y="569"/>
      <point x="495" y="534" type="curve"/>
      <point x="542" y="587" type="line"/>
      <point x="504" y="627"/>
      <point x="444" y="668"/>
      <point x="354" y="668" type="curve" smooth="yes"/>
      <point x="179" y="668"/>
      <point x="52" y="539"/>
    </contour>
    <contour>
      <point x="354" y="714" type="curve" smooth="yes"/>
      <point x="386" y="714"/>
      <point x="410" y="736"/>
      <point x="410" y="768" type="curve" smooth="yes"/>
      <point x="410" y="799"/>
      <point x="386" y="821"/>
      <point x="354" y="821" type="curve" smooth="yes"/>
      <point x="322" y="821"/>
      <point x="297" y="799"/>
      <point x="297" y="768" type="curve" smooth="yes"/>
      <point x="297" y="736"/>
      <point x="322" y="714"/>
    </contour>
  </outline>
</glyph>
<glyph name="uni0122" format="1">
  <advance width="617"/>
  <unicode hex="0122"/>
  <outline>
    <contour>
      <point x="52" y="328" type="curve" smooth="yes"/>
      <point x="52" y="114"/>
      <point x="175" y="-12"/>
      <point x="347" y="-12" type="curve" smooth="yes"/>
      <point x="435" y="-12"/>
      <point x="507" y="20"/>
      <point x="550" y="64" type="curve"/>
      <point x="550" y="340" type="line"/>
      <point x="335" y="340" type="line"/>
      <point x="335" y="271" type="line"/>
      <point x="474" y="271" type="line"/>
      <point x="474" y="100" type="line"/>
      <point x="448" y="76"/>
      <point x="403" y="61"/>
      <point x="356" y="61" type="curve" smooth="yes"/>
      <point x="216" y="61"/>
      <point x="138" y="165"/>
      <point x="138" y="330" type="curve" smooth="yes"/>
      <point x="138" y="493"/>
      <point x="223" y="595"/>
      <point x="355" y="595" type="curve" smooth="yes"/>
      <point x="421" y="595"/>
      <point x="462" y="569"/>
      <point x="495" y="534" type="curve"/>
      <point x="542" y="587" type="line"/>
      <point x="504" y="627"/>
      <point x="444" y="668"/>
      <point x="354" y="668" type="curve" smooth="yes"/>
      <point x="179" y="668"/>
      <point x="52" y="539"/>
    </contour>
    <contour>
      <point x="319" y="-48" type="curve"/>
      <point x="301" y="-86" type="line"/>
      <point x="330" y="-93"/>
      <point x="353" y="-104"/>
      <point x="353" y="-130" type="curve" smooth="yes"/>
      <point x="353" y="-156"/>
      <point x="316" y="-169"/>
      <point x="264" y="-176" type="curve"/>
      <point x="272" y="-216" type="line"/>
      <point x="347" y="-210"/>
      <point x="416" y="-183"/>
      <point x="416" y="-125" type="curve" smooth="yes"/>
      <point x="416" y="-80"/>
      <point x="387" y="-58"/>
    </contour>
  </outline>
</glyph>
<glyph name="Hcircumflex" format="1">
  <advance width="652"/>
  <unicode hex="0124"/>
  <outline>
    <contour>
      <point x="90" y="0" type="line"/>
      <point x="173" y="0" type="line"/>
      <point x="173" y="309" type="line"/>
      <point x="478" y="309" type="line"/>
      <point x="478" y="0" type="line"/>
      <point x="562" y="0" type="line"/>
      <point x="562" y="656" type="line"/>
      <point x="478" y="656" type="line"/>
      <point x="478" y="381" type="line"/>
      <point x="173" y="381" type="line"/>
      <point x="173" y="656" type="line"/>
      <point x="90" y="656" type="line"/>
    </contour>
    <contour>
      <point x="257" y="706" type="line"/>
      <point x="323" y="774" type="line"/>
      <point x="327" y="774" type="line"/>
      <point x="394" y="706" type="line"/>
      <point x="461" y="706" type="line"/>
      <point x="365" y="818" type="line"/>
      <point x="286" y="818" type="line"/>
      <point x="190" y="706" type="line"/>
    </contour>
  </outline>
</glyph>
<glyph name="hcircumflex" format="1">
  <advance width="544"/>
  <unicode hex="0125"/>
  <outline>
    <contour>
      <point x="82" y="0" type="line"/>
      <point x="164" y="0" type="line"/>
      <point x="164" y="352" type="line"/>
      <point x="213" y="401"/>
      <point x="247" y="427"/>
      <point x="297" y="427" type="curve" smooth="yes"/>
      <point x="361" y="427"/>
      <point x="389" y="388"/>
      <point x="389" y="297" type="curve" smooth="yes"/>
      <point x="389" y="0" type="line"/>
      <point x="471" y="0" type="line"/>
      <point x="471" y="308" type="line" smooth="yes"/>
      <point x="471" y="432"/>
      <point x="425" y="498"/>
      <point x="323" y="498" type="curve" smooth="yes"/>
      <point x="256" y="498"/>
      <point x="207" y="462"/>
      <point x="161" y="418" type="curve"/>
      <point x="164" y="518" type="line"/>
      <point x="164" y="712" type="line"/>
      <point x="82" y="712" type="line"/>
    </contour>
    <contour>
      <point x="55" y="749" type="line"/>
      <point x="122" y="817" type="line"/>
      <point x="126" y="817" type="line"/>
      <point x="193" y="749" type="line"/>
      <point x="259" y="749" type="line"/>
      <point x="163" y="860" type="line"/>
      <point x="84" y="860" type="line"/>
      <point x="-12" y="749" type="line"/>
    </contour>
  </outline>
</glyph>
<glyph name="hbar" format="1">
  <advance width="544"/>
  <unicode hex="0127"/>
  <outline>
    <contour>
      <point x="164" y="498" type="line"/>
      <point x="164" y="571" type="line"/>
      <point x="346" y="571" type="line"/>
      <point x="346" y="619" type="line"/>
      <point x="164" y="619" type="line"/>
      <point x="164" y="712" type="line"/>
      <point x="82" y="712" type="line"/>
      <point x="82" y="619" type="line"/>
      <point x="8" y="614" type="line"/>
      <point x="8" y="571" type="line"/>
      <point x="82" y="571" type="line"/>
      <point x="82" y="0" type="line"/>
      <point x="164" y="0" type="line"/>
      <point x="164" y="332" type="line"/>
      <point x="213" y="381"/>
      <point x="247" y="407"/>
      <point x="297" y="407" type="curve" smooth="yes"/>
      <point x="361" y="407"/>
      <point x="389" y="368"/>
      <point x="389" y="277" type="curve" smooth="yes"/>
      <point x="389" y="0" type="line"/>
      <point x="471" y="0" type="line"/>
      <point x="471" y="288" type="line" smooth="yes"/>
      <point x="471" y="412"/>
      <point x="425" y="478"/>
      <point x="323" y="478" type="curve" smooth="yes"/>
      <point x="256" y="478"/>
      <point x="207" y="442"/>
      <point x="161" y="398" type="curve"/>
    </contour>
  </outline>
</glyph>
<glyph name="Itilde" format="1">
  <advance width="263"/>
  <unicode hex="0128"/>
  <outline>
    <contour>
      <point x="90" y="0" type="line"/>
      <point x="173" y="0" type="line"/>
      <point x="173" y="656" type="line"/>
      <point x="90" y="656" type="line"/>
    </contour>
    <contour>
      <point x="192" y="711" type="curve" smooth="yes"/>
      <point x="239" y="711"/>
      <point x="270" y="758"/>
      <point x="276" y="819" type="curve"/>
      <point x="231" y="819" type="line"/>
      <point x="225" y="786"/>
      <point x="210" y="767"/>
      <point x="190" y="767" type="curve" smooth="yes"/>
      <point x="153" y="767"/>
      <point x="124" y="819"/>
      <point x="71" y="819" type="curve" smooth="yes"/>
      <point x="24" y="819"/>
      <point x="-7" y="773"/>
      <point x="-13" y="711" type="curve"/>
      <point x="32" y="711" type="line"/>
      <point x="38" y="745"/>
      <point x="53" y="763"/>
      <point x="73" y="763" type="curve" smooth="yes"/>
      <point x="110" y="763"/>
      <point x="139" y="711"/>
    </contour>
  </outline>
</glyph>
<glyph name="itilde" format="1">
  <advance width="246"/>
  <unicode hex="0129"/>
  <outline>
    <contour>
      <point x="82" y="0" type="line"/>
      <point x="164" y="0" type="line"/>
      <point x="164" y="486" type="line"/>
      <point x="82" y="486" type="line"/>
    </contour>
    <contour>
      <point x="-16" y="579" type="curve"/>
      <point x="31" y="579" type="line"/>
      <point x="36" y="613"/>
      <point x="47" y="630"/>
      <point x="67" y="630" type="curve" smooth="yes"/>
      <point x="101" y="630"/>
      <point x="131" y="579"/>
      <point x="181" y="579" type="curve" smooth="yes"/>
      <point x="230" y="579"/>
      <point x="257" y="625"/>
      <point x="262" y="685" type="curve"/>
      <point x="216" y="685" type="line"/>
      <point x="210" y="651"/>
      <point x="199" y="634"/>
      <point x="179" y="634" type="curve" smooth="yes"/>
      <point x="147" y="634"/>
      <point x="116" y="685"/>
      <point x="65" y="685" type="curve" smooth="yes"/>
      <point x="16" y="685"/>
      <point x="-11" y="639"/>
    </contour>
  </outline>
</glyph>
<glyph name="imacron" format="1">
  <advance width="246"/>
  <unicode hex="012B"/>
  <outline>
    <contour>
      <point x="82" y="0" type="line"/>
      <point x="164" y="0" type="line"/>
      <point x="164" y="486" type="line"/>
      <point x="82" y="486" type="line"/>
    </contour>
    <contour>
      <point x="1" y="601" type="line"/>
      <point x="246" y="601" type="line"/>
      <point x="246" y="658" type="line"/>
      <point x="1" y="658" type="line"/>
    </contour>
  </outline>
</glyph>
<glyph name="uni012C" format="1">
  <advance width="263"/>
  <unicode hex="012C"/>
  <outline>
    <contour>
      <point x="90" y="0" type="line"/>
      <point x="173" y="0" type="line"/>
      <point x="173" y="656" type="line"/>
      <point x="90" y="656" type="line"/>
    </contour>
    <contour>
      <point x="131" y="708" type="curve" smooth="yes"/>
      <point x="211" y="708"/>
      <point x="248" y="762"/>
      <point x="254" y="818" type="curve"/>
      <point x="204" y="818" type="line"/>
      <point x="198" y="786"/>
      <point x="177" y="755"/>
      <point x="131" y="755" type="curve" smooth="yes"/>
      <point x="86" y="755"/>
      <point x="65" y="786"/>
      <point x="59" y="818" type="curve"/>
      <point x="8" y="818" type="line"/>
      <point x="15" y="762"/>
      <point x="52" y="708"/>
    </contour>
  </outline>
</glyph>
<glyph name="uni012D" format="1">
  <advance width="246"/>
  <unicode hex="012D"/>
  <outline>
    <contour>
      <point x="82" y="0" type="line"/>
      <point x="164" y="0" type="line"/>
      <point x="164" y="486" type="line"/>
      <point x="82" y="486" type="line"/>
    </contour>
    <contour>
      <point x="124" y="575" type="curve" smooth="yes"/>
      <point x="210" y="575"/>
      <point x="246" y="643"/>
      <point x="250" y="702" type="curve"/>
      <point x="199" y="702" type="line"/>
      <point x="194" y="663"/>
      <point x="171" y="626"/>
      <point x="124" y="626" type="curve" smooth="yes"/>
      <point x="77" y="626"/>
      <point x="54" y="663"/>
      <point x="48" y="702" type="curve"/>
      <point x="-3" y="702" type="line"/>
      <point x="2" y="643"/>
      <point x="38" y="575"/>
    </contour>
  </outline>
</glyph>
<glyph name="Idotaccent" format="1">
  <advance width="263"/>
  <unicode hex="0130"/>
  <outline>
    <contour>
      <point x="90" y="0" type="line"/>
      <point x="173" y="0" type="line"/>
      <point x="173" y="656" type="line"/>
      <point x="90" y="656" type="line"/>
    </contour>
    <contour>
      <point x="131" y="714" type="curve" smooth="yes"/>
      <point x="163" y="714"/>
      <point x="188" y="736"/>
      <point x="188" y="768" type="curve" smooth="yes"/>
      <point x="188" y="799"/>
      <point x="163" y="821"/>
      <point x="131" y="821" type="curve" smooth="yes"/>
      <point x="99" y="821"/>
      <point x="75" y="799"/>
      <point x="75" y="768" type="curve" smooth="yes"/>
      <point x="75" y="736"/>
      <point x="99" y="714"/>
    </contour>
  </outline>
</glyph>
<glyph name="Jcircumflex" format="1">
  <advance width="480"/>
  <unicode hex="0134"/>
  <outline>
    <contour>
      <point x="31" y="93" type="line"/>
      <point x="69" y="24"/>
      <point x="129" y="-12"/>
      <point x="212" y="-12" type="curve" smooth="yes"/>
      <point x="340" y="-12"/>
      <point x="393" y="80"/>
      <point x="393" y="193" type="curve" smooth="yes"/>
      <point x="393" y="656" type="line"/>
      <point x="309" y="656" type="line"/>
      <point x="309" y="201" type="line" smooth="yes"/>
      <point x="309" y="101"/>
      <point x="274" y="61"/>
      <point x="204" y="61" type="curve" smooth="yes"/>
      <point x="157" y="61"/>
      <point x="120" y="83"/>
      <point x="91" y="135" type="curve"/>
    </contour>
    <contour>
      <point x="279" y="706" type="line"/>
      <point x="346" y="774" type="line"/>
      <point x="350" y="774" type="line"/>
      <point x="417" y="706" type="line"/>
      <point x="483" y="706" type="line"/>
      <point x="387" y="818" type="line"/>
      <point x="308" y="818" type="line"/>
      <point x="212" y="706" type="line"/>
    </contour>
  </outline>
</glyph>
<glyph name="jcircumflex" format="1">
  <advance width="247"/>
  <unicode hex="0135"/>
  <outline>
    <contour>
      <point x="83" y="-55" type="line" smooth="yes"/>
      <point x="83" y="-114"/>
      <point x="71" y="-150"/>
      <point x="23" y="-150" type="curve" smooth="yes"/>
      <point x="6" y="-150"/>
      <point x="-11" y="-146"/>
      <point x="-23" y="-142" type="curve"/>
      <point x="-40" y="-204" type="line"/>
      <point x="-23" y="-211"/>
      <point x="2" y="-217"/>
      <point x="32" y="-217" type="curve" smooth="yes"/>
      <point x="129" y="-217"/>
      <point x="165" y="-154"/>
      <point x="165" y="-55" type="curve" smooth="yes"/>
      <point x="165" y="486" type="line"/>
      <point x="83" y="486" type="line"/>
    </contour>
    <contour>
      <point x="-5" y="573" type="line"/>
      <point x="55" y="573" type="line"/>
      <point x="122" y="664" type="line"/>
      <point x="126" y="664" type="line"/>
      <point x="193" y="573" type="line"/>
      <point x="252" y="573" type="line"/>
      <point x="158" y="714" type="line"/>
      <point x="90" y="714" type="line"/>
    </contour>
  </outline>
</glyph>
<glyph name="uni0136" format="1">
  <advance width="579"/>
  <unicode hex="0136"/>
  <outline>
    <contour>
      <point x="90" y="0" type="line"/>
      <point x="173" y="0" type="line"/>
      <point x="173" y="208" type="line"/>
      <point x="286" y="341" type="line"/>
      <point x="482" y="0" type="line"/>
      <point x="575" y="0" type="line"/>
      <point x="338" y="406" type="line"/>
      <point x="543" y="656" type="line"/>
      <point x="449" y="656" type="line"/>
      <point x="176" y="327" type="line"/>
      <point x="173" y="327" type="line"/>
      <point x="173" y="656" type="line"/>
      <point x="90" y="656" type="line"/>
    </contour>
    <contour>
      <point x="297" y="-48" type="curve"/>
      <point x="279" y="-86" type="line"/>
      <point x="307" y="-93"/>
      <point x="330" y="-104"/>
      <point x="330" y="-130" type="curve" smooth="yes"/>
      <point x="330" y="-156"/>
      <point x="293" y="-169"/>
      <point x="241" y="-176" type="curve"/>
      <point x="249" y="-216" type="line"/>
      <point x="325" y="-210"/>
      <point x="394" y="-183"/>
      <point x="394" y="-125" type="curve" smooth="yes"/>
      <point x="394" y="-80"/>
      <point x="364" y="-58"/>
    </contour>
  </outline>
</glyph>
<glyph name="uni0137" format="1">
  <advance width="495"/>
  <unicode hex="0137"/>
  <outline>
    <contour>
      <point x="82" y="0" type="line"/>
      <point x="163" y="0" type="line"/>
      <point x="163" y="128" type="line"/>
      <point x="254" y="234" type="line"/>
      <point x="396" y="0" type="line"/>
      <point x="486" y="0" type="line"/>
      <point x="301" y="291" type="line"/>
      <point x="464" y="486" type="line"/>
      <point x="373" y="486" type="line"/>
      <point x="166" y="230" type="line"/>
      <point x="163" y="230" type="line"/>
      <point x="163" y="712" type="line"/>
      <point x="82" y="712" type="line"/>
    </contour>
    <contour>
      <point x="242" y="-48" type="curve"/>
      <point x="224" y="-86" type="line"/>
      <point x="253" y="-93"/>
      <point x="275" y="-104"/>
      <point x="275" y="-130" type="curve" smooth="yes"/>
      <point x="275" y="-156"/>
      <point x="239" y="-169"/>
      <point x="186" y="-176" type="curve"/>
      <point x="195" y="-216" type="line"/>
      <point x="270" y="-210"/>
      <point x="339" y="-183"/>
      <point x="339" y="-125" type="curve" smooth="yes"/>
      <point x="339" y="-80"/>
      <point x="310" y="-58"/>
    </contour>
  </outline>
</glyph>
<glyph name="kgreenlandic" format="1">
  <advance width="495"/>
  <unicode hex="0138"/>
  <outline>
    <contour>
      <point x="82" y="0" type="line"/>
      <point x="164" y="0" type="line"/>
      <point x="164" y="125" type="line"/>
      <point x="254" y="231" type="line"/>
      <point x="396" y="0" type="line"/>
      <point x="486" y="0" type="line"/>
      <point x="303" y="291" type="line"/>
      <point x="464" y="486" type="line"/>
      <point x="373" y="486" type="line"/>
      <point x="167" y="228" type="line"/>
      <point x="164" y="228" type="line"/>
      <point x="164" y="486" type="line"/>
      <point x="82" y="486" type="line"/>
    </contour>
  </outline>
</glyph>
<glyph name="Lacute" format="1">
  <advance width="486"/>
  <unicode hex="0139"/>
  <outline>
    <contour>
      <point x="90" y="0" type="line"/>
      <point x="460" y="0" type="line"/>
      <point x="460" y="71" type="line"/>
      <point x="173" y="71" type="line"/>
      <point x="173" y="656" type="line"/>
      <point x="90" y="656" type="line"/>
    </contour>
    <contour>
      <point x="265" y="818" type="line"/>
      <point x="171" y="818" type="line"/>
      <point x="83" y="706" type="line"/>
      <point x="152" y="706" type="line"/>
    </contour>
  </outline>
</glyph>
<glyph name="uni013B" format="1">
  <advance width="486"/>
  <unicode hex="013B"/>
  <outline>
    <contour>
      <point x="90" y="0" type="line"/>
      <point x="460" y="0" type="line"/>
      <point x="460" y="71" type="line"/>
      <point x="173" y="71" type="line"/>
      <point x="173" y="656" type="line"/>
      <point x="90" y="656" type="line"/>
    </contour>
    <contour>
      <point x="259" y="-48" type="curve"/>
      <point x="241" y="-86" type="line"/>
      <point x="269" y="-93"/>
      <point x="292" y="-104"/>
      <point x="292" y="-130" type="curve" smooth="yes"/>
      <point x="292" y="-156"/>
      <point x="255" y="-169"/>
      <point x="203" y="-176" type="curve"/>
      <point x="211" y="-216" type="line"/>
      <point x="287" y="-210"/>
      <point x="356" y="-183"/>
      <point x="356" y="-125" type="curve" smooth="yes"/>
      <point x="356" y="-80"/>
      <point x="326" y="-58"/>
    </contour>
  </outline>
</glyph>
<glyph name="uni013C" format="1">
  <advance width="255"/>
  <unicode hex="013C"/>
  <outline>
    <contour>
      <point x="82" y="98" type="line" smooth="yes"/>
      <point x="82" y="27"/>
      <point x="107" y="-12"/>
      <point x="169" y="-12" type="curve" smooth="yes"/>
      <point x="191" y="-12"/>
      <point x="205" y="-9"/>
      <point x="216" y="-4" type="curve"/>
      <point x="205" y="58" type="line"/>
      <point x="196" y="56"/>
      <point x="192" y="56"/>
      <point x="187" y="56" type="curve" smooth="yes"/>
      <point x="175" y="56"/>
      <point x="164" y="66"/>
      <point x="164" y="92" type="curve" smooth="yes"/>
      <point x="164" y="712" type="line"/>
      <point x="82" y="712" type="line"/>
    </contour>
    <contour>
      <point x="141" y="-48" type="curve"/>
      <point x="123" y="-86" type="line"/>
      <point x="152" y="-93"/>
      <point x="174" y="-104"/>
      <point x="174" y="-130" type="curve" smooth="yes"/>
      <point x="174" y="-156"/>
      <point x="138" y="-169"/>
      <point x="85" y="-176" type="curve"/>
      <point x="94" y="-216" type="line"/>
      <point x="169" y="-210"/>
      <point x="238" y="-183"/>
      <point x="238" y="-125" type="curve" smooth="yes"/>
      <point x="238" y="-80"/>
      <point x="209" y="-58"/>
    </contour>
  </outline>
</glyph>
<glyph name="Lcaron" format="1">
  <advance width="486"/>
  <unicode hex="013D"/>
  <outline>
    <contour>
      <point x="90" y="0" type="line"/>
      <point x="460" y="0" type="line"/>
      <point x="460" y="71" type="line"/>
      <point x="173" y="71" type="line"/>
      <point x="173" y="656" type="line"/>
      <point x="90" y="656" type="line"/>
    </contour>
    <contour>
      <point x="374" y="514" type="line"/>
      <point x="388" y="669" type="line"/>
      <point x="389" y="726" type="line"/>
      <point x="330" y="726" type="line"/>
      <point x="333" y="514" type="line"/>
    </contour>
  </outline>
</glyph>
<glyph name="Ldot" format="1">
  <advance width="486"/>
  <unicode hex="013F"/>
  <outline>
    <contour>
      <point x="90" y="0" type="line"/>
      <point x="460" y="0" type="line"/>
      <point x="460" y="71" type="line"/>
      <point x="173" y="71" type="line"/>
      <point x="173" y="656" type="line"/>
      <point x="90" y="656" type="line"/>
    </contour>
    <contour>
      <point x="317" y="325" type="curve" smooth="yes"/>
      <point x="317" y="288"/>
      <point x="344" y="263"/>
      <point x="377" y="263" type="curve" smooth="yes"/>
      <point x="410" y="263"/>
      <point x="436" y="288"/>
      <point x="436" y="325" type="curve" smooth="yes"/>
      <point x="436" y="363"/>
      <point x="410" y="388"/>
      <point x="377" y="388" type="curve" smooth="yes"/>
      <point x="344" y="388"/>
      <point x="317" y="363"/>
    </contour>
  </outline>
</glyph>
<glyph name="ldot" format="1">
  <advance width="362"/>
  <unicode hex="0140"/>
  <outline>
    <contour>
      <point x="82" y="98" type="line" smooth="yes"/>
      <point x="82" y="27"/>
      <point x="107" y="-12"/>
      <point x="169" y="-12" type="curve" smooth="yes"/>
      <point x="191" y="-12"/>
      <point x="205" y="-9"/>
      <point x="216" y="-4" type="curve"/>
      <point x="205" y="58" type="line"/>
      <point x="196" y="56"/>
      <point x="192" y="56"/>
      <point x="187" y="56" type="curve" smooth="yes"/>
      <point x="175" y="56"/>
      <point x="164" y="66"/>
      <point x="164" y="92" type="curve" smooth="yes"/>
      <point x="164" y="712" type="line"/>
      <point x="82" y="712" type="line"/>
    </contour>
    <contour>
      <point x="244" y="325" type="curve" smooth="yes"/>
      <point x="244" y="288"/>
      <point x="271" y="263"/>
      <point x="303" y="263" type="curve" smooth="yes"/>
      <point x="336" y="263"/>
      <point x="363" y="288"/>
      <point x="363" y="325" type="curve" smooth="yes"/>
      <point x="363" y="363"/>
      <point x="336" y="388"/>
      <point x="303" y="388" type="curve" smooth="yes"/>
      <point x="271" y="388"/>
      <point x="244" y="363"/>
    </contour>
  </outline>
</glyph>
<glyph name="Lslash" format="1">
  <advance width="489"/>
  <unicode hex="0141"/>
  <outline>
    <contour>
      <point x="179" y="71" type="line"/>
      <point x="179" y="278" type="line"/>
      <point x="364" y="377" type="line"/>
      <point x="364" y="445" type="line"/>
      <point x="179" y="345" type="line"/>
      <point x="179" y="656" type="line"/>
      <point x="95" y="656" type="line"/>
      <point x="95" y="308" type="line"/>
      <point x="13" y="261" type="line"/>
      <point x="13" y="194" type="line"/>
      <point x="95" y="240" type="line"/>
      <point x="95" y="0" type="line"/>
      <point x="465" y="0" type="line"/>
      <point x="465" y="71" type="line"/>
    </contour>
  </outline>
</glyph>
<glyph name="uni0145" format="1">
  <advance width="647"/>
  <unicode hex="0145"/>
  <outline>
    <contour>
      <point x="90" y="0" type="line"/>
      <point x="169" y="0" type="line"/>
      <point x="169" y="343" type="line" smooth="yes"/>
      <point x="169" y="412"/>
      <point x="163" y="482"/>
      <point x="158" y="548" type="curve"/>
      <point x="162" y="548" type="line"/>
      <point x="233" y="413" type="line"/>
      <point x="471" y="0" type="line"/>
      <point x="557" y="0" type="line"/>
      <point x="557" y="656" type="line"/>
      <point x="478" y="656" type="line"/>
      <point x="478" y="317" type="line" smooth="yes"/>
      <point x="478" y="248"/>
      <point x="484" y="174"/>
      <point x="488" y="108" type="curve"/>
      <point x="484" y="108" type="line"/>
      <point x="413" y="244" type="line"/>
      <point x="176" y="656" type="line"/>
      <point x="90" y="656" type="line"/>
    </contour>
    <contour>
      <point x="299" y="-48" type="curve"/>
      <point x="281" y="-86" type="line"/>
      <point x="309" y="-93"/>
      <point x="332" y="-104"/>
      <point x="332" y="-130" type="curve" smooth="yes"/>
      <point x="332" y="-156"/>
      <point x="295" y="-169"/>
      <point x="243" y="-176" type="curve"/>
      <point x="251" y="-216" type="line"/>
      <point x="327" y="-210"/>
      <point x="396" y="-183"/>
      <point x="396" y="-125" type="curve" smooth="yes"/>
      <point x="396" y="-80"/>
      <point x="366" y="-58"/>
    </contour>
  </outline>
</glyph>
<glyph name="uni0146" format="1">
  <advance width="547"/>
  <unicode hex="0146"/>
  <outline>
    <contour>
      <point x="82" y="0" type="line"/>
      <point x="164" y="0" type="line"/>
      <point x="164" y="352" type="line"/>
      <point x="213" y="401"/>
      <point x="247" y="427"/>
      <point x="297" y="427" type="curve" smooth="yes"/>
      <point x="361" y="427"/>
      <point x="389" y="388"/>
      <point x="389" y="297" type="curve" smooth="yes"/>
      <point x="389" y="0" type="line"/>
      <point x="471" y="0" type="line"/>
      <point x="471" y="308" type="line" smooth="yes"/>
      <point x="471" y="432"/>
      <point x="425" y="498"/>
      <point x="323" y="498" type="curve" smooth="yes"/>
      <point x="256" y="498"/>
      <point x="206" y="462"/>
      <point x="160" y="416" type="curve"/>
      <point x="157" y="416" type="line"/>
      <point x="150" y="486" type="line"/>
      <point x="82" y="486" type="line"/>
    </contour>
    <contour>
      <point x="250" y="-48" type="curve"/>
      <point x="232" y="-86" type="line"/>
      <point x="260" y="-93"/>
      <point x="283" y="-104"/>
      <point x="283" y="-130" type="curve" smooth="yes"/>
      <point x="283" y="-156"/>
      <point x="247" y="-169"/>
      <point x="194" y="-176" type="curve"/>
      <point x="202" y="-216" type="line"/>
      <point x="278" y="-210"/>
      <point x="347" y="-183"/>
      <point x="347" y="-125" type="curve" smooth="yes"/>
      <point x="347" y="-80"/>
      <point x="317" y="-58"/>
    </contour>
  </outline>
</glyph>
<glyph name="Ncaron" format="1">
  <advance width="647"/>
  <unicode hex="0147"/>
  <outline>
    <contour>
      <point x="90" y="0" type="line"/>
      <point x="169" y="0" type="line"/>
      <point x="169" y="343" type="line" smooth="yes"/>
      <point x="169" y="412"/>
      <point x="163" y="482"/>
      <point x="158" y="548" type="curve"/>
      <point x="162" y="548" type="line"/>
      <point x="233" y="413" type="line"/>
      <point x="471" y="0" type="line"/>
      <point x="557" y="0" type="line"/>
      <point x="557" y="656" type="line"/>
      <point x="478" y="656" type="line"/>
      <point x="478" y="317" type="line" smooth="yes"/>
      <point x="478" y="248"/>
      <point x="484" y="174"/>
      <point x="488" y="108" type="curve"/>
      <point x="484" y="108" type="line"/>
      <point x="413" y="244" type="line"/>
      <point x="176" y="656" type="line"/>
      <point x="90" y="656" type="line"/>
    </contour>
    <contour>
      <point x="395" y="818" type="line"/>
      <point x="329" y="750" type="line"/>
      <point x="325" y="750" type="line"/>
      <point x="258" y="818" type="line"/>
      <point x="191" y="818" type="line"/>
      <point x="287" y="706" type="line"/>
      <point x="366" y="706" type="line"/>
      <point x="462" y="818" type="line"/>
    </contour>
  </outline>
</glyph>
<glyph name="uni014E" format="1">
  <advance width="664"/>
  <unicode hex="014E"/>
  <outline>
    <contour>
      <point x="332" y="-12" type="curve" smooth="yes"/>
      <point x="497" y="-12"/>
      <point x="613" y="120"/>
      <point x="613" y="331" type="curve" smooth="yes"/>
      <point x="613" y="540"/>
      <point x="497" y="668"/>
      <point x="332" y="668" type="curve" smooth="yes"/>
      <point x="167" y="668"/>
      <point x="52" y="541"/>
      <point x="52" y="331" type="curve" smooth="yes"/>
      <point x="52" y="120"/>
      <point x="167" y="-12"/>
    </contour>
    <contour>
      <point x="332" y="61" type="curve" smooth="yes"/>
      <point x="215" y="61"/>
      <point x="138" y="167"/>
      <point x="138" y="331" type="curve" smooth="yes"/>
      <point x="138" y="494"/>
      <point x="215" y="595"/>
      <point x="332" y="595" type="curve" smooth="yes"/>
      <point x="449" y="595"/>
      <point x="526" y="494"/>
      <point x="526" y="331" type="curve" smooth="yes"/>
      <point x="526" y="167"/>
      <point x="449" y="61"/>
    </contour>
    <contour>
      <point x="332" y="708" type="curve" smooth="yes"/>
      <point x="412" y="708"/>
      <point x="448" y="762"/>
      <point x="455" y="818" type="curve"/>
      <point x="405" y="818" type="line"/>
      <point x="399" y="786"/>
      <point x="377" y="755"/>
      <point x="332" y="755" type="curve" smooth="yes"/>
      <point x="287" y="755"/>
      <point x="265" y="786"/>
      <point x="259" y="818" type="curve"/>
      <point x="209" y="818" type="line"/>
      <point x="216" y="762"/>
      <point x="252" y="708"/>
    </contour>
  </outline>
</glyph>
<glyph name="uni014F" format="1">
  <advance width="542"/>
  <unicode hex="014F"/>
  <outline>
    <contour>
      <point x="46" y="242" type="curve" smooth="yes"/>
      <point x="46" y="81"/>
      <point x="152" y="-12"/>
      <point x="271" y="-12" type="curve" smooth="yes"/>
      <point x="390" y="-12"/>
      <point x="496" y="81"/>
      <point x="496" y="242" type="curve" smooth="yes"/>
      <point x="496" y="405"/>
      <point x="390" y="498"/>
      <point x="271" y="498" type="curve" smooth="yes"/>
      <point x="152" y="498"/>
      <point x="46" y="405"/>
    </contour>
    <contour>
      <point x="131" y="242" type="curve" smooth="yes"/>
      <point x="131" y="354"/>
      <point x="188" y="430"/>
      <point x="271" y="430" type="curve" smooth="yes"/>
      <point x="355" y="430"/>
      <point x="411" y="354"/>
      <point x="411" y="242" type="curve" smooth="yes"/>
      <point x="411" y="131"/>
      <point x="355" y="56"/>
      <point x="271" y="56" type="curve" smooth="yes"/>
      <point x="188" y="56"/>
      <point x="131" y="131"/>
    </contour>
    <contour>
      <point x="271" y="575" type="curve" smooth="yes"/>
      <point x="357" y="575"/>
      <point x="393" y="643"/>
      <point x="397" y="702" type="curve"/>
      <point x="346" y="702" type="line"/>
      <point x="341" y="663"/>
      <point x="318" y="626"/>
      <point x="271" y="626" type="curve" smooth="yes"/>
      <point x="224" y="626"/>
      <point x="201" y="663"/>
      <point x="196" y="702" type="curve"/>
      <point x="145" y="702" type="line"/>
      <point x="149" y="643"/>
      <point x="185" y="575"/>
    </contour>
  </outline>
</glyph>
<glyph name="Ohungarumlaut" format="1">
  <advance width="664"/>
  <unicode hex="0150"/>
  <outline>
    <contour>
      <point x="332" y="-12" type="curve" smooth="yes"/>
      <point x="497" y="-12"/>
      <point x="613" y="120"/>
      <point x="613" y="331" type="curve" smooth="yes"/>
      <point x="613" y="540"/>
      <point x="497" y="668"/>
      <point x="332" y="668" type="curve" smooth="yes"/>
      <point x="167" y="668"/>
      <point x="52" y="541"/>
      <point x="52" y="331" type="curve" smooth="yes"/>
      <point x="52" y="120"/>
      <point x="167" y="-12"/>
    </contour>
    <contour>
      <point x="332" y="61" type="curve" smooth="yes"/>
      <point x="215" y="61"/>
      <point x="138" y="167"/>
      <point x="138" y="331" type="curve" smooth="yes"/>
      <point x="138" y="494"/>
      <point x="215" y="595"/>
      <point x="332" y="595" type="curve" smooth="yes"/>
      <point x="449" y="595"/>
      <point x="526" y="494"/>
      <point x="526" y="331" type="curve" smooth="yes"/>
      <point x="526" y="167"/>
      <point x="449" y="61"/>
    </contour>
    <contour>
      <point x="283" y="706" type="line"/>
      <point x="366" y="818" type="line"/>
      <point x="289" y="818" type="line"/>
      <point x="223" y="706" type="line"/>
    </contour>
    <contour>
      <point x="381" y="706" type="line"/>
      <point x="441" y="706" type="line"/>
      <point x="524" y="818" type="line"/>
      <point x="447" y="818" type="line"/>
    </contour>
  </outline>
</glyph>
<glyph name="ohungarumlaut" format="1">
  <advance width="542"/>
  <unicode hex="0151"/>
  <outline>
    <contour>
      <point x="46" y="242" type="curve" smooth="yes"/>
      <point x="46" y="81"/>
      <point x="152" y="-12"/>
      <point x="271" y="-12" type="curve" smooth="yes"/>
      <point x="390" y="-12"/>
      <point x="496" y="81"/>
      <point x="496" y="242" type="curve" smooth="yes"/>
      <point x="496" y="405"/>
      <point x="390" y="498"/>
      <point x="271" y="498" type="curve" smooth="yes"/>
      <point x="152" y="498"/>
      <point x="46" y="405"/>
    </contour>
    <contour>
      <point x="131" y="242" type="curve" smooth="yes"/>
      <point x="131" y="354"/>
      <point x="188" y="430"/>
      <point x="271" y="430" type="curve" smooth="yes"/>
      <point x="355" y="430"/>
      <point x="411" y="354"/>
      <point x="411" y="242" type="curve" smooth="yes"/>
      <point x="411" y="131"/>
      <point x="355" y="56"/>
      <point x="271" y="56" type="curve" smooth="yes"/>
      <point x="188" y="56"/>
      <point x="131" y="131"/>
    </contour>
    <contour>
      <point x="173" y="571" type="line"/>
      <point x="228" y="571" type="line"/>
      <point x="316" y="714" type="line"/>
      <point x="244" y="714" type="line"/>
    </contour>
    <contour>
      <point x="320" y="571" type="line"/>
      <point x="375" y="571" type="line"/>
      <point x="463" y="714" type="line"/>
      <point x="391" y="714" type="line"/>
    </contour>
  </outline>
</glyph>
<glyph name="uni0156" format="1">
  <advance width="581"/>
  <unicode hex="0156"/>
  <outline>
    <contour>
      <point x="262" y="-86" type="line"/>
      <point x="291" y="-93"/>
      <point x="313" y="-104"/>
      <point x="313" y="-130" type="curve" smooth="yes"/>
      <point x="313" y="-156"/>
      <point x="277" y="-169"/>
      <point x="225" y="-176" type="curve"/>
      <point x="233" y="-216" type="line"/>
      <point x="308" y="-210"/>
      <point x="377" y="-183"/>
      <point x="377" y="-125" type="curve" smooth="yes"/>
      <point x="377" y="-80"/>
      <point x="348" y="-58"/>
      <point x="280" y="-48" type="curve"/>
    </contour>
    <contour>
      <point x="173" y="589" type="line"/>
      <point x="283" y="589" type="line" smooth="yes"/>
      <point x="385" y="589"/>
      <point x="442" y="558"/>
      <point x="442" y="472" type="curve" smooth="yes"/>
      <point x="442" y="387"/>
      <point x="385" y="345"/>
      <point x="283" y="345" type="curve" smooth="yes"/>
      <point x="173" y="345" type="line"/>
    </contour>
    <contour>
      <point x="378" y="286" type="line"/>
      <point x="467" y="308"/>
      <point x="525" y="370"/>
      <point x="525" y="472" type="curve" smooth="yes"/>
      <point x="525" y="608"/>
      <point x="429" y="656"/>
      <point x="295" y="656" type="curve" smooth="yes"/>
      <point x="90" y="656" type="line"/>
      <point x="90" y="0" type="line"/>
      <point x="173" y="0" type="line"/>
      <point x="173" y="277" type="line"/>
      <point x="292" y="277" type="line"/>
      <point x="450" y="0" type="line"/>
      <point x="544" y="0" type="line"/>
    </contour>
  </outline>
</glyph>
<glyph name="uni0157" format="1">
  <advance width="347"/>
  <unicode hex="0157"/>
  <outline>
    <contour>
      <point x="82" y="0" type="line"/>
      <point x="164" y="0" type="line"/>
      <point x="164" y="312" type="line"/>
      <point x="197" y="394"/>
      <point x="246" y="424"/>
      <point x="287" y="424" type="curve" smooth="yes"/>
      <point x="307" y="424"/>
      <point x="318" y="421"/>
      <point x="334" y="416" type="curve"/>
      <point x="350" y="488" type="line"/>
      <point x="334" y="495"/>
      <point x="319" y="498"/>
      <point x="298" y="498" type="curve" smooth="yes"/>
      <point x="243" y="498"/>
      <point x="193" y="459"/>
      <point x="160" y="398" type="curve"/>
      <point x="157" y="398" type="line"/>
      <point x="150" y="486" type="line"/>
      <point x="82" y="486" type="line"/>
    </contour>
    <contour>
      <point x="92" y="-48" type="curve"/>
      <point x="74" y="-86" type="line"/>
      <point x="103" y="-93"/>
      <point x="125" y="-104"/>
      <point x="125" y="-130" type="curve" smooth="yes"/>
      <point x="125" y="-156"/>
      <point x="89" y="-169"/>
      <point x="37" y="-176" type="curve"/>
      <point x="45" y="-216" type="line"/>
      <point x="120" y="-210"/>
      <point x="189" y="-183"/>
      <point x="189" y="-125" type="curve" smooth="yes"/>
      <point x="189" y="-80"/>
      <point x="160" y="-58"/>
    </contour>
  </outline>
</glyph>
<glyph name="Scircumflex" format="1">
  <advance width="534"/>
  <unicode hex="015C"/>
  <outline>
    <contour>
      <point x="42" y="85" type="line"/>
      <point x="99" y="26"/>
      <point x="180" y="-12"/>
      <point x="272" y="-12" type="curve" smooth="yes"/>
      <point x="410" y="-12"/>
      <point x="495" y="71"/>
      <point x="495" y="175" type="curve" smooth="yes"/>
      <point x="495" y="272"/>
      <point x="436" y="317"/>
      <point x="360" y="350" type="curve" smooth="yes"/>
      <point x="267" y="390" type="line" smooth="yes"/>
      <point x="215" y="412"/>
      <point x="158" y="436"/>
      <point x="158" y="499" type="curve" smooth="yes"/>
      <point x="158" y="558"/>
      <point x="207" y="595"/>
      <point x="280" y="595" type="curve" smooth="yes"/>
      <point x="341" y="595"/>
      <point x="389" y="571"/>
      <point x="429" y="533" type="curve"/>
      <point x="474" y="587" type="line"/>
      <point x="427" y="635"/>
      <point x="358" y="668"/>
      <point x="280" y="668" type="curve" smooth="yes"/>
      <point x="161" y="668"/>
      <point x="74" y="594"/>
      <point x="74" y="494" type="curve" smooth="yes"/>
      <point x="74" y="398"/>
      <point x="145" y="351"/>
      <point x="207" y="325" type="curve" smooth="yes"/>
      <point x="301" y="284" type="line" smooth="yes"/>
      <point x="363" y="256"/>
      <point x="410" y="235"/>
      <point x="410" y="168" type="curve" smooth="yes"/>
      <point x="410" y="104"/>
      <point x="359" y="61"/>
      <point x="273" y="61" type="curve" smooth="yes"/>
      <point x="205" y="61"/>
      <point x="139" y="94"/>
      <point x="92" y="143" type="curve"/>
    </contour>
    <contour>
      <point x="210" y="706" type="line"/>
      <point x="277" y="774" type="line"/>
      <point x="281" y="774" type="line"/>
      <point x="348" y="706" type="line"/>
      <point x="415" y="706" type="line"/>
      <point x="319" y="818" type="line"/>
      <point x="239" y="818" type="line"/>
      <point x="143" y="706" type="line"/>
    </contour>
  </outline>
</glyph>
<glyph name="uni015F" format="1">
  <advance width="419"/>
  <unicode hex="015F"/>
  <outline>
    <contour>
      <point x="370" y="443" type="line"/>
      <point x="333" y="473"/>
      <point x="280" y="498"/>
      <point x="219" y="498" type="curve" smooth="yes"/>
      <point x="114" y="498"/>
      <point x="52" y="438"/>
      <point x="52" y="360" type="curve" smooth="yes"/>
      <point x="52" y="278"/>
      <point x="128" y="245"/>
      <point x="197" y="220" type="curve" smooth="yes"/>
      <point x="250" y="200"/>
      <point x="308" y="178"/>
      <point x="308" y="128" type="curve" smooth="yes"/>
      <point x="308" y="86"/>
      <point x="276" y="52"/>
      <point x="212" y="52" type="curve" smooth="yes"/>
      <point x="154" y="52"/>
      <point x="111" y="76"/>
      <point x="69" y="110" type="curve"/>
      <point x="28" y="55" type="line"/>
      <point x="71" y="19"/>
      <point x="131" y="-8"/>
      <point x="195" y="-12" type="curve"/>
      <point x="163" y="-75" type="line"/>
      <point x="204" y="-85"/>
      <point x="227" y="-98"/>
      <point x="227" y="-124" type="curve" smooth="yes"/>
      <point x="227" y="-151"/>
      <point x="190" y="-165"/>
      <point x="138" y="-172" type="curve"/>
      <point x="146" y="-213" type="line"/>
      <point x="221" y="-206"/>
      <point x="290" y="-179"/>
      <point x="290" y="-121" type="curve" smooth="yes"/>
      <point x="290" y="-80"/>
      <point x="264" y="-61"/>
      <point x="231" y="-50" type="curve"/>
      <point x="251" y="-9" type="line"/>
      <point x="339" y="5"/>
      <point x="387" y="64"/>
      <point x="387" y="133" type="curve" smooth="yes"/>
      <point x="387" y="225"/>
      <point x="309" y="254"/>
      <point x="239" y="280" type="curve" smooth="yes"/>
      <point x="184" y="301"/>
      <point x="131" y="318"/>
      <point x="131" y="364" type="curve" smooth="yes"/>
      <point x="131" y="401"/>
      <point x="159" y="434"/>
      <point x="220" y="434" type="curve" smooth="yes"/>
      <point x="263" y="434"/>
      <point x="298" y="416"/>
      <point x="331" y="391" type="curve"/>
    </contour>
  </outline>
</glyph>
<glyph name="uni0162" format="1">
  <advance width="536"/>
  <unicode hex="0162"/>
  <outline>
    <contour>
      <point x="310" y="0" type="line"/>
      <point x="310" y="586" type="line"/>
      <point x="508" y="586" type="line"/>
      <point x="508" y="656" type="line"/>
      <point x="28" y="656" type="line"/>
      <point x="28" y="586" type="line"/>
      <point x="226" y="586" type="line"/>
      <point x="226" y="0" type="line"/>
      <point x="243" y="0" type="line"/>
      <point x="205" y="-75" type="line"/>
      <point x="246" y="-85"/>
      <point x="269" y="-98"/>
      <point x="269" y="-124" type="curve" smooth="yes"/>
      <point x="269" y="-151"/>
      <point x="232" y="-165"/>
      <point x="180" y="-172" type="curve"/>
      <point x="188" y="-213" type="line"/>
      <point x="263" y="-206"/>
      <point x="332" y="-179"/>
      <point x="332" y="-121" type="curve" smooth="yes"/>
      <point x="332" y="-80"/>
      <point x="306" y="-61"/>
      <point x="273" y="-50" type="curve"/>
      <point x="298" y="0" type="line"/>
    </contour>
  </outline>
</glyph>
<glyph name="uni0163" format="1">
  <advance width="338"/>
  <unicode hex="0163"/>
  <outline>
    <contour>
      <point x="244" y="-12" type="line"/>
      <point x="271" y="-10"/>
      <point x="301" y="-2"/>
      <point x="325" y="6" type="curve"/>
      <point x="309" y="68" type="line"/>
      <point x="293" y="62"/>
      <point x="271" y="55"/>
      <point x="254" y="55" type="curve" smooth="yes"/>
      <point x="198" y="55"/>
      <point x="179" y="89"/>
      <point x="179" y="149" type="curve" smooth="yes"/>
      <point x="179" y="419" type="line"/>
      <point x="310" y="419" type="line"/>
      <point x="310" y="486" type="line"/>
      <point x="179" y="486" type="line"/>
      <point x="179" y="622" type="line"/>
      <point x="110" y="622" type="line"/>
      <point x="100" y="486" type="line"/>
      <point x="24" y="481" type="line"/>
      <point x="24" y="419" type="line"/>
      <point x="96" y="419" type="line"/>
      <point x="96" y="150" type="line" smooth="yes"/>
      <point x="96" y="69"/>
      <point x="121" y="9"/>
      <point x="192" y="-7" type="curve"/>
      <point x="157" y="-75" type="line"/>
      <point x="198" y="-85"/>
      <point x="221" y="-98"/>
      <point x="221" y="-124" type="curve" smooth="yes"/>
      <point x="221" y="-151"/>
      <point x="184" y="-165"/>
      <point x="132" y="-172" type="curve"/>
      <point x="140" y="-213" type="line"/>
      <point x="215" y="-206"/>
      <point x="284" y="-179"/>
      <point x="284" y="-121" type="curve" smooth="yes"/>
      <point x="284" y="-80"/>
      <point x="258" y="-61"/>
      <point x="225" y="-50" type="curve"/>
    </contour>
  </outline>
</glyph>
<glyph name="Tcaron" format="1">
  <advance width="536"/>
  <unicode hex="0164"/>
  <outline>
    <contour>
      <point x="226" y="0" type="line"/>
      <point x="310" y="0" type="line"/>
      <point x="310" y="586" type="line"/>
      <point x="508" y="586" type="line"/>
      <point x="508" y="656" type="line"/>
      <point x="28" y="656" type="line"/>
      <point x="28" y="586" type="line"/>
      <point x="226" y="586" type="line"/>
    </contour>
    <contour>
      <point x="336" y="818" type="line"/>
      <point x="269" y="750" type="line"/>
      <point x="265" y="750" type="line"/>
      <point x="199" y="818" type="line"/>
      <point x="132" y="818" type="line"/>
      <point x="228" y="706" type="line"/>
      <point x="307" y="706" type="line"/>
      <point x="403" y="818" type="line"/>
    </contour>
  </outline>
</glyph>
<glyph name="Utilde" format="1">
  <advance width="645"/>
  <unicode hex="0168"/>
  <outline>
    <contour>
      <point x="87" y="271" type="line" smooth="yes"/>
      <point x="87" y="60"/>
      <point x="189" y="-12"/>
      <point x="323" y="-12" type="curve" smooth="yes"/>
      <point x="457" y="-12"/>
      <point x="558" y="60"/>
      <point x="558" y="271" type="curve" smooth="yes"/>
      <point x="558" y="656" type="line"/>
      <point x="478" y="656" type="line"/>
      <point x="478" y="269" type="line" smooth="yes"/>
      <point x="478" y="111"/>
      <point x="410" y="61"/>
      <point x="323" y="61" type="curve" smooth="yes"/>
      <point x="237" y="61"/>
      <point x="170" y="111"/>
      <point x="170" y="269" type="curve" smooth="yes"/>
      <point x="170" y="656" type="line"/>
      <point x="87" y="656" type="line"/>
    </contour>
    <contour>
      <point x="383" y="711" type="curve" smooth="yes"/>
      <point x="431" y="711"/>
      <point x="462" y="758"/>
      <point x="467" y="819" type="curve"/>
      <point x="422" y="819" type="line"/>
      <point x="416" y="786"/>
      <point x="401" y="767"/>
      <point x="381" y="767" type="curve" smooth="yes"/>
      <point x="344" y="767"/>
      <point x="315" y="819"/>
      <point x="263" y="819" type="curve" smooth="yes"/>
      <point x="215" y="819"/>
      <point x="184" y="773"/>
      <point x="178" y="711" type="curve"/>
      <point x="224" y="711" type="line"/>
      <point x="229" y="745"/>
      <point x="244" y="763"/>
      <point x="264" y="763" type="curve" smooth="yes"/>
      <point x="301" y="763"/>
      <point x="330" y="711"/>
    </contour>
  </outline>
</glyph>
<glyph name="utilde" format="1">
  <advance width="544"/>
  <unicode hex="0169"/>
  <outline>
    <contour>
      <point x="75" y="178" type="line" smooth="yes"/>
      <point x="75" y="54"/>
      <point x="121" y="-12"/>
      <point x="224" y="-12" type="curve" smooth="yes"/>
      <point x="291" y="-12"/>
      <point x="339" y="23"/>
      <point x="384" y="76" type="curve"/>
      <point x="387" y="76" type="line"/>
      <point x="394" y="0" type="line"/>
      <point x="462" y="0" type="line"/>
      <point x="462" y="486" type="line"/>
      <point x="380" y="486" type="line"/>
      <point x="380" y="141" type="line"/>
      <point x="334" y="84"/>
      <point x="299" y="59"/>
      <point x="249" y="59" type="curve" smooth="yes"/>
      <point x="185" y="59"/>
      <point x="158" y="98"/>
      <point x="158" y="189" type="curve" smooth="yes"/>
      <point x="158" y="486" type="line"/>
      <point x="75" y="486" type="line"/>
    </contour>
    <contour>
      <point x="133" y="579" type="curve"/>
      <point x="180" y="579" type="line"/>
      <point x="185" y="613"/>
      <point x="197" y="630"/>
      <point x="216" y="630" type="curve" smooth="yes"/>
      <point x="250" y="630"/>
      <point x="280" y="579"/>
      <point x="330" y="579" type="curve" smooth="yes"/>
      <point x="380" y="579"/>
      <point x="406" y="625"/>
      <point x="412" y="685" type="curve"/>
      <point x="365" y="685" type="line"/>
      <point x="359" y="651"/>
      <point x="348" y="634"/>
      <point x="328" y="634" type="curve" smooth="yes"/>
      <point x="296" y="634"/>
      <point x="265" y="685"/>
      <point x="215" y="685" type="curve" smooth="yes"/>
      <point x="165" y="685"/>
      <point x="139" y="639"/>
    </contour>
  </outline>
</glyph>
<glyph name="Umacron" format="1">
  <advance width="645"/>
  <unicode hex="016A"/>
  <outline>
    <contour>
      <point x="87" y="271" type="line" smooth="yes"/>
      <point x="87" y="60"/>
      <point x="189" y="-12"/>
      <point x="323" y="-12" type="curve" smooth="yes"/>
      <point x="457" y="-12"/>
      <point x="558" y="60"/>
      <point x="558" y="271" type="curve" smooth="yes"/>
      <point x="558" y="656" type="line"/>
      <point x="478" y="656" type="line"/>
      <point x="478" y="269" type="line" smooth="yes"/>
      <point x="478" y="111"/>
      <point x="410" y="61"/>
      <point x="323" y="61" type="curve" smooth="yes"/>
      <point x="237" y="61"/>
      <point x="170" y="111"/>
      <point x="170" y="269" type="curve" smooth="yes"/>
      <point x="170" y="656" type="line"/>
      <point x="87" y="656" type="line"/>
    </contour>
    <contour>
      <point x="199" y="729" type="line"/>
      <point x="447" y="729" type="line"/>
      <point x="447" y="786" type="line"/>
      <point x="199" y="786" type="line"/>
    </contour>
  </outline>
</glyph>
<glyph name="Ubreve" format="1">
  <advance width="645"/>
  <unicode hex="016C"/>
  <outline>
    <contour>
      <point x="87" y="271" type="line" smooth="yes"/>
      <point x="87" y="60"/>
      <point x="189" y="-12"/>
      <point x="323" y="-12" type="curve" smooth="yes"/>
      <point x="457" y="-12"/>
      <point x="558" y="60"/>
      <point x="558" y="271" type="curve" smooth="yes"/>
      <point x="558" y="656" type="line"/>
      <point x="478" y="656" type="line"/>
      <point x="478" y="269" type="line" smooth="yes"/>
      <point x="478" y="111"/>
      <point x="410" y="61"/>
      <point x="323" y="61" type="curve" smooth="yes"/>
      <point x="237" y="61"/>
      <point x="170" y="111"/>
      <point x="170" y="269" type="curve" smooth="yes"/>
      <point x="170" y="656" type="line"/>
      <point x="87" y="656" type="line"/>
    </contour>
    <contour>
      <point x="323" y="708" type="curve" smooth="yes"/>
      <point x="403" y="708"/>
      <point x="439" y="762"/>
      <point x="446" y="818" type="curve"/>
      <point x="395" y="818" type="line"/>
      <point x="389" y="786"/>
      <point x="368" y="755"/>
      <point x="323" y="755" type="curve" smooth="yes"/>
      <point x="278" y="755"/>
      <point x="256" y="786"/>
      <point x="250" y="818" type="curve"/>
      <point x="200" y="818" type="line"/>
      <point x="206" y="762"/>
      <point x="243" y="708"/>
    </contour>
  </outline>
</glyph>
<glyph name="ubreve" format="1">
  <advance width="544"/>
  <unicode hex="016D"/>
  <outline>
    <contour>
      <point x="75" y="178" type="line" smooth="yes"/>
      <point x="75" y="54"/>
      <point x="121" y="-12"/>
      <point x="224" y="-12" type="curve" smooth="yes"/>
      <point x="291" y="-12"/>
      <point x="339" y="23"/>
      <point x="384" y="76" type="curve"/>
      <point x="387" y="76" type="line"/>
      <point x="394" y="0" type="line"/>
      <point x="462" y="0" type="line"/>
      <point x="462" y="486" type="line"/>
      <point x="380" y="486" type="line"/>
      <point x="380" y="141" type="line"/>
      <point x="334" y="84"/>
      <point x="299" y="59"/>
      <point x="249" y="59" type="curve" smooth="yes"/>
      <point x="185" y="59"/>
      <point x="158" y="98"/>
      <point x="158" y="189" type="curve" smooth="yes"/>
      <point x="158" y="486" type="line"/>
      <point x="75" y="486" type="line"/>
    </contour>
    <contour>
      <point x="272" y="575" type="curve" smooth="yes"/>
      <point x="358" y="575"/>
      <point x="394" y="643"/>
      <point x="399" y="702" type="curve"/>
      <point x="348" y="702" type="line"/>
      <point x="342" y="663"/>
      <point x="319" y="626"/>
      <point x="272" y="626" type="curve" smooth="yes"/>
      <point x="226" y="626"/>
      <point x="202" y="663"/>
      <point x="197" y="702" type="curve"/>
      <point x="146" y="702" type="line"/>
      <point x="151" y="643"/>
      <point x="186" y="575"/>
    </contour>
  </outline>
</glyph>
<glyph name="Uring" format="1">
  <advance width="645"/>
  <unicode hex="016E"/>
  <outline>
    <contour>
      <point x="87" y="271" type="line" smooth="yes"/>
      <point x="87" y="60"/>
      <point x="189" y="-12"/>
      <point x="323" y="-12" type="curve" smooth="yes"/>
      <point x="457" y="-12"/>
      <point x="558" y="60"/>
      <point x="558" y="271" type="curve" smooth="yes"/>
      <point x="558" y="656" type="line"/>
      <point x="478" y="656" type="line"/>
      <point x="478" y="269" type="line" smooth="yes"/>
      <point x="478" y="111"/>
      <point x="410" y="61"/>
      <point x="323" y="61" type="curve" smooth="yes"/>
      <point x="237" y="61"/>
      <point x="170" y="111"/>
      <point x="170" y="269" type="curve" smooth="yes"/>
      <point x="170" y="656" type="line"/>
      <point x="87" y="656" type="line"/>
    </contour>
    <contour>
      <point x="323" y="699" type="curve" smooth="yes"/>
      <point x="376" y="699"/>
      <point x="416" y="733"/>
      <point x="416" y="787" type="curve" smooth="yes"/>
      <point x="416" y="840"/>
      <point x="376" y="875"/>
      <point x="323" y="875" type="curve" smooth="yes"/>
      <point x="268" y="875"/>
      <point x="229" y="840"/>
      <point x="229" y="787" type="curve" smooth="yes"/>
      <point x="229" y="733"/>
      <point x="268" y="699"/>
    </contour>
    <contour>
      <point x="323" y="735" type="curve" smooth="yes"/>
      <point x="296" y="735"/>
      <point x="275" y="754"/>
      <point x="275" y="787" type="curve" smooth="yes"/>
      <point x="275" y="818"/>
      <point x="296" y="838"/>
      <point x="323" y="838" type="curve" smooth="yes"/>
      <point x="348" y="838"/>
      <point x="370" y="818"/>
      <point x="370" y="787" type="curve" smooth="yes"/>
      <point x="370" y="754"/>
      <point x="348" y="735"/>
    </contour>
  </outline>
</glyph>
<glyph name="uhungarumlaut" format="1">
  <advance width="544"/>
  <unicode hex="0171"/>
  <outline>
    <contour>
      <point x="75" y="178" type="line" smooth="yes"/>
      <point x="75" y="54"/>
      <point x="121" y="-12"/>
      <point x="224" y="-12" type="curve" smooth="yes"/>
      <point x="291" y="-12"/>
      <point x="339" y="23"/>
      <point x="384" y="76" type="curve"/>
      <point x="387" y="76" type="line"/>
      <point x="394" y="0" type="line"/>
      <point x="462" y="0" type="line"/>
      <point x="462" y="486" type="line"/>
      <point x="380" y="486" type="line"/>
      <point x="380" y="141" type="line"/>
      <point x="334" y="84"/>
      <point x="299" y="59"/>
      <point x="249" y="59" type="curve" smooth="yes"/>
      <point x="185" y="59"/>
      <point x="158" y="98"/>
      <point x="158" y="189" type="curve" smooth="yes"/>
      <point x="158" y="486" type="line"/>
      <point x="75" y="486" type="line"/>
    </contour>
    <contour>
      <point x="174" y="571" type="line"/>
      <point x="229" y="571" type="line"/>
      <point x="317" y="714" type="line"/>
      <point x="245" y="714" type="line"/>
    </contour>
    <contour>
      <point x="321" y="571" type="line"/>
      <point x="376" y="571" type="line"/>
      <point x="464" y="714" type="line"/>
      <point x="392" y="714" type="line"/>
    </contour>
  </outline>
</glyph>
<glyph name="wcircumflex" format="1">
  <advance width="718"/>
  <unicode hex="0175"/>
  <outline>
    <contour>
      <point x="159" y="0" type="line"/>
      <point x="255" y="0" type="line"/>
      <point x="323" y="260" type="line" smooth="yes"/>
      <point x="336" y="306"/>
      <point x="346" y="352"/>
      <point x="357" y="401" type="curve"/>
      <point x="361" y="401" type="line"/>
      <point x="373" y="352"/>
      <point x="382" y="307"/>
      <point x="394" y="261" type="curve" smooth="yes"/>
      <point x="464" y="0" type="line"/>
      <point x="564" y="0" type="line"/>
      <point x="694" y="486" type="line"/>
      <point x="616" y="486" type="line"/>
      <point x="545" y="205" type="line" smooth="yes"/>
      <point x="535" y="159"/>
      <point x="526" y="115"/>
      <point x="515" y="70" type="curve"/>
      <point x="511" y="70" type="line"/>
      <point x="500" y="115"/>
      <point x="489" y="159"/>
      <point x="477" y="205" type="curve" smooth="yes"/>
      <point x="401" y="486" type="line"/>
      <point x="321" y="486" type="line"/>
      <point x="246" y="205" type="line" smooth="yes"/>
      <point x="234" y="160"/>
      <point x="224" y="115"/>
      <point x="213" y="70" type="curve"/>
      <point x="209" y="70" type="line"/>
      <point x="200" y="115"/>
      <point x="191" y="159"/>
      <point x="180" y="205" type="curve" smooth="yes"/>
      <point x="108" y="486" type="line"/>
      <point x="24" y="486" type="line"/>
    </contour>
    <contour>
      <point x="232" y="573" type="line"/>
      <point x="291" y="573" type="line"/>
      <point x="358" y="664" type="line"/>
      <point x="362" y="664" type="line"/>
      <point x="429" y="573" type="line"/>
      <point x="489" y="573" type="line"/>
      <point x="394" y="714" type="line"/>
      <point x="326" y="714" type="line"/>
    </contour>
  </outline>
</glyph>
<glyph name="Ycircumflex" format="1">
  <advance width="476"/>
  <unicode hex="0176"/>
  <outline>
    <contour>
      <point x="196" y="0" type="line"/>
      <point x="280" y="0" type="line"/>
      <point x="280" y="254" type="line"/>
      <point x="477" y="656" type="line"/>
      <point x="390" y="656" type="line"/>
      <point x="306" y="471" type="line" smooth="yes"/>
      <point x="286" y="423"/>
      <point x="263" y="377"/>
      <point x="240" y="328" type="curve"/>
      <point x="236" y="328" type="line"/>
      <point x="214" y="377"/>
      <point x="194" y="423"/>
      <point x="173" y="471" type="curve" smooth="yes"/>
      <point x="88" y="656" type="line"/>
      <point x="-1" y="656" type="line"/>
      <point x="196" y="254" type="line"/>
    </contour>
    <contour>
      <point x="169" y="706" type="line"/>
      <point x="236" y="774" type="line"/>
      <point x="240" y="774" type="line"/>
      <point x="307" y="706" type="line"/>
      <point x="374" y="706" type="line"/>
      <point x="278" y="818" type="line"/>
      <point x="198" y="818" type="line"/>
      <point x="102" y="706" type="line"/>
    </contour>
  </outline>
</glyph>
<glyph name="Ydieresis" format="1">
  <advance width="476"/>
  <unicode hex="0178"/>
  <outline>
    <contour>
      <point x="196" y="0" type="line"/>
      <point x="280" y="0" type="line"/>
      <point x="280" y="254" type="line"/>
      <point x="477" y="656" type="line"/>
      <point x="390" y="656" type="line"/>
      <point x="306" y="471" type="line" smooth="yes"/>
      <point x="286" y="423"/>
      <point x="263" y="377"/>
      <point x="240" y="328" type="curve"/>
      <point x="236" y="328" type="line"/>
      <point x="214" y="377"/>
      <point x="194" y="423"/>
      <point x="173" y="471" type="curve" smooth="yes"/>
      <point x="88" y="656" type="line"/>
      <point x="-1" y="656" type="line"/>
      <point x="196" y="254" type="line"/>
    </contour>
    <contour>
      <point x="152" y="715" type="curve" smooth="yes"/>
      <point x="180" y="715"/>
      <point x="200" y="736"/>
      <point x="200" y="764" type="curve" smooth="yes"/>
      <point x="200" y="793"/>
      <point x="180" y="813"/>
      <point x="152" y="813" type="curve" smooth="yes"/>
      <point x="123" y="813"/>
      <point x="103" y="793"/>
      <point x="103" y="764" type="curve" smooth="yes"/>
      <point x="103" y="736"/>
      <point x="123" y="715"/>
    </contour>
    <contour>
      <point x="324" y="715" type="curve" smooth="yes"/>
      <point x="352" y="715"/>
      <point x="373" y="736"/>
      <point x="373" y="764" type="curve" smooth="yes"/>
      <point x="373" y="793"/>
      <point x="352" y="813"/>
      <point x="324" y="813" type="curve" smooth="yes"/>
      <point x="296" y="813"/>
      <point x="275" y="793"/>
      <point x="275" y="764" type="curve" smooth="yes"/>
      <point x="275" y="736"/>
      <point x="296" y="715"/>
    </contour>
  </outline>
</glyph>
<glyph name="Zacute" format="1">
  <advance width="539"/>
  <unicode hex="0179"/>
  <outline>
    <contour>
      <point x="45" y="0" type="line"/>
      <point x="497" y="0" type="line"/>
      <point x="497" y="71" type="line"/>
      <point x="148" y="71" type="line"/>
      <point x="494" y="607" type="line"/>
      <point x="494" y="656" type="line"/>
      <point x="76" y="656" type="line"/>
      <point x="76" y="586" type="line"/>
      <point x="390" y="586" type="line"/>
      <point x="45" y="50" type="line"/>
    </contour>
    <contour>
      <point x="412" y="818" type="line"/>
      <point x="318" y="818" type="line"/>
      <point x="230" y="706" type="line"/>
      <point x="299" y="706" type="line"/>
    </contour>
  </outline>
</glyph>
<glyph name="zacute" format="1">
  <advance width="425"/>
  <unicode hex="017A"/>
  <outline>
    <contour>
      <point x="31" y="0" type="line"/>
      <point x="399" y="0" type="line"/>
      <point x="399" y="67" type="line"/>
      <point x="135" y="67" type="line"/>
      <point x="391" y="442" type="line"/>
      <point x="391" y="486" type="line"/>
      <point x="59" y="486" type="line"/>
      <point x="59" y="419" type="line"/>
      <point x="287" y="419" type="line"/>
      <point x="31" y="44" type="line"/>
    </contour>
    <contour>
      <point x="340" y="714" type="line"/>
      <point x="254" y="714" type="line"/>
      <point x="163" y="573" type="line"/>
      <point x="227" y="573" type="line"/>
    </contour>
  </outline>
</glyph>
<glyph name="Zdotaccent" format="1">
  <advance width="539"/>
  <unicode hex="017B"/>
  <outline>
    <contour>
      <point x="45" y="0" type="line"/>
      <point x="497" y="0" type="line"/>
      <point x="497" y="71" type="line"/>
      <point x="148" y="71" type="line"/>
      <point x="494" y="607" type="line"/>
      <point x="494" y="656" type="line"/>
      <point x="76" y="656" type="line"/>
      <point x="76" y="586" type="line"/>
      <point x="390" y="586" type="line"/>
      <point x="45" y="50" type="line"/>
    </contour>
    <contour>
      <point x="281" y="714" type="curve" smooth="yes"/>
      <point x="313" y="714"/>
      <point x="338" y="736"/>
      <point x="338" y="768" type="curve" smooth="yes"/>
      <point x="338" y="799"/>
      <point x="313" y="821"/>
      <point x="281" y="821" type="curve" smooth="yes"/>
      <point x="249" y="821"/>
      <point x="224" y="799"/>
      <point x="224" y="768" type="curve" smooth="yes"/>
      <point x="224" y="736"/>
      <point x="249" y="714"/>
    </contour>
  </outline>
</glyph>
<glyph name="zdotaccent" format="1">
  <advance width="425"/>
  <unicode hex="017C"/>
  <outline>
    <contour>
      <point x="31" y="0" type="line"/>
      <point x="399" y="0" type="line"/>
      <point x="399" y="67" type="line"/>
      <point x="135" y="67" type="line"/>
      <point x="391" y="442" type="line"/>
      <point x="391" y="486" type="line"/>
      <point x="59" y="486" type="line"/>
      <point x="59" y="419" type="line"/>
      <point x="287" y="419" type="line"/>
      <point x="31" y="44" type="line"/>
    </contour>
    <contour>
      <point x="229" y="586" type="curve" smooth="yes"/>
      <point x="260" y="586"/>
      <point x="283" y="608"/>
      <point x="283" y="640" type="curve" smooth="yes"/>
      <point x="283" y="671"/>
      <point x="260" y="694"/>
      <point x="229" y="694" type="curve" smooth="yes"/>
      <point x="197" y="694"/>
      <point x="175" y="671"/>
      <point x="175" y="640" type="curve" smooth="yes"/>
      <point x="175" y="608"/>
      <point x="197" y="586"/>
    </contour>
  </outline>
</glyph>
<glyph name="Zcaron" format="1">
  <advance width="539"/>
  <unicode hex="017D"/>
  <outline>
    <contour>
      <point x="45" y="0" type="line"/>
      <point x="497" y="0" type="line"/>
      <point x="497" y="71" type="line"/>
      <point x="148" y="71" type="line"/>
      <point x="494" y="607" type="line"/>
      <point x="494" y="656" type="line"/>
      <point x="76" y="656" type="line"/>
      <point x="76" y="586" type="line"/>
      <point x="390" y="586" type="line"/>
      <point x="45" y="50" type="line"/>
    </contour>
    <contour>
      <point x="350" y="818" type="line"/>
      <point x="283" y="750" type="line"/>
      <point x="279" y="750" type="line"/>
      <point x="212" y="818" type="line"/>
      <point x="145" y="818" type="line"/>
      <point x="241" y="706" type="line"/>
      <point x="321" y="706" type="line"/>
      <point x="417" y="818" type="line"/>
    </contour>
  </outline>
</glyph>
<glyph name="zcaron" format="1">
  <advance width="425"/>
  <unicode hex="017E"/>
  <outline>
    <contour>
      <point x="31" y="0" type="line"/>
      <point x="399" y="0" type="line"/>
      <point x="399" y="67" type="line"/>
      <point x="135" y="67" type="line"/>
      <point x="391" y="442" type="line"/>
      <point x="391" y="486" type="line"/>
      <point x="59" y="486" type="line"/>
      <point x="59" y="419" type="line"/>
      <point x="287" y="419" type="line"/>
      <point x="31" y="44" type="line"/>
    </contour>
    <contour>
      <point x="195" y="573" type="line"/>
      <point x="262" y="573" type="line"/>
      <point x="357" y="714" type="line"/>
      <point x="298" y="714" type="line"/>
      <point x="231" y="622" type="line"/>
      <point x="227" y="622" type="line"/>
      <point x="160" y="714" type="line"/>
      <point x="100" y="714" type="line"/>
    </contour>
  </outline>
</glyph>
<glyph name="uni0180" format="1">
  <advance width="544"/>
  <unicode hex="0180"/>
  <outline>
    <contour>
      <point x="164" y="343" type="line"/>
      <point x="210" y="386"/>
      <point x="253" y="409"/>
      <point x="294" y="409" type="curve" smooth="yes"/>
      <point x="386" y="409"/>
      <point x="422" y="341"/>
      <point x="422" y="240" type="curve" smooth="yes"/>
      <point x="422" y="126"/>
      <point x="363" y="57"/>
      <point x="283" y="57" type="curve" smooth="yes"/>
      <point x="251" y="57"/>
      <point x="207" y="71"/>
      <point x="164" y="108" type="curve"/>
    </contour>
    <contour>
      <point x="164" y="498" type="line"/>
      <point x="164" y="571" type="line"/>
      <point x="346" y="571" type="line"/>
      <point x="346" y="619" type="line"/>
      <point x="164" y="619" type="line"/>
      <point x="164" y="712" type="line"/>
      <point x="82" y="712" type="line"/>
      <point x="82" y="619" type="line"/>
      <point x="8" y="614" type="line"/>
      <point x="8" y="571" type="line"/>
      <point x="82" y="571" type="line"/>
      <point x="82" y="0" type="line"/>
      <point x="148" y="0" type="line"/>
      <point x="155" y="48" type="line"/>
      <point x="158" y="48" type="line"/>
      <point x="201" y="10"/>
      <point x="252" y="-12"/>
      <point x="297" y="-12" type="curve" smooth="yes"/>
      <point x="408" y="-12"/>
      <point x="507" y="81"/>
      <point x="507" y="241" type="curve" smooth="yes"/>
      <point x="507" y="385"/>
      <point x="440" y="478"/>
      <point x="314" y="478" type="curve" smooth="yes"/>
      <point x="260" y="478"/>
      <point x="206" y="449"/>
      <point x="162" y="410" type="curve"/>
    </contour>
  </outline>
</glyph>
<glyph name="uni018F" format="1">
  <advance width="659"/>
  <unicode hex="018F"/>
  <outline>
    <contour>
      <point x="522" y="286" type="line"/>
      <point x="509" y="144"/>
      <point x="434" y="57"/>
      <point x="328" y="57" type="curve" smooth="yes"/>
      <point x="224" y="57"/>
      <point x="151" y="143"/>
      <point x="143" y="286" type="curve"/>
    </contour>
    <contour>
      <point x="165" y="534" type="line"/>
      <point x="204" y="572"/>
      <point x="260" y="599"/>
      <point x="325" y="599" type="curve" smooth="yes"/>
      <point x="448" y="599"/>
      <point x="518" y="504"/>
      <point x="524" y="350" type="curve"/>
      <point x="60" y="350" type="line"/>
      <point x="59" y="341"/>
      <point x="58" y="332"/>
      <point x="58" y="325" type="curve" smooth="yes"/>
      <point x="58" y="123"/>
      <point x="164" y="-12"/>
      <point x="328" y="-12" type="curve" smooth="yes"/>
      <point x="492" y="-12"/>
      <point x="607" y="120"/>
      <point x="607" y="330" type="curve" smooth="yes"/>
      <point x="607" y="540"/>
      <point x="500" y="668"/>
      <point x="332" y="668" type="curve" smooth="yes"/>
      <point x="243" y="668"/>
      <point x="172" y="636"/>
      <point x="125" y="591" type="curve"/>
    </contour>
  </outline>
</glyph>
<glyph name="uni01CF" format="1">
  <advance width="263"/>
  <unicode hex="01CF"/>
  <outline>
    <contour>
      <point x="90" y="0" type="line"/>
      <point x="173" y="0" type="line"/>
      <point x="173" y="656" type="line"/>
      <point x="90" y="656" type="line"/>
    </contour>
    <contour>
      <point x="200" y="818" type="line"/>
      <point x="133" y="750" type="line"/>
      <point x="129" y="750" type="line"/>
      <point x="62" y="818" type="line"/>
      <point x="-4" y="818" type="line"/>
      <point x="92" y="706" type="line"/>
      <point x="171" y="706" type="line"/>
      <point x="267" y="818" type="line"/>
    </contour>
  </outline>
</glyph>
<glyph name="uni01D0" format="1">
  <advance width="246"/>
  <unicode hex="01D0"/>
  <outline>
    <contour>
      <point x="82" y="0" type="line"/>
      <point x="164" y="0" type="line"/>
      <point x="164" y="486" type="line"/>
      <point x="82" y="486" type="line"/>
    </contour>
    <contour>
      <point x="89" y="573" type="line"/>
      <point x="157" y="573" type="line"/>
      <point x="252" y="714" type="line"/>
      <point x="192" y="714" type="line"/>
      <point x="125" y="622" type="line"/>
      <point x="121" y="622" type="line"/>
      <point x="54" y="714" type="line"/>
      <point x="-5" y="714" type="line"/>
    </contour>
  </outline>
</glyph>
<glyph name="uni01D1" format="1">
  <advance width="664"/>
  <unicode hex="01D1"/>
  <outline>
    <contour>
      <point x="332" y="-12" type="curve" smooth="yes"/>
      <point x="497" y="-12"/>
      <point x="613" y="120"/>
      <point x="613" y="331" type="curve" smooth="yes"/>
      <point x="613" y="540"/>
      <point x="497" y="668"/>
      <point x="332" y="668" type="curve" smooth="yes"/>
      <point x="167" y="668"/>
      <point x="52" y="541"/>
      <point x="52" y="331" type="curve" smooth="yes"/>
      <point x="52" y="120"/>
      <point x="167" y="-12"/>
    </contour>
    <contour>
      <point x="332" y="61" type="curve" smooth="yes"/>
      <point x="215" y="61"/>
      <point x="138" y="167"/>
      <point x="138" y="331" type="curve" smooth="yes"/>
      <point x="138" y="494"/>
      <point x="215" y="595"/>
      <point x="332" y="595" type="curve" smooth="yes"/>
      <point x="449" y="595"/>
      <point x="526" y="494"/>
      <point x="526" y="331" type="curve" smooth="yes"/>
      <point x="526" y="167"/>
      <point x="449" y="61"/>
    </contour>
    <contour>
      <point x="401" y="818" type="line"/>
      <point x="334" y="750" type="line"/>
      <point x="330" y="750" type="line"/>
      <point x="263" y="818" type="line"/>
      <point x="196" y="818" type="line"/>
      <point x="292" y="706" type="line"/>
      <point x="372" y="706" type="line"/>
      <point x="468" y="818" type="line"/>
    </contour>
  </outline>
</glyph>
<glyph name="uni01D6" format="1">
  <advance width="544"/>
  <unicode hex="01D6"/>
  <outline>
    <contour>
      <point x="75" y="178" type="line" smooth="yes"/>
      <point x="75" y="54"/>
      <point x="121" y="-12"/>
      <point x="224" y="-12" type="curve" smooth="yes"/>
      <point x="291" y="-12"/>
      <point x="339" y="23"/>
      <point x="384" y="76" type="curve"/>
      <point x="387" y="76" type="line"/>
      <point x="394" y="0" type="line"/>
      <point x="462" y="0" type="line"/>
      <point x="462" y="486" type="line"/>
      <point x="380" y="486" type="line"/>
      <point x="380" y="141" type="line"/>
      <point x="334" y="84"/>
      <point x="299" y="59"/>
      <point x="249" y="59" type="curve" smooth="yes"/>
      <point x="185" y="59"/>
      <point x="158" y="98"/>
      <point x="158" y="189" type="curve" smooth="yes"/>
      <point x="158" y="486" type="line"/>
      <point x="75" y="486" type="line"/>
    </contour>
    <contour>
      <point x="186" y="588" type="curve" smooth="yes"/>
      <point x="212" y="588"/>
      <point x="231" y="608"/>
      <point x="231" y="633" type="curve" smooth="yes"/>
      <point x="231" y="659"/>
      <point x="212" y="679"/>
      <point x="186" y="679" type="curve" smooth="yes"/>
      <point x="160" y="679"/>
      <point x="141" y="659"/>
      <point x="141" y="633" type="curve" smooth="yes"/>
      <point x="141" y="608"/>
      <point x="160" y="588"/>
    </contour>
    <contour>
      <point x="359" y="588" type="curve" smooth="yes"/>
      <point x="385" y="588"/>
      <point x="404" y="608"/>
      <point x="404" y="633" type="curve" smooth="yes"/>
      <point x="404" y="659"/>
      <point x="385" y="679"/>
      <point x="359" y="679" type="curve" smooth="yes"/>
      <point x="333" y="679"/>
      <point x="313" y="659"/>
      <point x="313" y="633" type="curve" smooth="yes"/>
      <point x="313" y="608"/>
      <point x="333" y="588"/>
    </contour>
    <contour>
      <point x="149" y="750" type="line"/>
      <point x="395" y="750" type="line"/>
      <point x="395" y="797" type="line"/>
      <point x="149" y="797" type="line"/>
    </contour>
  </outline>
</glyph>
<glyph name="uni01D7" format="1">
  <advance width="645"/>
  <unicode hex="01D7"/>
  <outline>
    <contour>
      <point x="87" y="271" type="line" smooth="yes"/>
      <point x="87" y="60"/>
      <point x="189" y="-12"/>
      <point x="323" y="-12" type="curve" smooth="yes"/>
      <point x="457" y="-12"/>
      <point x="558" y="60"/>
      <point x="558" y="271" type="curve" smooth="yes"/>
      <point x="558" y="656" type="line"/>
      <point x="478" y="656" type="line"/>
      <point x="478" y="269" type="line" smooth="yes"/>
      <point x="478" y="111"/>
      <point x="410" y="61"/>
      <point x="323" y="61" type="curve" smooth="yes"/>
      <point x="237" y="61"/>
      <point x="170" y="111"/>
      <point x="170" y="269" type="curve" smooth="yes"/>
      <point x="170" y="656" type="line"/>
      <point x="87" y="656" type="line"/>
    </contour>
    <contour>
      <point x="272" y="839" type="line"/>
      <point x="339" y="839" type="line"/>
      <point x="452" y="950" type="line"/>
      <point x="361" y="950" type="line"/>
    </contour>
    <contour>
      <point x="236" y="715" type="curve" smooth="yes"/>
      <point x="263" y="715"/>
      <point x="282" y="734"/>
      <point x="282" y="761" type="curve" smooth="yes"/>
      <point x="282" y="787"/>
      <point x="263" y="806"/>
      <point x="236" y="806" type="curve" smooth="yes"/>
      <point x="210" y="806"/>
      <point x="191" y="787"/>
      <point x="191" y="761" type="curve" smooth="yes"/>
      <point x="191" y="734"/>
      <point x="210" y="715"/>
    </contour>
    <contour>
      <point x="409" y="715" type="curve" smooth="yes"/>
      <point x="435" y="715"/>
      <point x="454" y="734"/>
      <point x="454" y="761" type="curve" smooth="yes"/>
      <point x="454" y="787"/>
      <point x="435" y="806"/>
      <point x="409" y="806" type="curve" smooth="yes"/>
      <point x="383" y="806"/>
      <point x="364" y="787"/>
      <point x="364" y="761" type="curve" smooth="yes"/>
      <point x="364" y="734"/>
      <point x="383" y="715"/>
    </contour>
  </outline>
</glyph>
<glyph name="uni01DA" format="1">
  <advance width="544"/>
  <unicode hex="01DA"/>
  <outline>
    <contour>
      <point x="75" y="178" type="line" smooth="yes"/>
      <point x="75" y="54"/>
      <point x="121" y="-12"/>
      <point x="224" y="-12" type="curve" smooth="yes"/>
      <point x="291" y="-12"/>
      <point x="339" y="23"/>
      <point x="384" y="76" type="curve"/>
      <point x="387" y="76" type="line"/>
      <point x="394" y="0" type="line"/>
      <point x="462" y="0" type="line"/>
      <point x="462" y="486" type="line"/>
      <point x="380" y="486" type="line"/>
      <point x="380" y="141" type="line"/>
      <point x="334" y="84"/>
      <point x="299" y="59"/>
      <point x="249" y="59" type="curve" smooth="yes"/>
      <point x="185" y="59"/>
      <point x="158" y="98"/>
      <point x="158" y="189" type="curve" smooth="yes"/>
      <point x="158" y="486" type="line"/>
      <point x="75" y="486" type="line"/>
    </contour>
    <contour>
      <point x="237" y="720" type="line"/>
      <point x="308" y="720" type="line"/>
      <point x="398" y="823" type="line"/>
      <point x="337" y="823" type="line"/>
      <point x="274" y="759" type="line"/>
      <point x="270" y="759" type="line"/>
      <point x="208" y="823" type="line"/>
      <point x="147" y="823" type="line"/>
    </contour>
    <contour>
      <point x="186" y="588" type="curve" smooth="yes"/>
      <point x="212" y="588"/>
      <point x="231" y="608"/>
      <point x="231" y="633" type="curve" smooth="yes"/>
      <point x="231" y="659"/>
      <point x="212" y="679"/>
      <point x="186" y="679" type="curve" smooth="yes"/>
      <point x="160" y="679"/>
      <point x="141" y="659"/>
      <point x="141" y="633" type="curve" smooth="yes"/>
      <point x="141" y="608"/>
      <point x="160" y="588"/>
    </contour>
    <contour>
      <point x="359" y="588" type="curve" smooth="yes"/>
      <point x="385" y="588"/>
      <point x="404" y="608"/>
      <point x="404" y="633" type="curve" smooth="yes"/>
      <point x="404" y="659"/>
      <point x="385" y="679"/>
      <point x="359" y="679" type="curve" smooth="yes"/>
      <point x="333" y="679"/>
      <point x="313" y="659"/>
      <point x="313" y="633" type="curve" smooth="yes"/>
      <point x="313" y="608"/>
      <point x="333" y="588"/>
    </contour>
  </outline>
</glyph>
<glyph name="uni0218" format="1">
  <advance width="534"/>
  <unicode hex="0218"/>
  <outline>
    <contour>
      <point x="42" y="85" type="line"/>
      <point x="99" y="26"/>
      <point x="180" y="-12"/>
      <point x="272" y="-12" type="curve" smooth="yes"/>
      <point x="410" y="-12"/>
      <point x="495" y="71"/>
      <point x="495" y="175" type="curve" smooth="yes"/>
      <point x="495" y="272"/>
      <point x="436" y="317"/>
      <point x="360" y="350" type="curve" smooth="yes"/>
      <point x="267" y="390" type="line" smooth="yes"/>
      <point x="215" y="412"/>
      <point x="158" y="436"/>
      <point x="158" y="499" type="curve" smooth="yes"/>
      <point x="158" y="558"/>
      <point x="207" y="595"/>
      <point x="280" y="595" type="curve" smooth="yes"/>
      <point x="341" y="595"/>
      <point x="389" y="571"/>
      <point x="429" y="533" type="curve"/>
      <point x="474" y="587" type="line"/>
      <point x="427" y="635"/>
      <point x="358" y="668"/>
      <point x="280" y="668" type="curve" smooth="yes"/>
      <point x="161" y="668"/>
      <point x="74" y="594"/>
      <point x="74" y="494" type="curve" smooth="yes"/>
      <point x="74" y="398"/>
      <point x="145" y="351"/>
      <point x="207" y="325" type="curve" smooth="yes"/>
      <point x="301" y="284" type="line" smooth="yes"/>
      <point x="363" y="256"/>
      <point x="410" y="235"/>
      <point x="410" y="168" type="curve" smooth="yes"/>
      <point x="410" y="104"/>
      <point x="359" y="61"/>
      <point x="273" y="61" type="curve" smooth="yes"/>
      <point x="205" y="61"/>
      <point x="139" y="94"/>
      <point x="92" y="143" type="curve"/>
    </contour>
    <contour>
      <point x="243" y="-48" type="curve"/>
      <point x="225" y="-86" type="line"/>
      <point x="254" y="-93"/>
      <point x="277" y="-104"/>
      <point x="277" y="-130" type="curve" smooth="yes"/>
      <point x="277" y="-156"/>
      <point x="240" y="-169"/>
      <point x="188" y="-176" type="curve"/>
      <point x="196" y="-216" type="line"/>
      <point x="271" y="-210"/>
      <point x="341" y="-183"/>
      <point x="341" y="-125" type="curve" smooth="yes"/>
      <point x="341" y="-80"/>
      <point x="311" y="-58"/>
    </contour>
  </outline>
</glyph>
<glyph name="uni021A" format="1">
  <advance width="536"/>
  <unicode hex="021A"/>
  <outline>
    <contour>
      <point x="226" y="0" type="line"/>
      <point x="310" y="0" type="line"/>
      <point x="310" y="586" type="line"/>
      <point x="508" y="586" type="line"/>
      <point x="508" y="656" type="line"/>
      <point x="28" y="656" type="line"/>
      <point x="28" y="586" type="line"/>
      <point x="226" y="586" type="line"/>
    </contour>
    <contour>
      <point x="240" y="-48" type="curve"/>
      <point x="221" y="-86" type="line"/>
      <point x="250" y="-93"/>
      <point x="273" y="-104"/>
      <point x="273" y="-130" type="curve" smooth="yes"/>
      <point x="273" y="-156"/>
      <point x="236" y="-169"/>
      <point x="184" y="-176" type="curve"/>
      <point x="192" y="-216" type="line"/>
      <point x="268" y="-210"/>
      <point x="337" y="-183"/>
      <point x="337" y="-125" type="curve" smooth="yes"/>
      <point x="337" y="-80"/>
      <point x="307" y="-58"/>
    </contour>
  </outline>
</glyph>
<glyph name="uni021B" format="1">
  <advance width="338"/>
  <unicode hex="021B"/>
  <outline>
    <contour>
      <point x="96" y="150" type="line" smooth="yes"/>
      <point x="96" y="54"/>
      <point x="131" y="-12"/>
      <point x="235" y="-12" type="curve" smooth="yes"/>
      <point x="265" y="-12"/>
      <point x="298" y="-3"/>
      <point x="325" y="6" type="curve"/>
      <point x="309" y="68" type="line"/>
      <point x="293" y="62"/>
      <point x="271" y="55"/>
      <point x="254" y="55" type="curve" smooth="yes"/>
      <point x="198" y="55"/>
      <point x="179" y="89"/>
      <point x="179" y="149" type="curve" smooth="yes"/>
      <point x="179" y="419" type="line"/>
      <point x="310" y="419" type="line"/>
      <point x="310" y="486" type="line"/>
      <point x="179" y="486" type="line"/>
      <point x="179" y="622" type="line"/>
      <point x="110" y="622" type="line"/>
      <point x="100" y="486" type="line"/>
      <point x="24" y="481" type="line"/>
      <point x="24" y="419" type="line"/>
      <point x="96" y="419" type="line"/>
    </contour>
    <contour>
      <point x="184" y="-48" type="curve"/>
      <point x="166" y="-86" type="line"/>
      <point x="195" y="-93"/>
      <point x="217" y="-104"/>
      <point x="217" y="-130" type="curve" smooth="yes"/>
      <point x="217" y="-156"/>
      <point x="181" y="-169"/>
      <point x="128" y="-176" type="curve"/>
      <point x="137" y="-216" type="line"/>
      <point x="212" y="-210"/>
      <point x="281" y="-183"/>
      <point x="281" y="-125" type="curve" smooth="yes"/>
      <point x="281" y="-80"/>
      <point x="252" y="-58"/>
    </contour>
  </outline>
</glyph>
<glyph name="uni0259" format="1">
  <advance width="496"/>
  <unicode hex="0259"/>
  <outline>
    <contour>
      <point x="37" y="222" type="curve" smooth="yes"/>
      <point x="37" y="77"/>
      <point x="115" y="-12"/>
      <point x="238" y="-12" type="curve" smooth="yes"/>
      <point x="356" y="-12"/>
      <point x="450" y="85"/>
      <point x="450" y="244" type="curve" smooth="yes"/>
      <point x="450" y="404"/>
      <point x="358" y="498"/>
      <point x="236" y="498" type="curve" smooth="yes"/>
      <point x="168" y="498"/>
      <point x="113" y="476"/>
      <point x="68" y="445" type="curve"/>
      <point x="97" y="391" type="line"/>
      <point x="135" y="416"/>
      <point x="174" y="433"/>
      <point x="223" y="433" type="curve" smooth="yes"/>
      <point x="311" y="433"/>
      <point x="363" y="367"/>
      <point x="368" y="268" type="curve"/>
      <point x="41" y="268" type="line"/>
      <point x="39" y="256"/>
      <point x="37" y="240"/>
    </contour>
    <contour>
      <point x="110" y="213" type="curve"/>
      <point x="369" y="213" type="line"/>
      <point x="360" y="111"/>
      <point x="311" y="54"/>
      <point x="236" y="54" type="curve" smooth="yes"/>
      <point x="159" y="54"/>
      <point x="110" y="106"/>
    </contour>
  </outline>
</glyph>
<glyph name="uni02B9" format="1">
  <advance width="249"/>
  <unicode hex="02B9"/>
  <outline>
    <contour>
      <point x="81" y="434" type="line"/>
      <point x="135" y="434" type="line"/>
      <point x="169" y="590" type="line"/>
      <point x="185" y="690" type="line"/>
      <point x="104" y="690" type="line"/>
    </contour>
  </outline>
</glyph>
<glyph name="circumflex" format="1">
  <advance width="542"/>
  <unicode hex="02C6"/>
  <outline>
    <contour>
      <point x="143" y="573" type="line"/>
      <point x="202" y="573" type="line"/>
      <point x="269" y="664" type="line"/>
      <point x="273" y="664" type="line"/>
      <point x="340" y="573" type="line"/>
      <point x="400" y="573" type="line"/>
      <point x="305" y="714" type="line"/>
      <point x="237" y="714" type="line"/>
    </contour>
  </outline>
</glyph>
<glyph name="caron" format="1">
  <advance width="542"/>
  <unicode hex="02C7"/>
  <outline>
    <contour>
      <point x="237" y="573" type="line"/>
      <point x="305" y="573" type="line"/>
      <point x="400" y="714" type="line"/>
      <point x="340" y="714" type="line"/>
      <point x="273" y="622" type="line"/>
      <point x="269" y="622" type="line"/>
      <point x="202" y="714" type="line"/>
      <point x="143" y="714" type="line"/>
    </contour>
  </outline>
</glyph>
<glyph name="uni02C8" format="1">
  <advance width="114"/>
  <unicode hex="02C8"/>
  <outline>
    <contour>
      <point x="28" y="533" type="line"/>
      <point x="86" y="533" type="line"/>
      <point x="92" y="716" type="line"/>
      <point x="22" y="716" type="line"/>
    </contour>
  </outline>
</glyph>
<glyph name="uni02CA" format="1">
  <advance width="225"/>
  <unicode hex="02CA"/>
  <outline>
    <contour>
      <point x="222" y="714" type="line"/>
      <point x="136" y="714" type="line"/>
      <point x="46" y="573" type="line"/>
      <point x="109" y="573" type="line"/>
    </contour>
  </outline>
</glyph>
<glyph name="uni02CB" format="1">
  <advance width="225"/>
  <unicode hex="02CB"/>
  <outline>
    <contour>
      <point x="113" y="573" type="line"/>
      <point x="176" y="573" type="line"/>
      <point x="86" y="714" type="line"/>
      <point x="0" y="714" type="line"/>
    </contour>
  </outline>
</glyph>
<glyph name="uni02CC" format="1">
  <advance width="114"/>
  <unicode hex="02CC"/>
  <outline>
    <contour>
      <point x="28" y="-71" type="line"/>
      <point x="22" y="-254" type="line"/>
      <point x="92" y="-254" type="line"/>
      <point x="86" y="-71" type="line"/>
    </contour>
  </outline>
</glyph>
<glyph name="breve" format="1">
  <advance width="542"/>
  <unicode hex="02D8"/>
  <outline>
    <contour>
      <point x="271" y="575" type="curve" smooth="yes"/>
      <point x="357" y="575"/>
      <point x="393" y="643"/>
      <point x="397" y="702" type="curve"/>
      <point x="346" y="702" type="line"/>
      <point x="341" y="663"/>
      <point x="318" y="626"/>
      <point x="271" y="626" type="curve" smooth="yes"/>
      <point x="224" y="626"/>
      <point x="201" y="663"/>
      <point x="196" y="702" type="curve"/>
      <point x="145" y="702" type="line"/>
      <point x="149" y="643"/>
      <point x="185" y="575"/>
    </contour>
  </outline>
</glyph>
<glyph name="ring" format="1">
  <advance width="542"/>
  <unicode hex="02DA"/>
  <outline>
    <contour>
      <point x="271" y="542" type="curve" smooth="yes"/>
      <point x="325" y="542"/>
      <point x="365" y="579"/>
      <point x="365" y="635" type="curve" smooth="yes"/>
      <point x="365" y="690"/>
      <point x="325" y="727"/>
      <point x="271" y="727" type="curve" smooth="yes"/>
      <point x="217" y="727"/>
      <point x="178" y="690"/>
      <point x="178" y="635" type="curve" smooth="yes"/>
      <point x="178" y="579"/>
      <point x="217" y="542"/>
    </contour>
    <contour>
      <point x="271" y="579" type="curve" smooth="yes"/>
      <point x="244" y="579"/>
      <point x="223" y="601"/>
      <point x="223" y="635" type="curve" smooth="yes"/>
      <point x="223" y="668"/>
      <point x="244" y="690"/>
      <point x="271" y="690" type="curve" smooth="yes"/>
      <point x="298" y="690"/>
      <point x="319" y="668"/>
      <point x="319" y="635" type="curve" smooth="yes"/>
      <point x="319" y="601"/>
      <point x="298" y="579"/>
    </contour>
  </outline>
</glyph>
<glyph name="tilde" format="1">
  <advance width="542"/>
  <unicode hex="02DC"/>
  <outline>
    <contour>
      <point x="132" y="579" type="curve"/>
      <point x="179" y="579" type="line"/>
      <point x="184" y="613"/>
      <point x="195" y="630"/>
      <point x="215" y="630" type="curve" smooth="yes"/>
      <point x="249" y="630"/>
      <point x="279" y="579"/>
      <point x="329" y="579" type="curve" smooth="yes"/>
      <point x="378" y="579"/>
      <point x="405" y="625"/>
      <point x="410" y="685" type="curve"/>
      <point x="364" y="685" type="line"/>
      <point x="358" y="651"/>
      <point x="347" y="634"/>
      <point x="327" y="634" type="curve" smooth="yes"/>
      <point x="295" y="634"/>
      <point x="264" y="685"/>
      <point x="213" y="685" type="curve" smooth="yes"/>
      <point x="164" y="685"/>
      <point x="137" y="639"/>
    </contour>
  </outline>
</glyph>
<glyph name="hungarumlaut" format="1">
  <advance width="542"/>
  <unicode hex="02DD"/>
  <outline>
    <contour>
      <point x="173" y="571" type="line"/>
      <point x="228" y="571" type="line"/>
      <point x="316" y="714" type="line"/>
      <point x="244" y="714" type="line"/>
    </contour>
    <contour>
      <point x="320" y="571" type="line"/>
      <point x="375" y="571" type="line"/>
      <point x="463" y="714" type="line"/>
      <point x="391" y="714" type="line"/>
    </contour>
  </outline>
</glyph>
<glyph name="uni0300" format="1">
  <advance width="0"/>
  <unicode hex="0300"/>
  <outline>
    <contour>
      <point x="2" y="573" type="line"/>
      <point x="65" y="573" type="line"/>
      <point x="-25" y="714" type="line"/>
      <point x="-111" y="714" type="line"/>
    </contour>
  </outline>
</glyph>
<glyph name="uni0303" format="1">
  <advance width="0"/>
  <unicode hex="0303"/>
  <outline>
    <contour>
      <point x="-139" y="579" type="curve"/>
      <point x="-93" y="579" type="line"/>
      <point x="-87" y="613"/>
      <point x="-76" y="630"/>
      <point x="-56" y="630" type="curve" smooth="yes"/>
      <point x="-22" y="630"/>
      <point x="7" y="579"/>
      <point x="58" y="579" type="curve" smooth="yes"/>
      <point x="107" y="579"/>
      <point x="134" y="625"/>
      <point x="139" y="685" type="curve"/>
      <point x="93" y="685" type="line"/>
      <point x="87" y="651"/>
      <point x="76" y="634"/>
      <point x="56" y="634" type="curve" smooth="yes"/>
      <point x="24" y="634"/>
      <point x="-7" y="685"/>
      <point x="-58" y="685" type="curve" smooth="yes"/>
      <point x="-107" y="685"/>
      <point x="-134" y="639"/>
    </contour>
  </outline>
</glyph>
<glyph name="uni0304" format="1">
  <advance width="0"/>
  <unicode hex="0304"/>
  <outline>
    <contour>
      <point x="-123" y="601" type="line"/>
      <point x="123" y="601" type="line"/>
      <point x="123" y="658" type="line"/>
      <point x="-123" y="658" type="line"/>
    </contour>
  </outline>
</glyph>
<glyph name="uni0306" format="1">
  <advance width="0"/>
  <unicode hex="0306"/>
  <outline>
    <contour>
      <point x="0" y="575" type="curve" smooth="yes"/>
      <point x="86" y="575"/>
      <point x="122" y="643"/>
      <point x="126" y="702" type="curve"/>
      <point x="75" y="702" type="line"/>
      <point x="70" y="663"/>
      <point x="47" y="626"/>
      <point x="0" y="626" type="curve" smooth="yes"/>
      <point x="-47" y="626"/>
      <point x="-70" y="663"/>
      <point x="-75" y="702" type="curve"/>
      <point x="-126" y="702" type="line"/>
      <point x="-122" y="643"/>
      <point x="-86" y="575"/>
    </contour>
  </outline>
</glyph>
<glyph name="uni0309" format="1">
  <advance width="0"/>
  <unicode hex="0309"/>
  <outline>
    <contour>
      <point x="-28" y="553" type="line"/>
      <point x="30" y="563"/>
      <point x="83" y="588"/>
      <point x="83" y="646" type="curve" smooth="yes"/>
      <point x="83" y="697"/>
      <point x="32" y="724"/>
      <point x="-55" y="727" type="curve"/>
      <point x="-64" y="679" type="line"/>
      <point x="-9" y="677"/>
      <point x="19" y="663"/>
      <point x="19" y="637" type="curve" smooth="yes"/>
      <point x="19" y="612"/>
      <point x="-5" y="600"/>
      <point x="-37" y="591" type="curve"/>
    </contour>
  </outline>
</glyph>
<glyph name="uni030A" format="1">
  <advance width="0"/>
  <unicode hex="030A"/>
  <outline>
    <contour>
      <point x="0" y="542" type="curve" smooth="yes"/>
      <point x="54" y="542"/>
      <point x="93" y="579"/>
      <point x="93" y="635" type="curve" smooth="yes"/>
      <point x="93" y="690"/>
      <point x="54" y="727"/>
      <point x="0" y="727" type="curve" smooth="yes"/>
      <point x="-54" y="727"/>
      <point x="-93" y="690"/>
      <point x="-93" y="635" type="curve" smooth="yes"/>
      <point x="-93" y="579"/>
      <point x="-54" y="542"/>
    </contour>
    <contour>
      <point x="0" y="579" type="curve" smooth="yes"/>
      <point x="-27" y="579"/>
      <point x="-48" y="601"/>
      <point x="-48" y="635" type="curve" smooth="yes"/>
      <point x="-48" y="668"/>
      <point x="-27" y="690"/>
      <point x="0" y="690" type="curve" smooth="yes"/>
      <point x="27" y="690"/>
      <point x="48" y="668"/>
      <point x="48" y="635" type="curve" smooth="yes"/>
      <point x="48" y="601"/>
      <point x="27" y="579"/>
    </contour>
  </outline>
</glyph>
<glyph name="uni030C" format="1">
  <advance width="0"/>
  <unicode hex="030C"/>
  <outline>
    <contour>
      <point x="-34" y="573" type="line"/>
      <point x="34" y="573" type="line"/>
      <point x="129" y="714" type="line"/>
      <point x="69" y="714" type="line"/>
      <point x="2" y="622" type="line"/>
      <point x="-2" y="622" type="line"/>
      <point x="-69" y="714" type="line"/>
      <point x="-129" y="714" type="line"/>
    </contour>
  </outline>
</glyph>
<glyph name="uni0312" format="1">
  <advance width="0"/>
  <unicode hex="0312"/>
  <outline>
    <contour>
      <point x="28" y="732" type="line"/>
      <point x="-29" y="706"/>
      <point x="-53" y="661"/>
      <point x="-53" y="614" type="curve" smooth="yes"/>
      <point x="-53" y="569"/>
      <point x="-35" y="545"/>
      <point x="-2" y="545" type="curve" smooth="yes"/>
      <point x="20" y="545"/>
      <point x="38" y="560"/>
      <point x="38" y="590" type="curve" smooth="yes"/>
      <point x="38" y="616"/>
      <point x="17" y="629"/>
      <point x="-3" y="629" type="curve" smooth="yes"/>
      <point x="-6" y="629"/>
      <point x="-8" y="629"/>
      <point x="-11" y="628" type="curve"/>
      <point x="-9" y="658"/>
      <point x="8" y="682"/>
      <point x="46" y="700" type="curve"/>
    </contour>
  </outline>
</glyph>
<glyph name="uni0313" format="1">
  <advance width="0"/>
  <unicode hex="0313"/>
  <outline>
    <contour>
      <point x="-30" y="544" type="line"/>
      <point x="27" y="570"/>
      <point x="51" y="614"/>
      <point x="51" y="661" type="curve" smooth="yes"/>
      <point x="51" y="706"/>
      <point x="33" y="730"/>
      <point x="1" y="730" type="curve" smooth="yes"/>
      <point x="-21" y="730"/>
      <point x="-40" y="715"/>
      <point x="-40" y="686" type="curve" smooth="yes"/>
      <point x="-40" y="660"/>
      <point x="-19" y="647"/>
      <point x="1" y="647" type="curve" smooth="yes"/>
      <point x="4" y="647"/>
      <point x="7" y="647"/>
      <point x="10" y="648" type="curve"/>
      <point x="8" y="618"/>
      <point x="-10" y="594"/>
      <point x="-47" y="576" type="curve"/>
    </contour>
  </outline>
</glyph>
<glyph name="uni031B" format="1">
  <advance width="0"/>
  <unicode hex="031B"/>
  <outline>
    <contour>
      <point x="-1" y="434" type="line"/>
      <point x="81" y="442"/>
      <point x="143" y="474"/>
      <point x="143" y="547" type="curve" smooth="yes"/>
      <point x="143" y="571"/>
      <point x="133" y="593"/>
      <point x="120" y="611" type="curve"/>
      <point x="61" y="583" type="line"/>
      <point x="69" y="570"/>
      <point x="75" y="556"/>
      <point x="75" y="541" type="curve" smooth="yes"/>
      <point x="75" y="500"/>
      <point x="47" y="482"/>
      <point x="-9" y="475" type="curve"/>
    </contour>
  </outline>
</glyph>
<glyph name="uni0323" format="1">
  <advance width="0"/>
  <unicode hex="0323"/>
  <outline>
    <contour>
      <point x="0" y="-206" type="curve" smooth="yes"/>
      <point x="31" y="-206"/>
      <point x="54" y="-184"/>
      <point x="54" y="-152" type="curve" smooth="yes"/>
      <point x="54" y="-121"/>
      <point x="31" y="-99"/>
      <point x="0" y="-99" type="curve" smooth="yes"/>
      <point x="-31" y="-99"/>
      <point x="-54" y="-121"/>
      <point x="-54" y="-152" type="curve" smooth="yes"/>
      <point x="-54" y="-184"/>
      <point x="-31" y="-206"/>
    </contour>
  </outline>
</glyph>
<glyph name="uni0324" format="1">
  <advance width="0"/>
  <unicode hex="0324"/>
  <outline>
    <contour>
      <point x="-86" y="-201" type="curve" smooth="yes"/>
      <point x="-58" y="-201"/>
      <point x="-37" y="-179"/>
      <point x="-37" y="-152" type="curve" smooth="yes"/>
      <point x="-37" y="-124"/>
      <point x="-58" y="-103"/>
      <point x="-86" y="-103" type="curve" smooth="yes"/>
      <point x="-115" y="-103"/>
      <point x="-135" y="-124"/>
      <point x="-135" y="-152" type="curve" smooth="yes"/>
      <point x="-135" y="-179"/>
      <point x="-115" y="-201"/>
    </contour>
    <contour>
      <point x="86" y="-201" type="curve" smooth="yes"/>
      <point x="115" y="-201"/>
      <point x="135" y="-179"/>
      <point x="135" y="-152" type="curve" smooth="yes"/>
      <point x="135" y="-124"/>
      <point x="115" y="-103"/>
      <point x="86" y="-103" type="curve" smooth="yes"/>
      <point x="58" y="-103"/>
      <point x="37" y="-124"/>
      <point x="37" y="-152" type="curve" smooth="yes"/>
      <point x="37" y="-179"/>
      <point x="58" y="-201"/>
    </contour>
  </outline>
</glyph>
<glyph name="uni0326" format="1">
  <advance width="0"/>
  <unicode hex="0326"/>
  <outline>
    <contour>
      <point x="-29" y="-48" type="curve"/>
      <point x="-47" y="-86" type="line"/>
      <point x="-19" y="-93"/>
      <point x="4" y="-104"/>
      <point x="4" y="-130" type="curve" smooth="yes"/>
      <point x="4" y="-156"/>
      <point x="-32" y="-169"/>
      <point x="-85" y="-176" type="curve"/>
      <point x="-77" y="-216" type="line"/>
      <point x="-1" y="-210"/>
      <point x="68" y="-183"/>
      <point x="68" y="-125" type="curve" smooth="yes"/>
      <point x="68" y="-80"/>
      <point x="39" y="-58"/>
    </contour>
  </outline>
</glyph>
<glyph name="uni0327" format="1">
  <advance width="0"/>
  <unicode hex="0327"/>
  <outline>
    <contour>
      <point x="-59" y="-75" type="line"/>
      <point x="-19" y="-85"/>
      <point x="4" y="-98"/>
      <point x="4" y="-124" type="curve" smooth="yes"/>
      <point x="4" y="-151"/>
      <point x="-32" y="-165"/>
      <point x="-85" y="-172" type="curve"/>
      <point x="-77" y="-213" type="line"/>
      <point x="-1" y="-206"/>
      <point x="68" y="-179"/>
      <point x="68" y="-121" type="curve" smooth="yes"/>
      <point x="68" y="-80"/>
      <point x="41" y="-61"/>
      <point x="9" y="-50" type="curve"/>
      <point x="34" y="3" type="line"/>
      <point x="-19" y="3" type="line"/>
    </contour>
  </outline>
</glyph>
<glyph name="uni0331" format="1">
  <advance width="0"/>
  <unicode hex="0331"/>
  <outline>
    <contour>
      <point x="123" y="-113" type="line"/>
      <point x="-124" y="-113" type="line"/>
      <point x="-124" y="-171" type="line"/>
      <point x="123" y="-171" type="line"/>
    </contour>
  </outline>
</glyph>
<glyph name="pi" format="1">
  <advance width="561"/>
  <unicode hex="03C0"/>
  <outline>
    <contour>
      <point x="110" y="0" type="line"/>
      <point x="191" y="0" type="line"/>
      <point x="191" y="418" type="line"/>
      <point x="373" y="418" type="line"/>
      <point x="373" y="113" type="line" smooth="yes"/>
      <point x="373" y="36"/>
      <point x="399" y="-12"/>
      <point x="470" y="-12" type="curve" smooth="yes"/>
      <point x="492" y="-12"/>
      <point x="509" y="-9"/>
      <point x="525" y="-2" type="curve"/>
      <point x="514" y="61" type="line"/>
      <point x="504" y="58"/>
      <point x="497" y="56"/>
      <point x="490" y="56" type="curve" smooth="yes"/>
      <point x="468" y="56"/>
      <point x="456" y="75"/>
      <point x="456" y="107" type="curve" smooth="yes"/>
      <point x="456" y="418" type="line"/>
      <point x="530" y="418" type="line"/>
      <point x="530" y="486" type="line"/>
      <point x="93" y="486" type="line"/>
      <point x="24" y="481" type="line"/>
      <point x="24" y="418" type="line"/>
      <point x="110" y="418" type="line"/>
    </contour>
  </outline>
</glyph>
<glyph name="v.sups" format="1">
  <advance width="321"/>
  <unicode hex="1D5B"/>
  <outline>
    <contour>
      <point x="124" y="266" type="line"/>
      <point x="197" y="266" type="line"/>
      <point x="313" y="588" type="line"/>
      <point x="252" y="588" type="line"/>
      <point x="194" y="412" type="line"/>
      <point x="163" y="316" type="line"/>
      <point x="159" y="316" type="line"/>
      <point x="128" y="412" type="line"/>
      <point x="70" y="588" type="line"/>
      <point x="8" y="588" type="line"/>
    </contour>
  </outline>
</glyph>
<glyph name="uni1E06" format="1">
  <advance width="588"/>
  <unicode hex="1E06"/>
  <outline>
    <contour>
      <point x="90" y="0" type="line"/>
      <point x="299" y="0" type="line" smooth="yes"/>
      <point x="446" y="0"/>
      <point x="548" y="63"/>
      <point x="548" y="192" type="curve" smooth="yes"/>
      <point x="548" y="282"/>
      <point x="492" y="334"/>
      <point x="396" y="349" type="curve"/>
      <point x="396" y="353" type="line"/>
      <point x="473" y="373"/>
      <point x="510" y="431"/>
      <point x="510" y="496" type="curve" smooth="yes"/>
      <point x="510" y="611"/>
      <point x="418" y="656"/>
      <point x="285" y="656" type="curve" smooth="yes"/>
      <point x="90" y="656" type="line"/>
    </contour>
    <contour>
      <point x="173" y="376" type="line"/>
      <point x="173" y="590" type="line"/>
      <point x="274" y="590" type="line" smooth="yes"/>
      <point x="376" y="590"/>
      <point x="428" y="560"/>
      <point x="428" y="489" type="curve" smooth="yes"/>
      <point x="428" y="416"/>
      <point x="382" y="376"/>
      <point x="270" y="376" type="curve" smooth="yes"/>
    </contour>
    <contour>
      <point x="173" y="66" type="line"/>
      <point x="173" y="314" type="line"/>
      <point x="287" y="314" type="line" smooth="yes"/>
      <point x="402" y="314"/>
      <point x="466" y="277"/>
      <point x="466" y="196" type="curve" smooth="yes"/>
      <point x="466" y="107"/>
      <point x="400" y="66"/>
      <point x="287" y="66" type="curve" smooth="yes"/>
    </contour>
    <contour>
      <point x="422" y="-113" type="line"/>
      <point x="176" y="-113" type="line"/>
      <point x="176" y="-171" type="line"/>
      <point x="422" y="-171" type="line"/>
    </contour>
  </outline>
</glyph>
<glyph name="uni1E0D" format="1">
  <advance width="555"/>
  <unicode hex="1E0D"/>
  <outline>
    <contour>
      <point x="47" y="242" type="curve" smooth="yes"/>
      <point x="47" y="80"/>
      <point x="126" y="-12"/>
      <point x="248" y="-12" type="curve" smooth="yes"/>
      <point x="305" y="-12"/>
      <point x="357" y="20"/>
      <point x="395" y="57" type="curve"/>
      <point x="398" y="57" type="line"/>
      <point x="405" y="0" type="line"/>
      <point x="473" y="0" type="line"/>
      <point x="473" y="712" type="line"/>
      <point x="390" y="712" type="line"/>
      <point x="390" y="525" type="line"/>
      <point x="394" y="442" type="line"/>
      <point x="351" y="477"/>
      <point x="314" y="498"/>
      <point x="258" y="498" type="curve" smooth="yes"/>
      <point x="147" y="498"/>
      <point x="47" y="400"/>
    </contour>
    <contour>
      <point x="132" y="243" type="curve" smooth="yes"/>
      <point x="132" y="354"/>
      <point x="194" y="429"/>
      <point x="272" y="429" type="curve" smooth="yes"/>
      <point x="312" y="429"/>
      <point x="349" y="415"/>
      <point x="390" y="378" type="curve"/>
      <point x="390" y="124" type="line"/>
      <point x="350" y="79"/>
      <point x="311" y="57"/>
      <point x="266" y="57" type="curve" smooth="yes"/>
      <point x="181" y="57"/>
      <point x="132" y="127"/>
    </contour>
    <contour>
      <point x="302" y="-206" type="curve" smooth="yes"/>
      <point x="333" y="-206"/>
      <point x="356" y="-184"/>
      <point x="356" y="-152" type="curve" smooth="yes"/>
      <point x="356" y="-121"/>
      <point x="333" y="-99"/>
      <point x="302" y="-99" type="curve" smooth="yes"/>
      <point x="271" y="-99"/>
      <point x="248" y="-121"/>
      <point x="248" y="-152" type="curve" smooth="yes"/>
      <point x="248" y="-184"/>
      <point x="271" y="-206"/>
    </contour>
  </outline>
</glyph>
<glyph name="uni1E16" format="1">
  <advance width="527"/>
  <unicode hex="1E16"/>
  <outline>
    <contour>
      <point x="90" y="0" type="line"/>
      <point x="478" y="0" type="line"/>
      <point x="478" y="71" type="line"/>
      <point x="173" y="71" type="line"/>
      <point x="173" y="309" type="line"/>
      <point x="422" y="309" type="line"/>
      <point x="422" y="380" type="line"/>
      <point x="173" y="380" type="line"/>
      <point x="173" y="586" type="line"/>
      <point x="468" y="586" type="line"/>
      <point x="468" y="656" type="line"/>
      <point x="90" y="656" type="line"/>
    </contour>
    <contour>
      <point x="231" y="839" type="line"/>
      <point x="299" y="839" type="line"/>
      <point x="411" y="950" type="line"/>
      <point x="321" y="950" type="line"/>
    </contour>
    <contour>
      <point x="158" y="729" type="line"/>
      <point x="406" y="729" type="line"/>
      <point x="406" y="786" type="line"/>
      <point x="158" y="786" type="line"/>
    </contour>
  </outline>
</glyph>
<glyph name="uni1E17" format="1">
  <advance width="496"/>
  <unicode hex="1E17"/>
  <outline>
    <contour>
      <point x="46" y="242" type="curve" smooth="yes"/>
      <point x="46" y="83"/>
      <point x="149" y="-12"/>
      <point x="279" y="-12" type="curve" smooth="yes"/>
      <point x="345" y="-12"/>
      <point x="397" y="11"/>
      <point x="439" y="38" type="curve"/>
      <point x="410" y="92" type="line"/>
      <point x="374" y="69"/>
      <point x="335" y="54"/>
      <point x="289" y="54" type="curve" smooth="yes"/>
      <point x="196" y="54"/>
      <point x="133" y="120"/>
      <point x="127" y="225" type="curve"/>
      <point x="455" y="225" type="line"/>
      <point x="457" y="237"/>
      <point x="458" y="253"/>
      <point x="458" y="270" type="curve" smooth="yes"/>
      <point x="458" y="409"/>
      <point x="388" y="498"/>
      <point x="264" y="498" type="curve" smooth="yes"/>
      <point x="153" y="498"/>
      <point x="46" y="401"/>
    </contour>
    <contour>
      <point x="126" y="279" type="line"/>
      <point x="136" y="377"/>
      <point x="198" y="433"/>
      <point x="266" y="433" type="curve" smooth="yes"/>
      <point x="342" y="433"/>
      <point x="386" y="378"/>
      <point x="386" y="279" type="curve"/>
    </contour>
    <contour>
      <point x="212" y="720" type="line"/>
      <point x="269" y="720" type="line"/>
      <point x="373" y="823" type="line"/>
      <point x="293" y="823" type="line"/>
    </contour>
    <contour>
      <point x="142" y="601" type="line"/>
      <point x="387" y="601" type="line"/>
      <point x="387" y="658" type="line"/>
      <point x="142" y="658" type="line"/>
    </contour>
  </outline>
</glyph>
<glyph name="uni1E24" format="1">
  <advance width="652"/>
  <unicode hex="1E24"/>
  <outline>
    <contour>
      <point x="90" y="0" type="line"/>
      <point x="173" y="0" type="line"/>
      <point x="173" y="309" type="line"/>
      <point x="478" y="309" type="line"/>
      <point x="478" y="0" type="line"/>
      <point x="562" y="0" type="line"/>
      <point x="562" y="656" type="line"/>
      <point x="478" y="656" type="line"/>
      <point x="478" y="381" type="line"/>
      <point x="173" y="381" type="line"/>
      <point x="173" y="656" type="line"/>
      <point x="90" y="656" type="line"/>
    </contour>
    <contour>
      <point x="325" y="-206" type="curve" smooth="yes"/>
      <point x="357" y="-206"/>
      <point x="380" y="-184"/>
      <point x="380" y="-152" type="curve" smooth="yes"/>
      <point x="380" y="-121"/>
      <point x="357" y="-99"/>
      <point x="325" y="-99" type="curve" smooth="yes"/>
      <point x="294" y="-99"/>
      <point x="271" y="-121"/>
      <point x="271" y="-152" type="curve" smooth="yes"/>
      <point x="271" y="-184"/>
      <point x="294" y="-206"/>
    </contour>
  </outline>
</glyph>
<glyph name="uni1E25" format="1">
  <advance width="544"/>
  <unicode hex="1E25"/>
  <outline>
    <contour>
      <point x="82" y="0" type="line"/>
      <point x="164" y="0" type="line"/>
      <point x="164" y="352" type="line"/>
      <point x="213" y="401"/>
      <point x="247" y="427"/>
      <point x="297" y="427" type="curve" smooth="yes"/>
      <point x="361" y="427"/>
      <point x="389" y="388"/>
      <point x="389" y="297" type="curve" smooth="yes"/>
      <point x="389" y="0" type="line"/>
      <point x="471" y="0" type="line"/>
      <point x="471" y="308" type="line" smooth="yes"/>
      <point x="471" y="432"/>
      <point x="425" y="498"/>
      <point x="323" y="498" type="curve" smooth="yes"/>
      <point x="256" y="498"/>
      <point x="207" y="462"/>
      <point x="161" y="418" type="curve"/>
      <point x="164" y="518" type="line"/>
      <point x="164" y="712" type="line"/>
      <point x="82" y="712" type="line"/>
    </contour>
    <contour>
      <point x="286" y="-206" type="curve" smooth="yes"/>
      <point x="317" y="-206"/>
      <point x="340" y="-184"/>
      <point x="340" y="-152" type="curve" smooth="yes"/>
      <point x="340" y="-121"/>
      <point x="317" y="-99"/>
      <point x="286" y="-99" type="curve" smooth="yes"/>
      <point x="255" y="-99"/>
      <point x="232" y="-121"/>
      <point x="232" y="-152" type="curve" smooth="yes"/>
      <point x="232" y="-184"/>
      <point x="255" y="-206"/>
    </contour>
  </outline>
</glyph>
<glyph name="uni1E2A" format="1">
  <advance width="652"/>
  <unicode hex="1E2A"/>
  <outline>
    <contour>
      <point x="90" y="0" type="line"/>
      <point x="173" y="0" type="line"/>
      <point x="173" y="309" type="line"/>
      <point x="478" y="309" type="line"/>
      <point x="478" y="0" type="line"/>
      <point x="562" y="0" type="line"/>
      <point x="562" y="656" type="line"/>
      <point x="478" y="656" type="line"/>
      <point x="478" y="381" type="line"/>
      <point x="173" y="381" type="line"/>
      <point x="173" y="656" type="line"/>
      <point x="90" y="656" type="line"/>
    </contour>
    <contour>
      <point x="325" y="-206" type="curve" smooth="yes"/>
      <point x="411" y="-206"/>
      <point x="447" y="-138"/>
      <point x="452" y="-79" type="curve"/>
      <point x="401" y="-79" type="line"/>
      <point x="395" y="-118"/>
      <point x="372" y="-155"/>
      <point x="325" y="-155" type="curve" smooth="yes"/>
      <point x="279" y="-155"/>
      <point x="255" y="-118"/>
      <point x="250" y="-79" type="curve"/>
      <point x="199" y="-79" type="line"/>
      <point x="204" y="-138"/>
      <point x="240" y="-206"/>
    </contour>
  </outline>
</glyph>
